<svg width="53" height="53" viewBox="0 0 53 53" fill="none" xmlns="http://www.w3.org/2000/svg">
<g clip-path="url(#clip0_48_23109)">
<mask id="mask0_48_23109" style="mask-type:luminance" maskUnits="userSpaceOnUse" x="0" y="0" width="53" height="53">
<rect width="53" height="53" rx="6" fill="white"/>
</mask>
<g mask="url(#mask0_48_23109)">
<path fill-rule="evenodd" clip-rule="evenodd" d="M44.8501 19.814C44.5944 19.2054 44.1454 17.2961 44.017 15.7102C43.6743 11.4835 43.3766 5.17676 43.0671 3.98081C42.6416 2.33606 41.7348 0.636341 41.7348 0.046442C41.7348 -5.11476 40.5794 -6.40931 40.5794 -7.24429C40.5794 -7.78574 40.832 -7.49702 40.832 -10.625C40.832 -13.753 37.4137 -17.0255 33.9951 -17.0255L30.6729 -19.095V-22.0785H30.6423C29.8075 -21.148 28.3162 -19.7325 26.9657 -19.7325C25.6153 -19.7325 24.124 -21.148 23.2892 -22.0785H23.2586V-19.095L19.9364 -17.0255C16.5178 -17.0255 13.0995 -13.753 13.0995 -10.625C13.0995 -7.49702 13.3524 -7.78574 13.3524 -7.24429C13.3524 -6.40931 12.1967 -5.11476 12.1967 0.046442C12.1967 0.636341 11.2896 2.33606 10.8641 3.98081C10.5548 5.17676 10.2575 11.4835 9.91478 15.7102C9.78608 17.2961 9.33736 19.2054 9.08139 19.814C8.48385 21.2355 11.3661 23.4129 11.5589 23.4903C11.8078 23.5909 11.8925 23.0914 11.977 22.8964C12.3237 22.0943 11.0333 21.1409 11.1164 20.5841C11.2164 19.9149 11.3346 18.7396 11.7995 18.9272C12.2647 19.1148 12.422 20.1804 12.8869 20.368C13.3518 20.5555 13.5513 20.4309 13.6936 20.0784C13.777 19.8718 13.2486 18.5787 12.7744 17.3646C12.4393 16.5067 12.4966 15.8916 12.4966 15.8916C12.4966 15.8916 16.1949 7.30148 16.3511 5.56889C16.8537 4.77102 16.6201 4.37153 16.6845 3.79296C16.9421 1.47048 16.9453 -3.02149 17.2883 -3.02149C17.6134 -3.02149 17.6494 -1.61361 17.6494 -0.747458C17.6494 1.23786 19.1299 1.30983 19.1299 3.98081C19.1299 6.00183 18.5882 5.17194 18.5882 8.70908C18.5882 9.75571 16.8307 10.7182 16.8307 14.905C16.8307 15.9879 15.6753 18.0089 15.6753 22.3884C15.6753 30.762 17.9022 34.8406 17.9022 38.378C17.9022 42.1676 17.216 41.8429 17.216 46.2462C17.216 50.6498 19.9605 56.2802 19.9605 59.3481C19.9605 66.0977 17.7217 64.3651 17.7217 65.9172C17.7217 66.3263 18.1548 66.591 18.1548 66.591L21.9827 67.0001H23.9565L24.5586 66.2782C24.5586 66.2782 24.0288 65.3638 24.0288 64.8825C24.0288 64.4014 24.2935 63.463 24.2935 62.8852C24.2935 62.3078 23.5474 60.2865 23.5474 58.4579C23.5474 56.6292 23.4992 51.3714 23.4992 51.3714C23.4992 51.3714 23.6798 49.6391 23.6798 47.8343C23.6798 46.0297 22.5604 45.1273 22.5604 44.3334C22.5604 43.5392 25.7741 37.7643 25.7741 31.3398C25.7741 27.9109 26.6046 22.1357 26.6046 18.1293H26.9657H27.3269C27.3269 22.1357 28.1574 27.9109 28.1574 31.3398C28.1574 37.7643 31.3713 43.5392 31.3713 44.3334C31.3713 45.1273 30.2517 46.0297 30.2517 47.8343C30.2517 49.6391 30.4322 51.3714 30.4322 51.3714C30.4322 51.3714 30.3843 56.6292 30.3843 58.4579C30.3843 60.2865 29.638 62.3078 29.638 62.8852C29.638 63.463 29.9027 64.4014 29.9027 64.8825C29.9027 65.3638 29.3732 66.2782 29.3732 66.2782L29.975 67.0001H31.949L35.7767 66.591C35.7767 66.591 36.2101 66.3263 36.2101 65.9172C36.2101 64.3651 33.9713 66.0977 33.9713 59.3481C33.9713 56.2802 36.7155 50.6498 36.7155 46.2462C36.7155 41.8429 36.0292 42.1676 36.0292 38.378C36.0292 34.8406 38.2561 30.762 38.2561 22.3884C38.2561 18.0089 37.1007 15.9879 37.1007 14.905C37.1007 10.7182 35.3432 9.75571 35.3432 8.70908C35.3432 5.17194 34.8015 6.00183 34.8015 3.98081C34.8015 1.30983 36.2821 1.23786 36.2821 -0.747458C36.2821 -1.61361 36.3184 -3.02149 36.6432 -3.02149C36.9862 -3.02149 36.9893 1.47048 37.247 3.79296C37.3113 4.37153 37.0778 4.77102 37.5804 5.56889C37.7368 7.30148 41.4352 15.8916 41.4352 15.8916C41.4352 15.8916 41.4922 16.5067 41.1574 17.3646C40.6832 18.5787 40.1545 19.8718 40.2378 20.0784C40.3801 20.4309 40.5797 20.5555 41.0446 20.368C41.5097 20.1804 41.6671 19.1148 42.1319 18.9272C42.5968 18.7396 42.7153 19.9149 42.8151 20.5841C42.8984 21.1409 41.6078 22.0943 41.9545 22.8964C42.039 23.0914 42.124 23.5909 42.3729 23.4903C42.5651 23.4129 45.4476 21.2355 44.8501 19.814Z" fill="white"/>
<path fill-rule="evenodd" clip-rule="evenodd" d="M22.8479 20.2666C22.8524 20.5953 22.8541 20.8919 22.8538 21.1821C22.8538 21.4056 22.8518 21.6201 22.8496 21.834C22.849 21.898 22.8493 21.966 22.8482 22.0289C22.838 22.841 22.815 23.5612 22.7929 24.1131C22.7844 24.3186 22.7773 24.4795 22.7708 24.62C22.7643 24.7557 22.7589 24.8555 22.7543 24.9422C22.7427 25.1567 22.7393 25.2133 22.7385 25.2298C22.2948 27.1077 21.3807 30.2816 21.2361 31.8209C21.2182 32.0128 21.1919 32.2233 21.1601 32.448C21.1182 32.7438 21.066 33.067 21.011 33.4002C20.9645 33.6824 20.9161 33.9751 20.8682 34.2723C20.8149 34.6024 20.767 34.9115 20.7239 35.2187C20.6774 35.5473 20.6388 35.857 20.6088 36.1585C20.6045 36.1956 20.5983 36.2472 20.596 36.2724C20.5785 36.4642 20.5685 36.6475 20.5598 36.8297C20.5564 36.8869 20.5527 36.9507 20.549 37.0212C20.5439 37.187 20.549 37.3403 20.5544 37.4938C20.5575 37.5961 20.5547 37.699 20.5623 37.7885C20.7066 39.4726 21.9102 39.3766 21.9102 39.3766C22.7107 39.3766 24.2782 38.8793 24.7848 37.9645C24.8404 37.7653 24.8945 37.5621 24.9475 37.357C25.42 35.5272 25.7741 33.4699 25.7741 31.3398C25.7741 30.9664 25.7846 30.5638 25.8019 30.1402C25.8019 27.1445 24.3202 23.4966 22.8479 20.2666Z" fill="#059669"/>
<path fill-rule="evenodd" clip-rule="evenodd" d="M31.0834 20.2666C31.0788 20.5953 31.0771 20.8919 31.0771 21.1821C31.0771 21.4056 31.0794 21.6201 31.0814 21.834C31.0822 21.898 31.082 21.966 31.0831 22.0289C31.0933 22.841 31.1163 23.5612 31.1384 24.1131C31.1469 24.3186 31.154 24.4795 31.1605 24.62C31.167 24.7557 31.1721 24.8555 31.1769 24.9422C31.1885 25.1567 31.1919 25.2133 31.1928 25.2298C31.6364 27.1077 32.5506 30.2816 32.6952 31.8209C32.713 32.0128 32.7394 32.2233 32.7711 32.448C32.8131 32.7438 32.8652 33.067 32.9202 33.4002C32.9664 33.6824 33.0152 33.9751 33.0631 34.2723C33.1164 34.6024 33.1643 34.9115 33.2074 35.2187C33.2536 35.5473 33.2924 35.857 33.3225 36.1585C33.3267 36.1956 33.333 36.2472 33.3352 36.2724C33.3528 36.4642 33.3627 36.6475 33.3715 36.8297C33.3749 36.8869 33.3786 36.9507 33.3823 37.0212C33.3874 37.187 33.3823 37.3403 33.3769 37.4938C33.3738 37.5961 33.3766 37.699 33.369 37.7885C33.2247 39.4726 32.0208 39.3766 32.0208 39.3766C31.2206 39.3766 29.6527 38.8793 29.1465 37.9645C29.0909 37.7653 29.0368 37.5621 28.9835 37.357C28.5112 35.5272 28.1572 33.4699 28.1572 31.3398C28.1572 30.9664 28.1467 30.5638 28.1294 30.1402C28.1294 27.1445 29.6111 23.4966 31.0834 20.2666Z" fill="#059669"/>
<path d="M44.8501 19.814C44.5944 19.2054 44.1454 17.2961 44.017 15.7102C43.6743 11.4835 43.3766 5.17676 43.0671 3.98081C42.6416 2.33606 41.7348 0.636341 41.7348 0.046442C41.7348 -5.11476 40.5794 -6.40931 40.5794 -7.24429C40.5794 -7.78574 40.832 -7.49702 40.832 -10.625C40.832 -13.753 37.4137 -17.0255 33.9951 -17.0255L30.6729 -19.095V-22.0785H30.6423C29.8075 -21.148 28.3162 -19.7325 26.9657 -19.7325C25.6153 -19.7325 24.124 -21.148 23.2892 -22.0785H23.2586V-19.095L19.9364 -17.0255C16.5178 -17.0255 13.0995 -13.753 13.0995 -10.625C13.0995 -7.49702 13.3524 -7.78574 13.3524 -7.24429C13.3524 -6.40931 12.1967 -5.11476 12.1967 0.046442C12.1967 0.636341 11.2896 2.33606 10.8641 3.98081C10.5548 5.17676 10.2575 11.4835 9.91478 15.7102C9.78608 17.2961 9.33736 19.2054 9.08139 19.814C8.48385 21.2355 11.3661 23.4129 11.5589 23.4903C11.8078 23.5909 11.8925 23.0914 11.977 22.8964C12.3237 22.0943 11.0333 21.1409 11.1164 20.5841C11.2164 19.9149 11.3346 18.7396 11.7995 18.9272C12.2647 19.1148 12.422 20.1804 12.8869 20.368C13.3518 20.5555 13.5513 20.4309 13.6936 20.0784C13.777 19.8718 13.2486 18.5787 12.7744 17.3646C12.4393 16.5067 12.4966 15.8916 12.4966 15.8916C12.4966 15.8916 16.1949 7.30148 16.3511 5.56889C16.8537 4.77102 16.6201 4.37153 16.6845 3.79296C16.9421 1.47048 16.9453 -3.02149 17.2883 -3.02149C17.6134 -3.02149 17.6494 -1.61361 17.6494 -0.747458C17.6494 1.23786 19.1299 1.30983 19.1299 3.98081C19.1299 6.00183 18.5882 5.17194 18.5882 8.70908C18.5882 9.75571 16.8307 10.7182 16.8307 14.905C16.8307 15.9879 15.6753 18.0089 15.6753 22.3884C15.6753 30.762 17.9022 34.8406 17.9022 38.378C17.9022 42.1676 17.216 41.8429 17.216 46.2462C17.216 50.6498 19.9605 56.2802 19.9605 59.3481C19.9605 66.0977 17.7217 64.3651 17.7217 65.9172C17.7217 66.3263 18.1548 66.591 18.1548 66.591L21.9827 67.0001H23.9565L24.5586 66.2782C24.5586 66.2782 24.0288 65.3638 24.0288 64.8825C24.0288 64.4014 24.2935 63.463 24.2935 62.8852C24.2935 62.3078 23.5474 60.2865 23.5474 58.4579C23.5474 56.6292 23.4992 51.3714 23.4992 51.3714C23.4992 51.3714 23.6798 49.6391 23.6798 47.8343C23.6798 46.0297 22.5604 45.1273 22.5604 44.3334C22.5604 43.5392 25.7741 37.7643 25.7741 31.3398C25.7741 27.9109 26.6046 22.1357 26.6046 18.1293H26.9657H27.3269C27.3269 22.1357 28.1574 27.9109 28.1574 31.3398C28.1574 37.7643 31.3713 43.5392 31.3713 44.3334C31.3713 45.1273 30.2517 46.0297 30.2517 47.8343C30.2517 49.6391 30.4322 51.3714 30.4322 51.3714C30.4322 51.3714 30.3843 56.6292 30.3843 58.4579C30.3843 60.2865 29.638 62.3078 29.638 62.8852C29.638 63.463 29.9027 64.4014 29.9027 64.8825C29.9027 65.3638 29.3732 66.2782 29.3732 66.2782L29.975 67.0001H31.949L35.7767 66.591C35.7767 66.591 36.2101 66.3263 36.2101 65.9172C36.2101 64.3651 33.9713 66.0977 33.9713 59.3481C33.9713 56.2802 36.7155 50.6498 36.7155 46.2462C36.7155 41.8429 36.0292 42.1676 36.0292 38.378C36.0292 34.8406 38.2561 30.762 38.2561 22.3884C38.2561 18.0089 37.1007 15.9879 37.1007 14.905C37.1007 10.7182 35.3432 9.75571 35.3432 8.70908C35.3432 5.17194 34.8015 6.00183 34.8015 3.98081C34.8015 1.30983 36.2821 1.23786 36.2821 -0.747458C36.2821 -1.61361 36.3184 -3.02149 36.6432 -3.02149C36.9862 -3.02149 36.9893 1.47048 37.247 3.79296C37.3113 4.37153 37.0778 4.77102 37.5804 5.56889C37.7368 7.30148 41.4352 15.8916 41.4352 15.8916C41.4352 15.8916 41.4922 16.5067 41.1574 17.3646C40.6832 18.5787 40.1545 19.8718 40.2378 20.0784C40.3801 20.4309 40.5797 20.5555 41.0446 20.368C41.5097 20.1804 41.6671 19.1148 42.1319 18.9272C42.5968 18.7396 42.7153 19.9149 42.8151 20.5841C42.8984 21.1409 41.6078 22.0943 41.9545 22.8964C42.039 23.0914 42.124 23.5909 42.3729 23.4903C42.5651 23.4129 45.4476 21.2355 44.8501 19.814Z" stroke="#353E82" stroke-width="0.564973" stroke-linejoin="round"/>
</g>
<rect width="53" height="53" rx="6" fill="url(#paint0_linear_48_23109)"/>
</g>
<defs>
<linearGradient id="paint0_linear_48_23109" x1="16.0448" y1="32.0897" x2="16.0448" y2="53" gradientUnits="userSpaceOnUse">
<stop stop-color="#F6F6F8" stop-opacity="0.01"/>
<stop offset="1" stop-color="#F6F6F8"/>
</linearGradient>
<clipPath id="clip0_48_23109">
<rect width="53" height="53" fill="white"/>
</clipPath>
</defs>
</svg>
