<svg width="53" height="53" viewBox="0 0 53 53" fill="none" xmlns="http://www.w3.org/2000/svg">
<g clip-path="url(#clip0_28_15962)">
<rect width="53" height="53" rx="6" fill="url(#paint0_linear_28_15962)"/>
<mask id="mask0_28_15962" style="mask-type:luminance" maskUnits="userSpaceOnUse" x="0" y="0" width="53" height="53">
<rect width="53" height="53" rx="6" fill="white"/>
</mask>
<g mask="url(#mask0_28_15962)">
<rect width="53" height="53" rx="6" fill="url(#paint1_linear_28_15962)"/>
<mask id="mask1_28_15962" style="mask-type:luminance" maskUnits="userSpaceOnUse" x="0" y="0" width="53" height="53">
<rect width="53" height="53" rx="6" fill="white"/>
</mask>
<g mask="url(#mask1_28_15962)">
</g>
<path fill-rule="evenodd" clip-rule="evenodd" d="M44.8299 5.38823C44.2237 3.8839 43.4342 2.87994 43.3179 1.44019C43.2017 0.000442505 42.1942 -4.33252 41.8179 -5.78374C41.4414 -7.23496 39.5652 -10.1735 39.5652 -10.6939C39.5652 -15.2484 39.0332 -17.9766 39.0332 -18.7133C39.0332 -19.1912 39.2569 -18.9365 39.2569 -21.6968C39.2569 -23.682 37.6927 -25.7331 35.6897 -26.7283C35.6852 -26.7306 35.6809 -26.7323 35.6764 -26.7345C35.5882 -26.7782 35.4992 -26.8196 35.4094 -26.8589C35.3797 -26.8719 35.3494 -26.8839 35.3194 -26.8963C35.2542 -26.9238 35.1889 -26.9507 35.1229 -26.9759C35.0867 -26.9898 35.0502 -27.0023 35.0137 -27.0155C34.9534 -27.0372 34.8929 -27.0581 34.8319 -27.0781C34.7929 -27.0906 34.7534 -27.1025 34.7142 -27.1142C34.6552 -27.1319 34.5959 -27.1489 34.5364 -27.1648C34.4962 -27.1756 34.4557 -27.1858 34.4152 -27.1955C34.3557 -27.21 34.2959 -27.2232 34.2362 -27.2354C34.1957 -27.2439 34.1554 -27.2521 34.1149 -27.2596C34.0537 -27.2708 33.9919 -27.2803 33.9302 -27.2893C33.8914 -27.295 33.8527 -27.3015 33.8137 -27.3062C33.7464 -27.3144 33.6787 -27.3204 33.6112 -27.3259C33.5779 -27.3286 33.5449 -27.3326 33.5119 -27.3346C33.4114 -27.3409 33.3107 -27.3446 33.2099 -27.3446V-27.3446L29.5579 -29.4904L29.7257 -31.0977C29.7257 -31.0977 28.9084 -33.6222 26.9924 -33.6222C25.0767 -33.6222 24.2592 -31.0977 24.2592 -31.0977L24.4272 -29.4904L20.7752 -27.3446V-27.3446C20.6744 -27.3446 20.5737 -27.3409 20.4732 -27.3346C20.4399 -27.3326 20.4069 -27.3286 20.3739 -27.3259C20.3062 -27.3204 20.2387 -27.3144 20.1712 -27.3062C20.1324 -27.3015 20.0937 -27.295 20.0547 -27.2893C19.9932 -27.2803 19.9314 -27.2708 19.8699 -27.2596C19.8297 -27.2521 19.7892 -27.2439 19.7487 -27.2354C19.6892 -27.2232 19.6294 -27.21 19.5699 -27.1955C19.5294 -27.1858 19.4889 -27.1756 19.4487 -27.1648C19.3892 -27.1489 19.3299 -27.1319 19.2709 -27.1142C19.2314 -27.1025 19.1922 -27.0906 19.1529 -27.0781C19.0922 -27.0581 19.0317 -27.0372 18.9712 -27.0155C18.9347 -27.0023 18.8982 -26.9898 18.8619 -26.9759C18.7962 -26.9507 18.7309 -26.9238 18.6654 -26.8963C18.6357 -26.8839 18.6054 -26.8719 18.5757 -26.8589C18.4859 -26.8196 18.3969 -26.7782 18.3087 -26.7345C18.3042 -26.7323 18.2997 -26.7306 18.2952 -26.7283H18.2954C16.2922 -25.7331 14.7282 -23.682 14.7282 -21.6968C14.7282 -18.9365 14.9517 -19.1912 14.9517 -18.7133C14.9517 -17.9766 14.4199 -15.2484 14.4199 -10.6939C14.4199 -10.1735 12.5434 -7.23496 12.1672 -5.78374C11.7909 -4.33252 10.7834 0.000442505 10.6672 1.44019C10.5509 2.87994 9.76142 3.8839 9.15517 5.38823C8.35842 7.36474 10.8802 8.44598 11.0622 8.51928C11.2977 8.61402 11.5617 8.61127 11.6414 8.42728C11.9694 7.67039 10.2382 6.66618 10.5487 6.1177C10.8634 5.56174 11.4007 4.93773 11.8404 5.11473C12.2802 5.29174 12.0694 6.68413 12.5094 6.86113C12.9492 7.03814 13.1377 6.92047 13.2724 6.58789C13.4072 6.25532 13.3444 3.65629 12.6772 3.38778C13.0124 2.92981 13.2257 2.61393 13.2257 2.61393C13.2257 2.61393 14.9612 -0.141913 15.7277 -1.22466C16.4942 -2.30765 17.8637 -6.38657 18.0019 -7.91557C18.3959 -8.48873 17.9444 -9.0756 18.1157 -9.55975C18.7982 -11.4876 18.7649 -13.6716 19.0684 -13.6716C19.3559 -13.6716 20.0619 -11.165 20.0619 -8.80809C20.0619 -7.02454 19.5829 -7.75701 19.5829 -4.63593C19.5829 -3.71224 18.0284 -2.86285 18.0284 0.831635C18.0284 1.78723 17.0067 3.57078 17.0067 7.43529C17.0067 14.8245 20.3142 19.4876 20.3142 22.6089C20.3142 25.9531 19.4044 24.9983 19.4044 28.8837C19.4044 32.7694 22.0579 37.857 22.0579 40.5643C22.0579 46.0076 18.6464 43.097 18.6464 44.7601C18.6464 45.1214 19.5942 45.6297 19.5942 45.6297L22.1624 46.6359L23.8774 46.8014C24.6387 46.8014 25.3559 46.5369 25.3559 45.2139C25.3559 44.7893 25.3179 43.72 25.3179 43.2104C25.3179 42.7008 24.7492 41.2329 24.7492 39.6194C24.7492 38.0056 24.8629 33.4578 24.8629 33.4578C24.8629 33.4578 25.6589 31.2324 25.6589 29.6399C25.6589 28.0473 24.7872 25.5397 24.7872 24.8392C24.7872 24.1384 25.9387 22.3441 25.9387 15.3339C25.9387 12.3083 26.6732 7.21216 26.6732 3.67698H26.9924H27.3119C27.3119 7.21216 28.0464 12.3083 28.0464 15.3339C28.0464 22.3441 29.1979 24.1384 29.1979 24.8392C29.1979 25.5397 28.3259 28.0473 28.3259 29.6399C28.3259 31.2324 29.1219 33.4578 29.1219 33.4578C29.1219 33.4578 29.2357 38.0056 29.2357 39.6194C29.2357 41.2329 28.6672 42.7008 28.6672 43.2104C28.6672 43.72 28.6292 44.7893 28.6292 45.2139C28.6292 46.5369 29.3462 46.8014 30.1074 46.8014L31.8227 46.6359L34.3909 45.6297C34.3909 45.6297 35.3387 45.1214 35.3387 44.7601C35.3387 43.097 31.9269 46.0076 31.9269 40.5643C31.9269 37.857 34.5804 32.7694 34.5804 28.8837C34.5804 24.9983 33.6707 25.9531 33.6707 22.6089C33.6707 19.4876 36.9784 14.8245 36.9784 7.43529C36.9784 3.57078 35.9564 1.78723 35.9564 0.831635C35.9564 -2.86285 34.4022 -3.71224 34.4022 -4.63593C34.4022 -7.75701 33.9232 -7.02454 33.9232 -8.80809C33.9232 -11.165 34.6292 -13.6716 34.9167 -13.6716C35.2202 -13.6716 35.1869 -11.4876 35.8692 -9.55975C36.0407 -9.0756 35.5892 -8.48873 35.9829 -7.91557C36.1214 -6.38657 37.4909 -2.30765 38.2572 -1.22466C39.0239 -0.141913 40.7592 2.61393 40.7592 2.61393C40.7592 2.61393 40.9724 2.92981 41.3079 3.38778C40.6407 3.65629 40.5779 6.25532 40.7127 6.58789C40.8472 6.92047 41.0359 7.03814 41.4757 6.86113C41.9154 6.68413 41.7047 5.29174 42.1444 5.11473C42.5844 4.93773 43.1217 5.56174 43.4364 6.1177C43.7469 6.66618 42.0157 7.67039 42.3437 8.42728C42.4234 8.61127 42.6874 8.61402 42.9229 8.51928C43.1049 8.44598 45.6264 7.36474 44.8299 5.38823" fill="white"/>
<path fill-rule="evenodd" clip-rule="evenodd" d="M19.5831 -4.63582C19.5831 -3.71214 18.0288 -2.86275 18.0288 0.83174C18.0288 1.78734 17.0068 3.57063 17.0068 7.43515C17.0068 9.83698 17.3571 11.9494 17.8288 13.8157C18.6466 10.6637 19.6858 7.37033 22.0361 7.06792C24.3863 6.76551 26.9928 2.95235 26.9928 1.66717C26.9928 1.66717 22.4108 -4.53211 22.4108 -5.21272C22.4108 -5.89308 20.8226 -5.3441 19.5831 -4.63582" fill="#BCC4FF"/>
<path fill-rule="evenodd" clip-rule="evenodd" d="M19.6572 8.85004C19.8 10.0023 19.9352 11.7654 19.9352 14.3116C19.9352 16.6823 19.86 18.4556 19.7392 19.7782C20.0807 20.8442 20.3142 21.7816 20.3142 22.6088C20.3142 22.6188 20.314 22.6275 20.314 22.6372C21.2385 20.4456 21.9995 17.0752 21.9995 13.8157C21.9995 8.86824 22.036 7.06799 22.036 7.06799C21.032 7.19713 20.2677 7.87326 19.6572 8.85004" fill="#7E8DFE"/>
<path fill-rule="evenodd" clip-rule="evenodd" d="M25.6648 4.39282V4.39282C24.6938 5.67651 23.3266 6.90185 22.0356 7.06789C22.0263 7.06914 22.0176 7.07138 22.0083 7.07288C22.0191 8.19376 22.0356 10.1743 22.0356 11.6467C22.0356 13.8156 23.9151 17.657 23.9151 18.9611C23.9151 20.2652 23.7446 20.4921 23.9151 20.8888C24.0858 21.2859 24.5216 23.2893 24.6543 24.0642C24.6903 24.2736 24.7528 24.4391 24.8243 24.5708C25.0206 23.694 25.9383 21.5948 25.9383 15.3339C25.9383 13.5756 26.1861 11.1184 26.3941 8.67418C25.9951 7.38601 25.5616 5.63961 25.6648 4.39282" fill="#7E8DFE"/>
<path fill-rule="evenodd" clip-rule="evenodd" d="M22.494 23.4405C22.494 22.0229 21.8685 20.7188 21.5843 21.5694C21.3 22.4198 20.6178 23.4973 20.2148 24.2021C19.9895 25.6925 19.4565 25.7915 19.4085 28.484C19.411 28.6214 19.4105 28.7555 19.4048 28.8839C19.4048 28.9699 19.4075 29.0572 19.41 29.1442C19.5273 30.8891 21.3348 34.4265 21.9995 34.1602C22.6993 33.88 23.0058 32.9663 22.892 31.2087C22.7783 29.4508 22.494 24.8581 22.494 23.4405" fill="white"/>
<path fill-rule="evenodd" clip-rule="evenodd" d="M24.787 24.8391C24.787 24.764 24.8005 24.6758 24.824 24.5703C24.7525 24.4387 24.69 24.2734 24.6542 24.0642C24.5215 23.2894 24.0857 21.2859 23.9152 20.8888C23.7445 20.4919 23.6045 19.5615 23.2505 20.2598C22.8955 20.9611 22.4965 21.7611 22.3247 22.1513C22.3245 22.1518 22.3242 22.1523 22.3242 22.1525C22.4252 22.5218 22.4937 22.974 22.4937 23.4405C22.4937 24.858 22.778 29.451 22.8917 31.2086C22.8917 31.2086 23.5392 33.7224 24.201 33.59C24.3755 33.5551 24.6107 33.519 24.8622 33.4846C24.8625 33.4689 24.8627 33.4576 24.8627 33.4576C24.8627 33.4576 25.6587 31.2323 25.6587 29.6397C25.6587 28.0474 24.787 25.5399 24.787 24.8391" fill="white"/>
<path fill-rule="evenodd" clip-rule="evenodd" d="M11.4827 1.37179C11.2417 0.831537 11.4175 -2.72359 11.6597 -3.7268C11.9022 -4.73026 13.543 -7.40508 14.2942 -7.80198C15.0452 -8.19888 15.3865 -4.45652 15.0452 -3.43611C14.7042 -2.41544 13.2257 2.61384 13.2257 2.61384C13.2257 2.61384 11.7237 1.91204 11.4827 1.37179" fill="white"/>
<path fill-rule="evenodd" clip-rule="evenodd" d="M42.5022 1.37179C42.7432 0.831537 42.5675 -2.72359 42.3252 -3.7268C42.0827 -4.73026 40.442 -7.40508 39.6907 -7.80198C38.9397 -8.19888 38.5985 -4.45652 38.9397 -3.43611C39.2807 -2.41544 40.759 2.61384 40.759 2.61384C40.759 2.61384 42.2612 1.91204 42.5022 1.37179" fill="white"/>
<path fill-rule="evenodd" clip-rule="evenodd" d="M15.0456 -3.43604C14.8036 -2.65471 14.3248 -1.0726 13.8788 0.405044C13.5218 1.60795 13.2261 2.61391 13.2261 2.61391C13.2261 2.61391 14.9613 -0.141688 15.7278 -1.22468C16.4943 -2.30767 17.8638 -6.38659 18.0023 -7.91534C17.3198 -7.12155 15.5693 -5.12809 15.0456 -3.43604" fill="white"/>
<path fill-rule="evenodd" clip-rule="evenodd" d="M25.6652 4.39282V4.39282C25.6612 4.39806 25.6569 4.40329 25.6529 4.40828C25.6269 4.44293 25.5997 4.47709 25.5729 4.51149C25.5267 4.57083 25.4799 4.63016 25.4319 4.689C25.4032 4.72465 25.3739 4.76005 25.3444 4.79545C25.2922 4.85803 25.2392 4.92011 25.1854 4.98169C25.1609 5.00961 25.1372 5.03753 25.1127 5.0652C24.9494 5.24845 24.7792 5.4262 24.6034 5.59573C24.5889 5.60969 24.5742 5.6234 24.5597 5.63737C24.4817 5.71141 24.4029 5.78371 24.3232 5.85426C24.3097 5.86623 24.2962 5.8782 24.2824 5.88991C24.0929 6.0552 23.8992 6.20928 23.7017 6.34764C23.8994 7.81806 24.3337 9.59088 24.7684 10.1157C25.1149 10.5338 25.6247 8.49692 25.9009 6.79889C25.7214 5.95224 25.6072 5.09387 25.6652 4.39282" fill="#7E8DFE"/>
<path fill-rule="evenodd" clip-rule="evenodd" d="M34.4019 -4.63582C34.4019 -3.71214 35.9562 -2.86275 35.9562 0.83174C35.9562 1.78734 36.9782 3.57063 36.9782 7.43515C36.9782 9.83698 36.6279 11.9494 36.1562 13.8157C35.3384 10.6637 34.2989 7.37033 31.9487 7.06792C29.5987 6.76551 26.9922 2.95235 26.9922 1.66717C26.9922 1.66717 31.5742 -4.53211 31.5742 -5.21272C31.5742 -5.89308 33.1624 -5.3441 34.4019 -4.63582" fill="#BCC4FF"/>
<path fill-rule="evenodd" clip-rule="evenodd" d="M34.328 8.85004C34.1852 10.0023 34.05 11.7654 34.05 14.3116C34.05 16.6823 34.1252 18.4556 34.246 19.7782C33.9045 20.8442 33.671 21.7816 33.671 22.6088C33.671 22.6188 33.6712 22.6275 33.6712 22.6372C32.7467 20.4456 31.9855 17.0752 31.9855 13.8157C31.9855 8.86824 31.9492 7.06799 31.9492 7.06799C32.9532 7.19713 33.7175 7.87326 34.328 8.85004" fill="#7E8DFE"/>
<path fill-rule="evenodd" clip-rule="evenodd" d="M28.3198 4.39282V4.39282C29.2911 5.67651 30.6583 6.90185 31.9491 7.06789C31.9583 7.06914 31.9673 7.07138 31.9766 7.07288C31.9658 8.19376 31.9491 10.1743 31.9491 11.6467C31.9491 13.8156 30.0696 17.657 30.0696 18.9611C30.0696 20.2652 30.2401 20.4921 30.0696 20.8888C29.8988 21.2859 29.4631 23.2893 29.3303 24.0642C29.2946 24.2736 29.2321 24.4391 29.1603 24.5708C28.9641 23.694 28.0463 21.5948 28.0463 15.3339C28.0463 13.5756 27.7986 11.1184 27.5908 8.67418C27.9896 7.38601 28.4233 5.63961 28.3198 4.39282" fill="#7E8DFE"/>
<path fill-rule="evenodd" clip-rule="evenodd" d="M31.491 23.4405C31.491 22.0229 32.1165 20.7188 32.4007 21.5694C32.685 22.4198 33.3675 23.4973 33.7702 24.2021C33.9955 25.6925 34.5287 25.7915 34.5767 28.484C34.574 28.6214 34.5747 28.7555 34.5802 28.8839C34.5802 28.9699 34.5775 29.0572 34.575 29.1442C34.458 30.8891 32.6502 34.4265 31.9855 34.1602C31.2857 33.88 30.9792 32.9663 31.093 31.2087C31.2067 29.4508 31.491 24.8581 31.491 23.4405" fill="white"/>
<path fill-rule="evenodd" clip-rule="evenodd" d="M29.1979 24.8391C29.1979 24.764 29.1844 24.6758 29.1609 24.5703C29.2324 24.4387 29.2947 24.2734 29.3307 24.0642C29.4632 23.2894 29.8992 21.2859 30.0697 20.8888C30.2402 20.4919 30.3802 19.5615 30.7342 20.2598C31.0894 20.9611 31.4884 21.7611 31.6602 22.1513C31.6604 22.1518 31.6604 22.1523 31.6607 22.1525C31.5597 22.5218 31.4912 22.974 31.4912 23.4405C31.4912 24.858 31.2069 29.451 31.0932 31.2086C31.0932 31.2086 30.4457 33.7224 29.7839 33.59C29.6094 33.5551 29.3742 33.519 29.1227 33.4846C29.1224 33.4689 29.1222 33.4576 29.1222 33.4576C29.1222 33.4576 28.3262 31.2323 28.3262 29.6397C28.3262 28.0474 29.1979 25.5399 29.1979 24.8391" fill="white"/>
<path fill-rule="evenodd" clip-rule="evenodd" d="M38.9397 -3.43604C39.1814 -2.65471 39.6604 -1.0726 40.1062 0.405044C40.4634 1.60795 40.7592 2.61391 40.7592 2.61391C40.7592 2.61391 39.0239 -0.141688 38.2574 -1.22468C37.4909 -2.30767 36.1214 -6.38659 35.9829 -7.91534C36.6652 -7.12155 38.4159 -5.12809 38.9397 -3.43604" fill="white"/>
<path fill-rule="evenodd" clip-rule="evenodd" d="M31.9494 -6.95152C31.1501 -7.97219 27.5111 -12.348 27.6249 -12.5457C27.6251 -12.5462 27.6251 -12.5472 27.6254 -12.5477C27.3636 -12.1015 27.1426 -11.7856 26.9926 -11.6577C26.8426 -11.7856 26.6216 -12.1015 26.3601 -12.5477C26.3604 -12.5472 26.3601 -12.5462 26.3606 -12.5457C26.4741 -12.348 22.8351 -7.97219 22.0361 -6.95152C22.0361 -6.95152 22.4941 -6.04429 22.4109 -5.2126C22.4109 -4.53224 26.9926 1.66704 26.9926 1.66704C26.9926 1.66704 31.5746 -4.53224 31.5746 -5.2126C31.4911 -6.04429 31.9494 -6.95152 31.9494 -6.95152" fill="#7E8DFE"/>
<path fill-rule="evenodd" clip-rule="evenodd" d="M28.3197 4.39282V4.39282C28.3237 4.39806 28.328 4.40329 28.332 4.40828C28.3582 4.44293 28.3855 4.47709 28.4122 4.51149C28.4585 4.57083 28.505 4.63016 28.553 4.689C28.5817 4.72465 28.6112 4.76005 28.6407 4.79545C28.6927 4.85803 28.746 4.92011 28.7995 4.98169C28.824 5.00961 28.8477 5.03753 28.8722 5.0652C29.0357 5.24845 29.206 5.4262 29.3815 5.59573C29.396 5.60969 29.4107 5.6234 29.4252 5.63737C29.5032 5.71141 29.582 5.78371 29.6617 5.85426C29.6752 5.86623 29.689 5.8782 29.7025 5.88991C29.892 6.0552 30.0857 6.20928 30.2832 6.34764C30.0855 7.81806 29.6512 9.59088 29.2165 10.1157C28.8702 10.5338 28.3602 8.49692 28.084 6.79889C28.2637 5.95224 28.3777 5.09387 28.3197 4.39282" fill="#7E8DFE"/>
<path fill-rule="evenodd" clip-rule="evenodd" d="M22.494 23.4405C22.494 22.0229 21.8685 20.7188 21.5843 21.5694C21.3 22.4198 20.6178 23.4973 20.2148 24.2021C19.9895 25.6925 19.4565 25.7915 19.4085 28.484C19.411 28.6214 19.4105 28.7555 19.4048 28.8839C19.4048 28.9699 19.4075 29.0572 19.41 29.1442C19.5273 30.8891 21.3348 34.4265 21.9995 34.1602C22.6993 33.88 23.0058 32.9663 22.892 31.2087C22.7783 29.4508 22.494 24.8581 22.494 23.4405Z" fill="#059669" stroke="#353E82" stroke-width="0.5" stroke-linejoin="round"/>
<path fill-rule="evenodd" clip-rule="evenodd" d="M24.787 24.8391C24.787 24.764 24.8005 24.6758 24.824 24.5703C24.7525 24.4387 24.69 24.2734 24.6542 24.0642C24.5215 23.2894 24.0857 21.2859 23.9152 20.8888C23.7445 20.4919 23.6045 19.5615 23.2505 20.2598C22.8955 20.9611 22.4965 21.7611 22.3247 22.1513C22.3245 22.1518 22.3242 22.1523 22.3242 22.1525C22.4252 22.5218 22.4937 22.974 22.4937 23.4405C22.4937 24.858 22.778 29.451 22.8917 31.2086C22.8917 31.2086 23.5392 33.7224 24.201 33.59C24.3755 33.5551 24.6107 33.519 24.8622 33.4846C24.8625 33.4689 24.8627 33.4576 24.8627 33.4576C24.8627 33.4576 25.6587 31.2323 25.6587 29.6397C25.6587 28.0474 24.787 25.5399 24.787 24.8391Z" fill="#059669" stroke="#353E82" stroke-width="0.5" stroke-linejoin="round"/>
<path fill-rule="evenodd" clip-rule="evenodd" d="M31.491 23.4405C31.491 22.0229 32.1165 20.7188 32.4007 21.5694C32.685 22.4198 33.3675 23.4973 33.7702 24.2021C33.9955 25.6925 34.5287 25.7915 34.5767 28.484C34.574 28.6214 34.5747 28.7555 34.5802 28.8839C34.5802 28.9699 34.5775 29.0572 34.575 29.1442C34.458 30.8891 32.6502 34.4265 31.9855 34.1602C31.2857 33.88 30.9792 32.9663 31.093 31.2087C31.2067 29.4508 31.491 24.8581 31.491 23.4405Z" fill="#059669" stroke="#353E82" stroke-width="0.5" stroke-linejoin="round"/>
<path fill-rule="evenodd" clip-rule="evenodd" d="M29.1979 24.8391C29.1979 24.764 29.1844 24.6758 29.1609 24.5703C29.2324 24.4387 29.2947 24.2734 29.3307 24.0642C29.4632 23.2894 29.8992 21.2859 30.0697 20.8888C30.2402 20.4919 30.3802 19.5615 30.7342 20.2598C31.0894 20.9611 31.4884 21.7611 31.6602 22.1513C31.6604 22.1518 31.6604 22.1523 31.6607 22.1525C31.5597 22.5218 31.4912 22.974 31.4912 23.4405C31.4912 24.858 31.2069 29.451 31.0932 31.2086C31.0932 31.2086 30.4457 33.7224 29.7839 33.59C29.6094 33.5551 29.3742 33.519 29.1227 33.4846C29.1224 33.4689 29.1222 33.4576 29.1222 33.4576C29.1222 33.4576 28.3262 31.2323 28.3262 29.6397C28.3262 28.0474 29.1979 25.5399 29.1979 24.8391Z" fill="#059669" stroke="#353E82" stroke-width="0.5" stroke-linejoin="round"/>
</g>
</g>
<defs>
<linearGradient id="paint0_linear_28_15962" x1="16.0448" y1="32.0897" x2="16.0448" y2="53" gradientUnits="userSpaceOnUse">
<stop stop-color="#F6F6F8" stop-opacity="0.01"/>
<stop offset="1" stop-color="#F6F6F8"/>
</linearGradient>
<linearGradient id="paint1_linear_28_15962" x1="16.0448" y1="32.0897" x2="16.0448" y2="53" gradientUnits="userSpaceOnUse">
<stop stop-color="#F6F6F8" stop-opacity="0.01"/>
<stop offset="1" stop-color="#F6F6F8"/>
</linearGradient>
<clipPath id="clip0_28_15962">
<rect width="53" height="53" fill="white"/>
</clipPath>
</defs>
</svg>
