<svg xmlns="http://www.w3.org/2000/svg" width="53" height="53" fill="none" viewBox="0 0 53 53"><g clip-path="url(#a)"><mask id="b" width="53" height="53" x="0" y="0" maskUnits="userSpaceOnUse" style="mask-type:luminance"><rect width="53" height="53" fill="#fff" rx="6"/></mask><g mask="url(#b)"><path fill="#fff" fill-rule="evenodd" d="M42.928 35.454c-.228-.471-.628-1.95-.742-3.178-.306-3.274-.57-8.159-.846-9.085-.38-1.274-1.187-2.59-1.187-3.047 0-3.997-1.029-5-1.029-5.647 0-.42.225-.196.225-2.618 0-2.423-3.044-4.957-6.089-4.957l-2.958-1.603V3.008h-.028c-.743.72-2.071 1.817-3.274 1.817s-2.53-1.096-3.274-1.817h-.027v2.31l-2.96 1.604c-3.044 0-6.088 2.534-6.088 4.957s.225 2.199.225 2.618c0 .647-1.03 1.65-1.03 5.647 0 .457-.807 1.773-1.186 3.047-.275.926-.54 5.811-.845 9.085-.115 1.228-.515 2.707-.742 3.178-.533 1.101 2.034 2.787 2.206 2.847.222.078.297-.309.372-.46.309-.62-.84-1.36-.766-1.79.089-.519.194-1.43.608-1.284.415.145.555.97.969 1.116.414.145.591.049.718-.224.074-.16-.396-1.162-.819-2.102-.298-.665-.247-1.14-.247-1.14s3.294-6.654 3.433-7.996c.447-.618.24-.927.297-1.375.23-1.8.232-5.278.537-5.278.29 0 .322 1.09.322 1.761 0 1.538 1.319 1.593 1.319 3.662 0 1.565-.483.923-.483 3.662 0 .81-1.565 1.556-1.565 4.799 0 .839-1.029 2.404-1.029 5.796 0 6.485 1.983 9.644 1.983 12.384 0 2.935-.611 2.684-.611 6.094s2.444 7.771 2.444 10.147c0 5.228-1.994 3.886-1.994 5.088 0 .317.386.522.386.522l3.41.317h1.757l.536-.56s-.472-.707-.472-1.08.236-1.1.236-1.547-.664-2.013-.664-3.429-.043-5.489-.043-5.489.16-1.341.16-2.739-.996-2.097-.996-2.712 2.862-5.087 2.862-10.063c0-2.656.74-7.129.74-10.232h.643c0 3.103.74 7.576.74 10.232 0 4.976 2.862 9.448 2.862 10.063s-.998 1.314-.998 2.712.161 2.74.161 2.74-.043 4.072-.043 5.488-.664 2.982-.664 3.43.236 1.173.236 1.546-.472 1.08-.472 1.08l.536.56h1.758l3.409-.317s.386-.205.386-.522c0-1.202-1.994.14-1.994-5.088 0-2.376 2.444-6.736 2.444-10.147 0-3.41-.611-3.159-.611-6.094 0-2.74 1.983-5.899 1.983-12.384 0-3.392-1.029-4.957-1.029-5.796 0-3.243-1.565-3.988-1.565-4.799 0-2.74-.483-2.097-.483-3.662 0-2.069 1.319-2.124 1.319-3.662 0-.67.032-1.761.322-1.761.305 0 .308 3.479.537 5.278.058.448-.15.757.297 1.375.14 1.342 3.433 7.995 3.433 7.995s.051.477-.247 1.141c-.422.94-.893 1.942-.82 2.102.128.273.305.37.72.224.414-.145.554-.97.968-1.116.414-.145.52.765.608 1.283.074.432-1.075 1.17-.766 1.791.075.151.15.538.372.46.172-.06 2.739-1.746 2.207-2.847" clip-rule="evenodd"/><path stroke="#353e82" stroke-width=".28" d="M42.928 35.454c-.228-.471-.628-1.95-.742-3.178-.306-3.274-.57-8.159-.846-9.085-.38-1.274-1.187-2.59-1.187-3.047 0-3.997-1.029-5-1.029-5.647 0-.42.225-.196.225-2.618 0-2.423-3.044-4.957-6.089-4.957l-2.958-1.603V3.008h-.028c-.743.72-2.071 1.817-3.274 1.817s-2.53-1.096-3.274-1.817h-.027v2.31l-2.96 1.604c-3.044 0-6.088 2.534-6.088 4.957s.225 2.199.225 2.618c0 .647-1.03 1.65-1.03 5.647 0 .457-.807 1.773-1.186 3.047-.275.926-.54 5.811-.845 9.085-.115 1.228-.515 2.707-.742 3.178-.533 1.101 2.034 2.787 2.206 2.847.222.078.297-.309.372-.46.309-.62-.84-1.36-.766-1.79.089-.519.194-1.43.608-1.284.415.145.555.97.969 1.116.414.145.591.049.718-.224.074-.16-.396-1.162-.819-2.102-.298-.665-.247-1.14-.247-1.14s3.294-6.654 3.433-7.996c.447-.618.24-.927.297-1.375.23-1.8.232-5.278.537-5.278.29 0 .322 1.09.322 1.761 0 1.538 1.319 1.593 1.319 3.662 0 1.565-.483.923-.483 3.662 0 .81-1.565 1.556-1.565 4.799 0 .839-1.029 2.404-1.029 5.796 0 6.485 1.983 9.644 1.983 12.384 0 2.935-.611 2.684-.611 6.094s2.444 7.771 2.444 10.147c0 5.228-1.994 3.886-1.994 5.088 0 .317.386.522.386.522l3.41.317h1.757l.536-.56s-.472-.707-.472-1.08.236-1.1.236-1.547-.664-2.013-.664-3.429-.043-5.489-.043-5.489.16-1.341.16-2.739-.996-2.097-.996-2.712 2.862-5.087 2.862-10.063c0-2.656.74-7.129.74-10.232h.643c0 3.103.74 7.576.74 10.232 0 4.976 2.862 9.448 2.862 10.063s-.998 1.314-.998 2.712.161 2.74.161 2.74-.043 4.072-.043 5.488-.664 2.982-.664 3.43.236 1.173.236 1.546-.472 1.08-.472 1.08l.536.56h1.758l3.409-.317s.386-.205.386-.522c0-1.202-1.994.14-1.994-5.088 0-2.376 2.444-6.736 2.444-10.147 0-3.41-.611-3.159-.611-6.094 0-2.74 1.983-5.899 1.983-12.384 0-3.392-1.029-4.957-1.029-5.796 0-3.243-1.565-3.988-1.565-4.799 0-2.74-.483-2.097-.483-3.662 0-2.069 1.319-2.124 1.319-3.662 0-.67.032-1.761.322-1.761.305 0 .308 3.479.537 5.278.058.448-.15.757.297 1.375.14 1.342 3.433 7.995 3.433 7.995s.051.477-.247 1.141c-.422.94-.893 1.942-.82 2.102.128.273.305.37.72.224.414-.145.554-.97.968-1.116.414-.145.52.765.608 1.283.074.432-1.075 1.17-.766 1.791.075.151.15.538.372.46.172-.06 2.739-1.746 2.207-2.847"/><path fill="#059669" fill-rule="evenodd" d="M14.651 11.879c0 2.422.226 2.199.226 2.618 1.414-.251 2.347-1.314 4.052-3.802S22.08 8.6 22.08 8.012c0-.448-.997-.643-1.34-1.09-3.044 0-6.089 2.534-6.089 4.957" clip-rule="evenodd"/><path stroke="#353e82" stroke-width=".28" d="M14.651 11.879c0 2.422.226 2.199.226 2.618 1.414-.251 2.347-1.314 4.052-3.802S22.08 8.6 22.08 8.012c0-.448-.997-.643-1.34-1.09-3.044 0-6.089 2.534-6.089 4.957"/><path fill="#d8ebe0" fill-rule="evenodd" d="M25.649 9.577c-.189-.324-2.895-1.565-3.57-1.565 0 .587-1.447.195-3.151 2.683-.633.924-1.16 1.651-1.644 2.214.768.368.518.665 1.226 1.197.707.53 3.055 1.342 4.502 1.342s3.459-.755 3.459-.755v-1.901c0-2.069-.529-2.712-.822-3.215" clip-rule="evenodd"/><path stroke="#353e82" stroke-width=".28" d="M25.649 9.577c-.189-.324-2.895-1.565-3.57-1.565 0 .587-1.447.195-3.151 2.683-.633.924-1.16 1.651-1.644 2.214.768.368.518.665 1.226 1.197.707.53 3.055 1.342 4.502 1.342s3.459-.755 3.459-.755v-1.901c0-2.069-.529-2.712-.822-3.215"/><path fill="#fff" fill-rule="evenodd" d="M17.843 12.213" clip-rule="evenodd"/><path stroke="#353e82" stroke-width=".28" d="M17.843 12.213"/><path fill="#d8ebe0" fill-rule="evenodd" d="m17.284 12.909.132-.158c-.878 1.056-1.604 1.58-2.54 1.746 0 .647-1.03 1.65-1.03 5.647 0 .81 2.227 1.854 3.249 0 .663-1.202.912-1.703 1.067-1.998.079-.238.153-.378.22-.378.224-.336.128-3.662.128-3.662-.708-.531-.458-.83-1.226-1.197" clip-rule="evenodd"/><path stroke="#353e82" stroke-width=".28" d="m17.284 12.909.132-.158c-.878 1.056-1.604 1.58-2.54 1.746 0 .647-1.03 1.65-1.03 5.647 0 .81 2.227 1.854 3.249 0 .663-1.202.912-1.703 1.067-1.998.079-.238.153-.378.22-.378.224-.336.128-3.662.128-3.662-.708-.531-.458-.83-1.226-1.197"/><path fill="#fff" fill-rule="evenodd" d="M17.454 12.708" clip-rule="evenodd"/><path stroke="#353e82" stroke-width=".28" d="M17.454 12.708"/><path fill="#fff" fill-rule="evenodd" d="M27-7c-2.91 0-4.366 2.238-4.366 3.406s.503 5.986.503 5.986S25.21 4.825 27 4.825s3.863-2.433 3.863-2.433.503-4.818.503-5.986S29.911-7 27-7" clip-rule="evenodd"/><path stroke="#353e82" stroke-width=".28" d="M27-7c-2.91 0-4.366 2.238-4.366 3.406s.503 5.986.503 5.986S25.21 4.825 27 4.825s3.863-2.433 3.863-2.433.503-4.818.503-5.986S29.911-7 27-7"/><path fill="#d8ebe0" fill-rule="evenodd" d="M31.223 28.111c0-2.069.622-1.9.622-3 0-2.293-.622-4.25-.622-5.274 0-1.026.108-4.39.108-4.39l-.051-.01q-.151.01-.293.01c-1.447 0-3.458-.754-3.458-.754H26.47s-2.012.755-3.459.755a5 5 0 0 1-.292-.01l-.051.01s.107 3.363.107 4.389c0 1.025-.622 2.981-.622 5.274 0 1.1.622.931.622 3 0 .727-.643 1.24-1.48 1.24 0 1.668 4.503 4.798 5.704 4.798s5.703-3.13 5.703-4.799c-.837 0-1.48-.512-1.48-1.239" clip-rule="evenodd"/><path stroke="#353e82" stroke-width=".28" d="M31.223 28.111c0-2.069.622-1.9.622-3 0-2.293-.622-4.25-.622-5.274 0-1.026.108-4.39.108-4.39l-.051-.01q-.151.01-.293.01c-1.447 0-3.458-.754-3.458-.754H26.47s-2.012.755-3.459.755a5 5 0 0 1-.292-.01l-.051.01s.107 3.363.107 4.389c0 1.025-.622 2.981-.622 5.274 0 1.1.622.931.622 3 0 .727-.643 1.24-1.48 1.24 0 1.668 4.503 4.798 5.704 4.798s5.703-3.13 5.703-4.799c-.837 0-1.48-.512-1.48-1.239"/><path fill="#fff" fill-rule="evenodd" d="M32.703 29.35c.557-1.257 1.758-2.497 1.758-2.497Z" clip-rule="evenodd"/><path stroke="#353e82" stroke-width=".28" d="M32.703 29.35c.557-1.257 1.758-2.497 1.758-2.497"/><path fill="#059669" fill-rule="evenodd" stroke="#353e82" stroke-width=".28" d="M18.915 49.449c0 .225.152.355.28.355.13 0 .428-1.27.428-2.115-.052.001-.084-.115-.084-.44 0-1.159-1.254-3.278-1.254-7.341s1.425-8.498 1.737-10.254l-.067-.819a72 72 0 0 1-.062-1.588l-.354-.418v.024c0 .81-1.565 1.556-1.565 4.799 0 .839-1.03 2.404-1.03 5.796q0 .299.006.587l.005.156q.004.209.011.412l.01.192q.007.181.016.359l.013.2.022.334.016.2.027.318.02.191q.014.158.032.313l.021.18.038.309a23 23 0 0 0 .065.475l.023.152.049.31.022.134a25 25 0 0 0 .155.846 30 30 0 0 0 .167.788c.523 2.331 1.157 4.02 1.252 5.544z" clip-rule="evenodd"/><path fill="#fff" fill-rule="evenodd" d="M27 4.825c-.348 0-.706-.092-1.057-.24 0 1.07.242 4.163 1.057 4.163.814 0 1.057-3.094 1.057-4.163-.351.148-.71.24-1.057.24" clip-rule="evenodd"/><path stroke="#353e82" stroke-width=".28" d="M27 4.825c-.348 0-.706-.092-1.057-.24 0 1.07.242 4.163 1.057 4.163.814 0 1.057-3.094 1.057-4.163-.351.148-.71.24-1.057.24"/><path fill="#059669" fill-rule="evenodd" stroke="#353e82" stroke-width=".28" d="M20.021 29.654c-.312 1.756-1.737 6.191-1.737 10.254s1.254 6.182 1.254 7.34.407-.333.643-.333 1.097 1.421 1.097 2.302q0 .062.013.072c-.003-.045 0-.096-.002-.142-.005-.118-.01-.237-.005-.366q.004-.07.01-.14.01-.215.032-.442l.011-.086c.108-.94.341-1.981.479-2.8l.013-.074q.042-.262.067-.485c.129-1.193.943-3.651 1.338-5.105l.002-.032.01-.151.002-.04.014-.242v-.008q.01-.162.02-.374v-.018c.02-.428.04-.986.05-1.614l.001-.151q.003-.247.004-.505c0-.225-.005-.702-.005-.71 0-1.058-1.4-4.455-1.943-5.932-.108-.293-.058-.402-.093-.521-.214-.719-1.404-2.104-1.404-2.104z" clip-rule="evenodd"/><path fill="#059669" fill-rule="evenodd" d="M23.333 35.804v.023a36 36 0 0 1 .001 1.191v.151a52 52 0 0 1-.07 2.007v.008l-.014.242-.003.04-.01.15q-.001.031-.002.032c-.395 1.455-1.209 3.913-1.337 5.105q-.025.224-.068.486v.001c-.037.228-.084.478-.133.737l-.127.675-.004.02q-.066.355-.125.713l-.002.013a16 16 0 0 0-.1.715l-.004.029-.008.06q-.021.221-.032.43l-.004.067-.005.082c-.005.128 0 .247.004.366v.006c.003.073 0 .153.007.222.129 1.305 1.2 1.23 1.2 1.23.714 0 2.11-.385 2.56-1.093q.075-.233.146-.47c.42-1.418.736-3.011.736-4.661q.001-.436.025-.93c0-2.32-1.32-5.145-2.631-7.647" clip-rule="evenodd"/><path stroke="#353e82" stroke-width=".28" d="M23.333 35.804v.023a36 36 0 0 1 .001 1.191v.151a52 52 0 0 1-.07 2.007v.008l-.014.242-.003.04-.01.15q-.001.031-.002.032c-.395 1.455-1.209 3.913-1.337 5.105q-.025.224-.068.486v.001c-.037.228-.084.478-.133.737l-.127.675-.004.02q-.066.355-.125.713l-.002.013a16 16 0 0 0-.1.715l-.004.029-.008.06q-.021.221-.032.43l-.004.067-.005.082c-.005.128 0 .247.004.366v.006c.003.073 0 .153.007.222.129 1.305 1.2 1.23 1.2 1.23.714 0 2.11-.385 2.56-1.093q.075-.233.146-.47c.42-1.418.736-3.011.736-4.661q.001-.436.025-.93c0-2.32-1.32-5.145-2.631-7.647"/><path fill="#059669" fill-rule="evenodd" stroke="#353e82" stroke-width=".28" d="M35.085 49.449c0 .225-.153.355-.281.355s-.427-1.27-.427-2.115c.052.001.084-.115.084-.44 0-1.159 1.254-3.278 1.254-7.341s-1.426-8.498-1.737-10.254l.067-.819a72 72 0 0 0 .061-1.588l.355-.418v.024c0 .81 1.565 1.556 1.565 4.799 0 .839 1.03 2.404 1.03 5.796q0 .299-.006.587l-.005.156q-.004.209-.012.412l-.008.192q-.007.181-.017.359l-.013.2-.022.334-.017.2q-.012.16-.027.318l-.019.191q-.014.158-.032.313l-.021.18-.06.475-.043.309-.023.152a25 25 0 0 1-.126.76l-.02.115-.063.327-.017.088-.07.346-.013.056q-.04.19-.081.375l-.003.011c-.523 2.331-1.157 4.02-1.252 5.544z" clip-rule="evenodd"/><path fill="#059669" fill-rule="evenodd" stroke="#353e82" stroke-width=".28" d="M33.978 29.654c.311 1.756 1.737 6.191 1.737 10.254s-1.254 6.182-1.254 7.34-.407-.333-.643-.333-1.097 1.421-1.097 2.302q0 .062-.013.072c.003-.045 0-.096.002-.142.005-.118.01-.237.005-.366q-.004-.07-.01-.14a9 9 0 0 0-.033-.442l-.01-.086c-.108-.94-.341-1.981-.479-2.8l-.013-.074a9 9 0 0 1-.067-.485c-.13-1.193-.943-3.651-1.338-5.105l-.002-.032-.01-.151-.003-.04-.014-.242v-.008a49 49 0 0 1-.07-2.006v-.151q-.003-.247-.004-.505c0-.225.005-.702.005-.71 0-1.058 1.399-4.455 1.943-5.932.108-.293.057-.402.093-.521.214-.719 1.403-2.104 1.403-2.104z" clip-rule="evenodd"/><path fill="#059669" fill-rule="evenodd" d="M30.666 35.804v.023q-.006.349-.005.687 0 .258.004.504l.001.151c.01.63.03 1.187.05 1.615v.018q.01.21.02.374v.008l.016.282.01.15.002.032c.395 1.455 1.21 3.913 1.338 5.105q.025.224.068.486v.001c.037.228.083.478.132.737q.063.328.127.675l.004.02q.067.355.125.713l.002.013a16 16 0 0 1 .104.744l.008.06q.022.221.032.43l.005.067.005.082c.004.128 0 .247-.005.366v.006c-.003.073 0 .153-.007.222-.129 1.305-1.2 1.23-1.2 1.23-.713 0-2.11-.385-2.56-1.093q-.075-.233-.146-.47c-.42-1.418-.736-3.011-.736-4.661q0-.436-.024-.93c0-2.32 1.32-5.145 2.63-7.647" clip-rule="evenodd"/><path stroke="#353e82" stroke-width=".28" d="M30.666 35.804v.023q-.006.349-.005.687 0 .258.004.504l.001.151c.01.63.03 1.187.05 1.615v.018q.01.21.02.374v.008l.016.282.01.15.002.032c.395 1.455 1.21 3.913 1.338 5.105q.025.224.068.486v.001c.037.228.083.478.132.737q.063.328.127.675l.004.02q.067.355.125.713l.002.013a16 16 0 0 1 .104.744l.008.06q.022.221.032.43l.005.067.005.082c.004.128 0 .247-.005.366v.006c-.003.073 0 .153-.007.222-.129 1.305-1.2 1.23-1.2 1.23-.713 0-2.11-.385-2.56-1.093q-.075-.233-.146-.47c-.42-1.418-.736-3.011-.736-4.661q0-.436-.024-.93c0-2.32 1.32-5.145 2.63-7.647"/><path fill="#fff" fill-rule="evenodd" d="M13.847 20.144" clip-rule="evenodd"/><path stroke="#353e82" stroke-width=".28" d="M13.847 20.144"/><path fill="#d8ebe0" fill-rule="evenodd" d="M14.944 24.421c.217-1.15.435-1.565 0-2.274-.436-.708-.727.267-1.898 0-.144.34-.281.692-.386 1.044-.239.801-.162 4.608-.335 7.74 0 0 .948-1.636 1.02-3.277s1.38-2.083 1.599-3.233" clip-rule="evenodd"/><path stroke="#353e82" stroke-width=".28" d="M14.944 24.421c.217-1.15.435-1.565 0-2.274-.436-.708-.727.267-1.898 0-.144.34-.281.692-.386 1.044-.239.801-.162 4.608-.335 7.74 0 0 .948-1.636 1.02-3.277s1.38-2.083 1.599-3.233"/><path fill="#d8ebe0" fill-rule="evenodd" d="M15.195 26.407c-.615 1.626-1.082 6.009-1.082 6.009s3.294-6.653 3.433-7.995c0 0-1.736.36-2.351 1.986" clip-rule="evenodd"/><path stroke="#353e82" stroke-width=".28" d="M15.195 26.407c-.615 1.626-1.082 6.009-1.082 6.009s3.294-6.653 3.433-7.995c0 0-1.736.36-2.351 1.986"/><path fill="#059669" fill-rule="evenodd" d="M39.349 11.879c0 2.422-.225 2.199-.225 2.618-1.415-.251-2.348-1.314-4.052-3.802C33.367 8.207 31.92 8.6 31.92 8.012c0-.448.997-.643 1.34-1.09 3.044 0 6.089 2.534 6.089 4.957" clip-rule="evenodd"/><path stroke="#353e82" stroke-width=".28" d="M39.349 11.879c0 2.422-.225 2.199-.225 2.618-1.415-.251-2.348-1.314-4.052-3.802C33.367 8.207 31.92 8.6 31.92 8.012c0-.448.997-.643 1.34-1.09 3.044 0 6.089 2.534 6.089 4.957"/><path fill="#d8ebe0" fill-rule="evenodd" d="M28.35 9.577c.19-.324 2.895-1.565 3.57-1.565 0 .587 1.448.195 3.152 2.683.633.924 1.16 1.651 1.644 2.214-.768.368-.518.665-1.226 1.197-.707.53-3.055 1.342-4.502 1.342s-3.46-.755-3.46-.755v-1.901c0-2.069.53-2.712.823-3.215" clip-rule="evenodd"/><path stroke="#353e82" stroke-width=".28" d="M28.35 9.577c.19-.324 2.895-1.565 3.57-1.565 0 .587 1.448.195 3.152 2.683.633.924 1.16 1.651 1.644 2.214-.768.368-.518.665-1.226 1.197-.707.53-3.055 1.342-4.502 1.342s-3.46-.755-3.46-.755v-1.901c0-2.069.53-2.712.823-3.215"/><path fill="#fff" fill-rule="evenodd" d="M36.155 12.213" clip-rule="evenodd"/><path stroke="#353e82" stroke-width=".28" d="M36.155 12.213"/><path fill="#d8ebe0" fill-rule="evenodd" d="M36.716 12.909q-.066-.077-.132-.158c.878 1.056 1.603 1.58 2.54 1.746 0 .647 1.03 1.65 1.03 5.647 0 .81-2.227 1.854-3.249 0-.663-1.202-.912-1.703-1.067-1.998-.079-.238-.153-.378-.22-.378-.224-.336-.128-3.662-.128-3.662.708-.531.458-.83 1.226-1.197" clip-rule="evenodd"/><path stroke="#353e82" stroke-width=".28" d="M36.716 12.909q-.066-.077-.132-.158c.878 1.056 1.603 1.58 2.54 1.746 0 .647 1.03 1.65 1.03 5.647 0 .81-2.227 1.854-3.249 0-.663-1.202-.912-1.703-1.067-1.998-.079-.238-.153-.378-.22-.378-.224-.336-.128-3.662-.128-3.662.708-.531.458-.83 1.226-1.197"/><path fill="#fff" fill-rule="evenodd" d="M36.546 12.708" clip-rule="evenodd"/><path stroke="#353e82" stroke-width=".28" d="M36.546 12.708"/><path fill="#d8ebe0" fill-rule="evenodd" d="M39.056 24.421c-.218-1.15-.436-1.565 0-2.274.436-.708.726.267 1.897 0 .144.34.282.692.386 1.044.239.801.163 4.608.335 7.74 0 0-.948-1.636-1.02-3.277s-1.38-2.083-1.598-3.233" clip-rule="evenodd"/><path stroke="#353e82" stroke-width=".28" d="M39.056 24.421c-.218-1.15-.436-1.565 0-2.274.436-.708.726.267 1.897 0 .144.34.282.692.386 1.044.239.801.163 4.608.335 7.74 0 0-.948-1.636-1.02-3.277s-1.38-2.083-1.598-3.233"/><path fill="#d8ebe0" fill-rule="evenodd" d="M38.804 26.407c.615 1.626 1.082 6.009 1.082 6.009s-3.294-6.653-3.433-7.995c0 0 1.736.36 2.351 1.986" clip-rule="evenodd"/><path stroke="#353e82" stroke-width=".28" d="M38.804 26.407c.615 1.626 1.082 6.009 1.082 6.009s-3.294-6.653-3.433-7.995c0 0 1.736.36 2.351 1.986"/><path fill="#fff" fill-rule="evenodd" stroke="#353e82" stroke-width=".28" d="M22.757-1.544c0-.319-.526-.409-.868-.409-.343 0-.474.458-.21 1.535.263 1.077 1.313 1.39 1.313 1.39zM31.243-1.544c0-.319.526-.409.868-.409.343 0 .475.458.211 1.535S31.01.972 31.01.972z" clip-rule="evenodd"/><path fill="#059669" fill-rule="evenodd" d="M27.857 25.93h1.78c.343 0 .729.242.729.522s-1.587 6.43-2.83 6.43h-.15c-.065-1.452 0-6.181 0-6.43 0-.298.064-.522.471-.522" clip-rule="evenodd"/><path stroke="#353e82" stroke-width=".28" d="M27.857 25.93h1.78c.343 0 .729.242.729.522s-1.587 6.43-2.83 6.43h-.15c-.065-1.452 0-6.181 0-6.43 0-.298.064-.522.471-.522"/><path fill="#059669" fill-rule="evenodd" d="M30.458 24.687V23.3c0-.237-.145-.573-.563-.573h-1.737c-.257 0-.772.28-.772.587v1.373c0 .21.113.573.386.573h1.801c.29 0 .884-.238.884-.573" clip-rule="evenodd"/><path stroke="#353e82" stroke-width=".28" d="M30.458 24.687V23.3c0-.237-.145-.573-.563-.573h-1.737c-.257 0-.772.28-.772.587v1.373c0 .21.113.573.386.573h1.801c.29 0 .884-.238.884-.573"/><path fill="#059669" fill-rule="evenodd" d="M23.57 18.935V17.05c0-.652.3-1.137.858-1.137.557 0 1.694-.41 1.822-.41s.386.037.386.27v2.534c0 .369-.504.392-1.2.392-.408 0-1.276.319-1.458.477-.183.159-.408-.056-.408-.242" clip-rule="evenodd"/><path stroke="#353e82" stroke-width=".28" d="M23.57 18.935V17.05c0-.652.3-1.137.858-1.137.557 0 1.694-.41 1.822-.41s.386.037.386.27v2.534c0 .369-.504.392-1.2.392-.408 0-1.276.319-1.458.477-.183.159-.408-.056-.408-.242"/><path fill="#059669" fill-rule="evenodd" stroke="#353e82" stroke-width=".28" d="M26.635 19.965c0-.28-.15-.504-.536-.504h-.986c-.386 0-1.48.578-1.48 1.1v1.214c0 .242.129.372.472.372h1.5c.194 0 1.03-.335 1.03-.801z" clip-rule="evenodd"/><path fill="#059669" fill-rule="evenodd" d="M23.544 24.687V23.3c0-.237.144-.573.562-.573h1.737c.257 0 .772.28.772.587v1.373c0 .21-.113.573-.386.573h-1.801c-.29 0-.884-.238-.884-.573" clip-rule="evenodd"/><path stroke="#353e82" stroke-width=".28" d="M23.544 24.687V23.3c0-.237.144-.573.562-.573h1.737c.257 0 .772.28.772.587v1.373c0 .21-.113.573-.386.573h-1.801c-.29 0-.884-.238-.884-.573"/><path fill="#059669" fill-rule="evenodd" d="M26.142 25.93h-1.78c-.343 0-.729.242-.729.522s1.587 6.43 2.83 6.43h.15c.065-1.452 0-6.181 0-6.43 0-.298-.064-.522-.471-.522" clip-rule="evenodd"/><path stroke="#353e82" stroke-width=".28" d="M26.142 25.93h-1.78c-.343 0-.729.242-.729.522s1.587 6.43 2.83 6.43h.15c.065-1.452 0-6.181 0-6.43 0-.298-.064-.522-.471-.522"/><path fill="#059669" fill-rule="evenodd" d="M30.43 18.935V17.05c0-.652-.3-1.137-.858-1.137-.557 0-1.693-.41-1.822-.41-.128 0-.386.037-.386.27v2.534c0 .369.504.392 1.2.392.408 0 1.276.319 1.459.477.182.159.407-.056.407-.242" clip-rule="evenodd"/><path stroke="#353e82" stroke-width=".28" d="M30.43 18.935V17.05c0-.652-.3-1.137-.858-1.137-.557 0-1.693-.41-1.822-.41-.128 0-.386.037-.386.27v2.534c0 .369.504.392 1.2.392.408 0 1.276.319 1.459.477.182.159.407-.056.407-.242"/><path fill="#059669" fill-rule="evenodd" stroke="#353e82" stroke-width=".28" d="M27.364 19.965c0-.28.15-.504.536-.504h.986c.386 0 1.48.578 1.48 1.1v1.214c0 .242-.129.372-.472.372h-1.5c-.194 0-1.03-.335-1.03-.801z" clip-rule="evenodd"/><path stroke="#353e82" stroke-linejoin="round" stroke-width=".282" d="M14.651 11.879c0 2.422.226 2.199.226 2.618 1.414-.251 2.347-1.314 4.052-3.802S22.08 8.6 22.08 8.012c0-.448-.997-.643-1.34-1.09-3.044 0-6.089 2.534-6.089 4.957Z" clip-rule="evenodd"/><path stroke="#353e82" stroke-linejoin="round" stroke-width=".282" d="M25.649 9.577c-.189-.324-2.895-1.565-3.57-1.565 0 .587-1.447.195-3.151 2.683-.633.924-1.16 1.651-1.644 2.214.768.368.518.665 1.226 1.197.707.53 3.055 1.342 4.502 1.342s3.459-.755 3.459-.755v-1.901c0-2.069-.529-2.712-.822-3.215ZM23.57 18.935V17.05c0-.652.3-1.137.858-1.137.557 0 1.694-.41 1.822-.41s.386.037.386.27v2.534c0 .369-.504.392-1.2.392-.408 0-1.276.319-1.458.477-.183.159-.408-.056-.408-.242ZM26.635 19.965c0-.28-.15-.504-.536-.504h-.986c-.386 0-1.48.578-1.48 1.1v1.214c0 .242.129.372.472.372h1.5c.194 0 1.03-.335 1.03-.801zM23.544 24.687V23.3c0-.237.144-.573.562-.573h1.737c.257 0 .772.28.772.587v1.373c0 .21-.113.573-.386.573h-1.801c-.29 0-.884-.238-.884-.573ZM26.142 25.93h-1.78c-.343 0-.729.242-.729.522s1.587 6.43 2.83 6.43h.15c.065-1.452 0-6.181 0-6.43 0-.298-.064-.522-.471-.522ZM30.43 18.935V17.05c0-.652-.3-1.137-.858-1.137-.557 0-1.693-.41-1.822-.41-.128 0-.386.037-.386.27v2.534c0 .369.504.392 1.2.392.408 0 1.276.319 1.459.477.182.159.407-.056.407-.242ZM27.364 19.965c0-.28.15-.504.536-.504h.986c.386 0 1.48.578 1.48 1.1v1.214c0 .242-.129.372-.472.372h-1.5c-.194 0-1.03-.335-1.03-.801zM30.458 24.687V23.3c0-.237-.145-.573-.563-.573h-1.737c-.257 0-.772.28-.772.587v1.373c0 .21.113.573.386.573h1.801c.29 0 .884-.238.884-.573ZM27.857 25.93h1.78c.343 0 .729.242.729.522s-1.587 6.43-2.83 6.43h-.15c-.065-1.452 0-6.181 0-6.43 0-.298.064-.522.471-.522ZM17.843 12.213Z" clip-rule="evenodd"/><path stroke="#353e82" stroke-linejoin="round" stroke-width=".282" d="m17.284 12.909.132-.158c-.878 1.056-1.604 1.58-2.54 1.746 0 .647-1.03 1.65-1.03 5.647 0 .81 2.227 1.854 3.249 0 .663-1.202.912-1.703 1.067-1.998.079-.238.153-.378.22-.378.224-.336.128-3.662.128-3.662-.708-.531-.458-.83-1.226-1.197ZM17.454 12.708ZM27-7c-2.91 0-4.366 2.238-4.366 3.406s.503 5.986.503 5.986S25.21 4.825 27 4.825s3.863-2.433 3.863-2.433.503-4.818.503-5.986S29.911-7 27-7ZM31.223 28.111c0-2.069.622-1.9.622-3 0-2.293-.622-4.25-.622-5.274 0-1.026.108-4.39.108-4.39l-.051-.01q-.151.01-.293.01c-1.447 0-3.458-.754-3.458-.754H26.47s-2.012.755-3.459.755a5 5 0 0 1-.292-.01l-.051.01s.107 3.363.107 4.389c0 1.025-.622 2.981-.622 5.274 0 1.1.622.931.622 3 0 .727-.643 1.24-1.48 1.24 0 1.668 4.503 4.798 5.704 4.798s5.703-3.13 5.703-4.799c-.837 0-1.48-.512-1.48-1.239Z" clip-rule="evenodd"/><path stroke="#353e82" stroke-linejoin="round" stroke-width=".282" d="M32.703 29.35c.557-1.257 1.758-2.497 1.758-2.497"/><path stroke="#353e82" stroke-linejoin="round" stroke-width=".282" d="M18.915 49.449c0 .225.152.355.28.355.13 0 .428-1.27.428-2.115-.052.001-.084-.115-.084-.44 0-1.159-1.254-3.278-1.254-7.341s1.425-8.498 1.737-10.254l-.067-.819a72 72 0 0 1-.062-1.588l-.354-.418v.024c0 .81-1.565 1.556-1.565 4.799 0 .839-1.03 2.404-1.03 5.796q0 .299.006.587l.005.156q.004.209.011.412l.01.192q.007.181.016.359l.013.2.022.334.016.2.027.318.02.191q.014.158.032.313l.021.18.038.309a23 23 0 0 0 .065.475l.023.152.049.31.022.134a25 25 0 0 0 .155.846 30 30 0 0 0 .167.788c.523 2.331 1.157 4.02 1.252 5.544zM27 4.825c-.348 0-.706-.092-1.057-.24 0 1.07.242 4.163 1.057 4.163.814 0 1.057-3.094 1.057-4.163-.351.148-.71.24-1.057.24Z" clip-rule="evenodd"/><path stroke="#353e82" stroke-linejoin="round" stroke-width=".282" d="M20.021 29.654c-.312 1.756-1.737 6.191-1.737 10.254s1.254 6.182 1.254 7.34.407-.333.643-.333 1.097 1.421 1.097 2.302q0 .062.013.072c-.003-.045 0-.096-.002-.142-.005-.118-.01-.237-.005-.366q.004-.07.01-.14.01-.215.032-.442l.011-.086c.108-.94.341-1.981.479-2.8l.013-.074q.042-.262.067-.485c.129-1.193.943-3.651 1.338-5.105l.002-.032.01-.151.002-.04.014-.242v-.008q.01-.162.02-.374v-.018c.02-.428.04-.986.05-1.614l.001-.151q.003-.247.004-.505c0-.225-.005-.702-.005-.71 0-1.058-1.4-4.455-1.943-5.932-.108-.293-.058-.402-.093-.521-.214-.719-1.404-2.104-1.404-2.104z" clip-rule="evenodd"/><path stroke="#353e82" stroke-linejoin="round" stroke-width=".282" d="M23.333 35.804v.023a36 36 0 0 1 .001 1.191v.151a52 52 0 0 1-.07 2.007v.008l-.014.242-.003.04-.01.15q-.001.031-.002.032c-.395 1.455-1.209 3.913-1.337 5.105q-.025.224-.068.486v.001c-.037.228-.084.478-.133.737l-.127.675-.004.02q-.066.355-.125.713l-.002.013a16 16 0 0 0-.1.715l-.004.029-.008.06q-.021.221-.032.43l-.004.067-.005.082c-.005.128 0 .247.004.366v.006c.003.073 0 .153.007.222.129 1.305 1.2 1.23 1.2 1.23.714 0 2.11-.385 2.56-1.093q.075-.233.146-.47c.42-1.418.736-3.011.736-4.661q.001-.436.025-.93c0-2.32-1.32-5.145-2.631-7.647ZM35.085 49.449c0 .225-.153.355-.281.355s-.427-1.27-.427-2.115c.052.001.084-.115.084-.44 0-1.159 1.254-3.278 1.254-7.341s-1.426-8.498-1.737-10.254l.067-.819a72 72 0 0 0 .061-1.588l.355-.418v.024c0 .81 1.565 1.556 1.565 4.799 0 .839 1.03 2.404 1.03 5.796q0 .299-.006.587l-.005.156q-.004.209-.012.412l-.008.192q-.007.181-.017.359l-.013.2-.022.334-.017.2q-.012.16-.027.318l-.019.191q-.014.158-.032.313l-.021.18-.06.475-.043.309-.023.152a25 25 0 0 1-.126.76l-.02.115-.063.327-.017.088-.07.346-.013.056q-.04.19-.081.375l-.003.011c-.523 2.331-1.157 4.02-1.252 5.544z" clip-rule="evenodd"/><path stroke="#353e82" stroke-linejoin="round" stroke-width=".282" d="M33.978 29.654c.311 1.756 1.737 6.191 1.737 10.254s-1.254 6.182-1.254 7.34-.407-.333-.643-.333-1.097 1.421-1.097 2.302q0 .062-.013.072c.003-.045 0-.096.002-.142.005-.118.01-.237.005-.366q-.004-.07-.01-.14a9 9 0 0 0-.033-.442l-.01-.086c-.108-.94-.341-1.981-.479-2.8l-.013-.074a9 9 0 0 1-.067-.485c-.13-1.193-.943-3.651-1.338-5.105l-.002-.032-.01-.151-.003-.04-.014-.242v-.008a49 49 0 0 1-.07-2.006v-.151q-.003-.247-.004-.505c0-.225.005-.702.005-.71 0-1.058 1.399-4.455 1.943-5.932.108-.293.057-.402.093-.521.214-.719 1.403-2.104 1.403-2.104z" clip-rule="evenodd"/><path stroke="#353e82" stroke-linejoin="round" stroke-width=".282" d="M30.666 35.804v.023q-.006.349-.005.687 0 .258.004.504l.001.151c.01.63.03 1.187.05 1.615v.018q.01.21.02.374v.008l.016.282.01.15.002.032c.395 1.455 1.21 3.913 1.338 5.105q.025.224.068.486v.001c.037.228.083.478.132.737q.063.328.127.675l.004.02q.067.355.125.713l.002.013a16 16 0 0 1 .104.744l.008.06q.022.221.032.43l.005.067.005.082c.004.128 0 .247-.005.366v.006c-.003.073 0 .153-.007.222-.129 1.305-1.2 1.23-1.2 1.23-.713 0-2.11-.385-2.56-1.093q-.075-.233-.146-.47c-.42-1.418-.736-3.011-.736-4.661q0-.436-.024-.93c0-2.32 1.32-5.145 2.63-7.647ZM13.847 20.144Z" clip-rule="evenodd"/><path stroke="#353e82" stroke-linejoin="round" stroke-width=".282" d="M42.928 35.454c-.228-.471-.628-1.95-.742-3.178-.306-3.274-.57-8.159-.846-9.085-.38-1.274-1.187-2.59-1.187-3.047 0-3.997-1.029-5-1.029-5.647 0-.42.225-.196.225-2.618 0-2.423-3.044-4.957-6.089-4.957l-2.958-1.603V3.008h-.028c-.743.72-2.071 1.817-3.274 1.817s-2.53-1.096-3.274-1.817h-.027v2.31l-2.96 1.604c-3.044 0-6.088 2.534-6.088 4.957s.225 2.199.225 2.618c0 .647-1.03 1.65-1.03 5.647 0 .457-.807 1.773-1.186 3.047-.275.926-.54 5.811-.845 9.085-.115 1.228-.515 2.707-.742 3.178-.533 1.101 2.034 2.787 2.206 2.847.222.078.297-.309.372-.46.309-.62-.84-1.36-.766-1.79.089-.519.194-1.43.608-1.284.415.145.555.97.969 1.116.414.145.591.049.718-.224.074-.16-.396-1.162-.819-2.102-.298-.665-.247-1.14-.247-1.14s3.294-6.654 3.433-7.996c.447-.618.24-.927.297-1.375.23-1.8.232-5.278.537-5.278.29 0 .322 1.09.322 1.761 0 1.538 1.319 1.593 1.319 3.662 0 1.565-.483.923-.483 3.662 0 .81-1.565 1.556-1.565 4.799 0 .839-1.029 2.404-1.029 5.796 0 6.485 1.983 9.644 1.983 12.384 0 2.935-.611 2.684-.611 6.094s2.444 7.771 2.444 10.147c0 5.228-1.994 3.886-1.994 5.088 0 .317.386.522.386.522l3.41.317h1.757l.536-.56s-.472-.707-.472-1.08.236-1.1.236-1.547-.664-2.013-.664-3.429-.043-5.489-.043-5.489.16-1.341.16-2.739-.996-2.097-.996-2.712 2.862-5.087 2.862-10.063c0-2.656.74-7.129.74-10.232h.643c0 3.103.74 7.576.74 10.232 0 4.976 2.862 9.448 2.862 10.063s-.998 1.314-.998 2.712.161 2.74.161 2.74-.043 4.072-.043 5.488-.664 2.982-.664 3.43.236 1.173.236 1.546-.472 1.08-.472 1.08l.536.56h1.758l3.409-.317s.386-.205.386-.522c0-1.202-1.994.14-1.994-5.088 0-2.376 2.444-6.736 2.444-10.147 0-3.41-.611-3.159-.611-6.094 0-2.74 1.983-5.899 1.983-12.384 0-3.392-1.029-4.957-1.029-5.796 0-3.243-1.565-3.988-1.565-4.799 0-2.74-.483-2.097-.483-3.662 0-2.069 1.319-2.124 1.319-3.662 0-.67.032-1.761.322-1.761.305 0 .308 3.479.537 5.278.058.448-.15.757.297 1.375.14 1.342 3.433 7.995 3.433 7.995s.051.477-.247 1.141c-.422.94-.893 1.942-.82 2.102.128.273.305.37.72.224.414-.145.554-.97.968-1.116.414-.145.52.765.608 1.283.074.432-1.075 1.17-.766 1.791.075.151.15.538.372.46.172-.06 2.739-1.746 2.207-2.847Z" clip-rule="evenodd"/><path stroke="#353e82" stroke-linejoin="round" stroke-width=".282" d="M14.944 24.421c.217-1.15.435-1.565 0-2.274-.436-.708-.727.267-1.898 0-.144.34-.281.692-.386 1.044-.239.801-.162 4.608-.335 7.74 0 0 .948-1.636 1.02-3.277s1.38-2.083 1.599-3.233ZM15.195 26.407c-.615 1.626-1.082 6.009-1.082 6.009s3.294-6.653 3.433-7.995c0 0-1.736.36-2.351 1.986ZM39.349 11.879c0 2.422-.225 2.199-.225 2.618-1.415-.251-2.348-1.314-4.052-3.802C33.367 8.207 31.92 8.6 31.92 8.012c0-.448.997-.643 1.34-1.09 3.044 0 6.089 2.534 6.089 4.957Z" clip-rule="evenodd"/><path stroke="#353e82" stroke-linejoin="round" stroke-width=".282" d="M28.35 9.577c.19-.324 2.895-1.565 3.57-1.565 0 .587 1.448.195 3.152 2.683.633.924 1.16 1.651 1.644 2.214-.768.368-.518.665-1.226 1.197-.707.53-3.055 1.342-4.502 1.342s-3.46-.755-3.46-.755v-1.901c0-2.069.53-2.712.823-3.215ZM36.155 12.213Z" clip-rule="evenodd"/><path stroke="#353e82" stroke-linejoin="round" stroke-width=".282" d="M36.716 12.909q-.066-.077-.132-.158c.878 1.056 1.603 1.58 2.54 1.746 0 .647 1.03 1.65 1.03 5.647 0 .81-2.227 1.854-3.249 0-.663-1.202-.912-1.703-1.067-1.998-.079-.238-.153-.378-.22-.378-.224-.336-.128-3.662-.128-3.662.708-.531.458-.83 1.226-1.197ZM36.546 12.708ZM39.056 24.421c-.218-1.15-.436-1.565 0-2.274.436-.708.726.267 1.897 0 .144.34.282.692.386 1.044.239.801.163 4.608.335 7.74 0 0-.948-1.636-1.02-3.277s-1.38-2.083-1.598-3.233ZM38.804 26.407c.615 1.626 1.082 6.009 1.082 6.009s-3.294-6.653-3.433-7.995c0 0 1.736.36 2.351 1.986ZM22.757-1.544c0-.319-.526-.409-.868-.409-.343 0-.474.458-.21 1.535.263 1.077 1.313 1.39 1.313 1.39z" clip-rule="evenodd"/><path fill="#fff" fill-rule="evenodd" d="M31.243-1.544c0-.319.526-.409.868-.409.343 0 .475.458.211 1.535S31.01.972 31.01.972z" clip-rule="evenodd"/></g></g><defs><clipPath id="a"><path fill="#fff" d="M0 0h53v53H0z"/></clipPath></defs></svg>