<svg width="53" height="53" viewBox="0 0 53 53" fill="none" xmlns="http://www.w3.org/2000/svg">
<g clip-path="url(#clip0_24_19184)">
<mask id="mask0_24_19184" style="mask-type:luminance" maskUnits="userSpaceOnUse" x="0" y="0" width="53" height="53">
<rect width="53" height="53" rx="6" fill="white"/>
</mask>
<g mask="url(#mask0_24_19184)">
<path fill-rule="evenodd" clip-rule="evenodd" d="M44.8299 25.3882C44.2237 23.8839 43.4342 22.8799 43.3179 21.4402C43.2017 20.0004 42.1942 15.6675 41.8179 14.2163C41.4414 12.765 39.5652 9.82645 39.5652 9.30615C39.5652 4.75155 39.0332 2.02338 39.0332 1.28667C39.0332 0.808752 39.2569 1.06354 39.2569 -1.69679C39.2569 -3.68202 37.6927 -5.73308 35.6897 -6.72831C35.6852 -6.73056 35.6809 -6.7323 35.6764 -6.73454C35.5882 -6.77817 35.4992 -6.81956 35.4094 -6.85895C35.3797 -6.87191 35.3494 -6.88388 35.3194 -6.89634C35.2542 -6.92377 35.1889 -6.95069 35.1229 -6.97587C35.0867 -6.98984 35.0502 -7.0023 35.0137 -7.01551C34.9534 -7.0372 34.8929 -7.05815 34.8319 -7.07809C34.7929 -7.09056 34.7534 -7.10252 34.7142 -7.11424C34.6552 -7.13194 34.5959 -7.14889 34.5364 -7.16485C34.4962 -7.17557 34.4557 -7.18579 34.4152 -7.19551C34.3557 -7.20997 34.2959 -7.22319 34.2362 -7.2354C34.1957 -7.24388 34.1554 -7.25211 34.1149 -7.25959C34.0537 -7.2708 33.9919 -7.28028 33.9302 -7.28925C33.8914 -7.29499 33.8527 -7.30147 33.8137 -7.30621C33.7464 -7.31443 33.6787 -7.32042 33.6112 -7.3259C33.5779 -7.32864 33.5449 -7.33263 33.5119 -7.33463C33.4114 -7.34086 33.3107 -7.3446 33.2099 -7.3446L29.5579 -9.49039L29.7257 -11.0977C29.7257 -11.0977 28.9084 -13.6222 26.9924 -13.6222C25.0767 -13.6222 24.2592 -11.0977 24.2592 -11.0977L24.4272 -9.49039L20.7752 -7.3446C20.6744 -7.3446 20.5737 -7.34086 20.4732 -7.33463C20.4399 -7.33263 20.4069 -7.32864 20.3739 -7.3259C20.3062 -7.32042 20.2387 -7.31443 20.1712 -7.30621C20.1324 -7.30147 20.0937 -7.29499 20.0547 -7.28925C19.9932 -7.28028 19.9314 -7.2708 19.8699 -7.25959C19.8297 -7.25211 19.7892 -7.24388 19.7487 -7.2354C19.6892 -7.22319 19.6294 -7.20997 19.5699 -7.19551C19.5294 -7.18579 19.4889 -7.17557 19.4487 -7.16485C19.3892 -7.14889 19.3299 -7.13194 19.2709 -7.11424C19.2314 -7.10252 19.1922 -7.09056 19.1529 -7.07809C19.0922 -7.05815 19.0317 -7.0372 18.9712 -7.01551C18.9347 -7.0023 18.8982 -6.98984 18.8619 -6.97587C18.7962 -6.95069 18.7309 -6.92377 18.6654 -6.89634C18.6357 -6.88388 18.6054 -6.87191 18.5757 -6.85895C18.4859 -6.81956 18.3969 -6.77817 18.3087 -6.73454C18.3042 -6.7323 18.2997 -6.73056 18.2952 -6.72831H18.2954C16.2922 -5.73308 14.7282 -3.68202 14.7282 -1.69679C14.7282 1.06354 14.9517 0.808752 14.9517 1.28667C14.9517 2.02338 14.4199 4.75155 14.4199 9.30615C14.4199 9.82645 12.5434 12.765 12.1672 14.2163C11.7909 15.6675 10.7834 20.0004 10.6672 21.4402C10.5509 22.8799 9.76142 23.8839 9.15517 25.3882C8.35842 27.3647 10.8802 28.446 11.0622 28.5193C11.2977 28.614 11.5617 28.6113 11.6414 28.4273C11.9694 27.6704 10.2382 26.6662 10.5487 26.1177C10.8634 25.5617 11.4007 24.9377 11.8404 25.1147C12.2802 25.2917 12.0694 26.6841 12.5094 26.8611C12.9492 27.0381 13.1377 26.9205 13.2724 26.5879C13.4072 26.2553 13.3444 23.6563 12.6772 23.3878C13.0124 22.9298 13.2257 22.6139 13.2257 22.6139C13.2257 22.6139 14.9612 19.8581 15.7277 18.7753C16.4942 17.6924 17.8637 13.6134 18.0019 12.0844C18.3959 11.5113 17.9444 10.9244 18.1157 10.4402C18.7982 8.51235 18.7649 6.32842 19.0684 6.32842C19.3559 6.32842 20.0619 8.83496 20.0619 11.1919C20.0619 12.9755 19.5829 12.243 19.5829 15.3641C19.5829 16.2878 18.0284 17.1371 18.0284 20.8316C18.0284 21.7872 17.0067 23.5708 17.0067 27.4353C17.0067 34.8245 20.3142 39.4876 20.3142 42.6089C20.3142 45.9531 19.4044 44.9983 19.4044 48.8837C19.4044 52.7694 22.0579 57.857 22.0579 60.5643C22.0579 66.0076 18.6464 63.097 18.6464 64.7601C18.6464 65.1214 19.5942 65.6297 19.5942 65.6297L22.1624 66.6359L23.8774 66.8014C24.6387 66.8014 25.3559 66.5369 25.3559 65.2139C25.3559 64.7893 25.3179 63.72 25.3179 63.2104C25.3179 62.7008 24.7492 61.2329 24.7492 59.6194C24.7492 58.0056 24.8629 53.4578 24.8629 53.4578C24.8629 53.4578 25.6589 51.2324 25.6589 49.6399C25.6589 48.0473 24.7872 45.5397 24.7872 44.8392C24.7872 44.1384 25.9387 42.3441 25.9387 35.3339C25.9387 32.3083 26.6732 27.2122 26.6732 23.677H26.9924H27.3119C27.3119 27.2122 28.0464 32.3083 28.0464 35.3339C28.0464 42.3441 29.1979 44.1384 29.1979 44.8392C29.1979 45.5397 28.3259 48.0473 28.3259 49.6399C28.3259 51.2324 29.1219 53.4578 29.1219 53.4578C29.1219 53.4578 29.2357 58.0056 29.2357 59.6194C29.2357 61.2329 28.6672 62.7008 28.6672 63.2104C28.6672 63.72 28.6292 64.7893 28.6292 65.2139C28.6292 66.5369 29.3462 66.8014 30.1074 66.8014L31.8227 66.6359L34.3909 65.6297C34.3909 65.6297 35.3387 65.1214 35.3387 64.7601C35.3387 63.097 31.9269 66.0076 31.9269 60.5643C31.9269 57.857 34.5804 52.7694 34.5804 48.8837C34.5804 44.9983 33.6707 45.9531 33.6707 42.6089C33.6707 39.4876 36.9784 34.8245 36.9784 27.4353C36.9784 23.5708 35.9564 21.7872 35.9564 20.8316C35.9564 17.1371 34.4022 16.2878 34.4022 15.3641C34.4022 12.243 33.9232 12.9755 33.9232 11.1919C33.9232 8.83496 34.6292 6.32842 34.9167 6.32842C35.2202 6.32842 35.1869 8.51235 35.8692 10.4402C36.0407 10.9244 35.5892 11.5113 35.9829 12.0844C36.1214 13.6134 37.4909 17.6924 38.2572 18.7753C39.0239 19.8581 40.7592 22.6139 40.7592 22.6139C40.7592 22.6139 40.9724 22.9298 41.3079 23.3878C40.6407 23.6563 40.5779 26.2553 40.7127 26.5879C40.8472 26.9205 41.0359 27.0381 41.4757 26.8611C41.9154 26.6841 41.7047 25.2917 42.1444 25.1147C42.5844 24.9377 43.1217 25.5617 43.4364 26.1177C43.7469 26.6662 42.0157 27.6704 42.3437 28.4273C42.4234 28.6113 42.6874 28.614 42.9229 28.5193C43.1049 28.446 45.6264 27.3647 44.8299 25.3882Z" fill="white"/>
<path fill-rule="evenodd" clip-rule="evenodd" d="M19.5831 15.3642C19.5831 16.2879 18.0288 17.1373 18.0288 20.8317C18.0288 21.7873 17.0068 23.5706 17.0068 27.4351C17.0068 29.837 17.3571 31.9494 17.8288 33.8157C18.6466 30.6637 19.6858 27.3703 22.0361 27.0679C24.3863 26.7655 26.9928 22.9523 26.9928 21.6672C26.9928 21.6672 22.4108 15.4679 22.4108 14.7873C22.4108 14.1069 20.8226 14.6559 19.5831 15.3642Z" fill="#059669"/>
<path fill-rule="evenodd" clip-rule="evenodd" d="M19.6572 28.85C19.8 30.0023 19.9352 31.7654 19.9352 34.3116C19.9352 36.6823 19.86 38.4556 19.7392 39.7782C20.0807 40.8442 20.3142 41.7816 20.3142 42.6088C20.3142 42.6188 20.314 42.6275 20.314 42.6372C21.2385 40.4456 21.9995 37.0752 21.9995 33.8157C21.9995 28.8682 22.036 27.068 22.036 27.068C21.032 27.1971 20.2677 27.8733 19.6572 28.85Z" fill="white"/>
<path fill-rule="evenodd" clip-rule="evenodd" d="M25.6648 24.3928C24.6938 25.6765 23.3266 26.9019 22.0356 27.0679C22.0263 27.0691 22.0176 27.0714 22.0083 27.0729C22.0191 28.1938 22.0356 30.1743 22.0356 31.6467C22.0356 33.8156 23.9151 37.657 23.9151 38.9611C23.9151 40.2652 23.7446 40.4921 23.9151 40.8888C24.0858 41.2859 24.5216 43.2893 24.6543 44.0642C24.6903 44.2736 24.7528 44.4391 24.8243 44.5708C25.0206 43.694 25.9383 41.5948 25.9383 35.3339C25.9383 33.5756 26.1861 31.1184 26.3941 28.6742C25.9951 27.386 25.5616 25.6396 25.6648 24.3928Z" fill="white"/>
<path fill-rule="evenodd" clip-rule="evenodd" d="M22.494 43.4405C22.494 42.0229 21.8685 40.7188 21.5843 41.5694C21.3 42.4198 20.6178 43.4973 20.2148 44.2021C19.9895 45.6925 19.4565 45.7915 19.4085 48.484C19.411 48.6214 19.4105 48.7555 19.4048 48.8839C19.4048 48.9699 19.4075 49.0571 19.41 49.1442C19.5273 50.8891 21.3348 54.4265 21.9995 54.1602C22.6993 53.88 23.0058 52.9663 22.892 51.2087C22.7783 49.4508 22.494 44.8581 22.494 43.4405Z" fill="white"/>
<path fill-rule="evenodd" clip-rule="evenodd" d="M24.787 44.8391C24.787 44.764 24.8005 44.6758 24.824 44.5703C24.7525 44.4387 24.69 44.2734 24.6542 44.0642C24.5215 43.2894 24.0857 41.2859 23.9152 40.8888C23.7445 40.4919 23.6045 39.5615 23.2505 40.2598C22.8955 40.9611 22.4965 41.7611 22.3247 42.1513C22.3245 42.1518 22.3242 42.1523 22.3242 42.1525C22.4252 42.5218 22.4937 42.974 22.4937 43.4405C22.4937 44.858 22.778 49.451 22.8917 51.2086C22.8917 51.2086 23.5392 53.7224 24.201 53.59C24.3755 53.5551 24.6107 53.519 24.8622 53.4846C24.8625 53.4689 24.8627 53.4576 24.8627 53.4576C24.8627 53.4576 25.6587 51.2323 25.6587 49.6397C25.6587 48.0474 24.787 45.5399 24.787 44.8391Z" fill="white"/>
<path fill-rule="evenodd" clip-rule="evenodd" d="M18.295 -6.72824C16.7083 -6.05985 14.728 -3.7737 14.728 -1.69672C14.728 1.06361 14.9515 0.808823 14.9515 1.2865C14.9515 1.55176 14.8823 2.07904 14.7943 2.8524C15.8413 1.70807 17.49 0.403947 19.082 -0.333005C20.6738 -1.06996 20.0838 -2.50971 21.9983 -3.26411C20.967 -4.81206 19.1443 -6.08104 18.295 -6.72824Z" fill="white"/>
<path fill-rule="evenodd" clip-rule="evenodd" d="M14.7942 2.85231C14.6374 4.22774 14.4197 6.39073 14.4197 9.30613C14.4197 9.38791 14.3732 9.52926 14.2939 9.715C14.9102 10.5604 15.6857 11.4041 16.3529 11.4041C16.9384 11.4041 17.5777 10.959 18.0989 10.5003C18.1039 10.4804 18.1084 10.4599 18.1154 10.4402C18.7979 8.51234 18.7647 6.3284 19.0682 6.3284C19.1219 6.3284 19.1899 6.41591 19.2657 6.57347C19.3512 5.08336 19.2214 2.13705 18.3634 0.0361328C17.0084 0.79328 15.6839 1.88001 14.7942 2.85231Z" fill="white"/>
<path fill-rule="evenodd" clip-rule="evenodd" d="M11.4827 21.3718C11.2417 20.8315 11.4175 17.2764 11.6597 16.2732C11.9022 15.2697 13.543 12.5949 14.2942 12.198C15.0452 11.8011 15.3865 15.5435 15.0452 16.5639C14.7042 17.5846 13.2257 22.6138 13.2257 22.6138C13.2257 22.6138 11.7237 21.912 11.4827 21.3718Z" fill="white"/>
<path fill-rule="evenodd" clip-rule="evenodd" d="M42.5022 21.3718C42.7432 20.8315 42.5675 17.2764 42.3252 16.2732C42.0827 15.2697 40.442 12.5949 39.6907 12.198C38.9397 11.8011 38.5985 15.5435 38.9397 16.5639C39.2807 17.5846 40.759 22.6138 40.759 22.6138C40.759 22.6138 42.2612 21.912 42.5022 21.3718Z" fill="white"/>
<path fill-rule="evenodd" clip-rule="evenodd" d="M15.0456 16.564C14.8036 17.3453 14.3248 18.9274 13.8788 20.405C13.5218 21.608 13.2261 22.6139 13.2261 22.6139C13.2261 22.6139 14.9613 19.8583 15.7278 18.7753C16.4943 17.6923 17.8638 13.6134 18.0023 12.0847C17.3198 12.8785 15.5693 14.8719 15.0456 16.564Z" fill="white"/>
<path fill-rule="evenodd" clip-rule="evenodd" d="M23.1195 -0.616576C22.831 -1.90026 22.4493 -2.52926 21.9988 -3.26422C20.248 -2.67212 20.6743 -1.07007 19.0825 -0.333113C18.8435 -0.222421 18.6033 -0.0975177 18.3638 0.0361111C19.31 0.971014 20.0523 1.63542 20.8468 1.92686C21.641 2.21855 23.0625 2.15547 23.83 1.79024C23.5348 0.946084 23.2853 0.120626 23.1195 -0.616576Z" fill="white"/>
<path fill-rule="evenodd" clip-rule="evenodd" d="M23.83 1.7902C23.0625 2.15543 21.641 2.21851 20.8468 1.92682C20.0523 1.63538 19.31 0.970975 18.3638 0.0360718C19.222 2.13699 19.3515 5.0833 19.266 6.57341C19.259 6.55845 19.8703 8.45494 20.0068 9.9984C20.8463 11.1063 22.036 13.0484 22.036 13.0484C24.5748 9.91987 25.5645 8.73915 26.36 7.45247C25.5543 5.91374 24.6548 4.13219 23.83 1.7902Z" fill="white"/>
<path fill-rule="evenodd" clip-rule="evenodd" d="M25.6652 24.3928C25.6612 24.3981 25.6569 24.4033 25.6529 24.4083C25.6269 24.4429 25.5997 24.4771 25.5729 24.5115C25.5267 24.5708 25.4799 24.6302 25.4319 24.689C25.4032 24.7247 25.3739 24.7601 25.3444 24.7955C25.2922 24.858 25.2392 24.9201 25.1854 24.9817C25.1609 25.0096 25.1372 25.0375 25.1127 25.0652C24.9494 25.2484 24.7792 25.4262 24.6034 25.5957C24.5889 25.6097 24.5742 25.6234 24.5597 25.6374C24.4817 25.7114 24.4029 25.7837 24.3232 25.8543C24.3097 25.8662 24.2962 25.8782 24.2824 25.8899C24.0929 26.0552 23.8992 26.2093 23.7017 26.3476C23.8994 27.8181 24.3337 29.5909 24.7684 30.1157C25.1149 30.5338 25.6247 28.4969 25.9009 26.7989C25.7214 25.9522 25.6072 25.0939 25.6652 24.3928Z" fill="white"/>
<path fill-rule="evenodd" clip-rule="evenodd" d="M34.4019 15.3642C34.4019 16.2879 35.9562 17.1373 35.9562 20.8317C35.9562 21.7873 36.9782 23.5706 36.9782 27.4351C36.9782 29.837 36.6279 31.9494 36.1562 33.8157C35.3384 30.6637 34.2989 27.3703 31.9487 27.0679C29.5987 26.7655 26.9922 22.9523 26.9922 21.6672C26.9922 21.6672 31.5742 15.4679 31.5742 14.7873C31.5742 14.1069 33.1624 14.6559 34.4019 15.3642Z" fill="#059669"/>
<path fill-rule="evenodd" clip-rule="evenodd" d="M34.328 28.85C34.1852 30.0023 34.05 31.7654 34.05 34.3116C34.05 36.6823 34.1252 38.4556 34.246 39.7782C33.9045 40.8442 33.671 41.7816 33.671 42.6088C33.671 42.6188 33.6712 42.6275 33.6712 42.6372C32.7467 40.4456 31.9855 37.0752 31.9855 33.8157C31.9855 28.8682 31.9492 27.068 31.9492 27.068C32.9532 27.1971 33.7175 27.8733 34.328 28.85Z" fill="white"/>
<path fill-rule="evenodd" clip-rule="evenodd" d="M28.3198 24.3928C29.2911 25.6765 30.6583 26.9019 31.9491 27.0679C31.9583 27.0691 31.9673 27.0714 31.9766 27.0729C31.9658 28.1938 31.9491 30.1743 31.9491 31.6467C31.9491 33.8156 30.0696 37.657 30.0696 38.9611C30.0696 40.2652 30.2401 40.4921 30.0696 40.8888C29.8988 41.2859 29.4631 43.2893 29.3303 44.0642C29.2946 44.2736 29.2321 44.4391 29.1603 44.5708C28.9641 43.694 28.0463 41.5948 28.0463 35.3339C28.0463 33.5756 27.7986 31.1184 27.5908 28.6742C27.9896 27.386 28.4233 25.6396 28.3198 24.3928Z" fill="white"/>
<path fill-rule="evenodd" clip-rule="evenodd" d="M31.491 43.4405C31.491 42.0229 32.1165 40.7188 32.4007 41.5694C32.685 42.4198 33.3675 43.4973 33.7702 44.2021C33.9955 45.6925 34.5287 45.7915 34.5767 48.484C34.574 48.6214 34.5747 48.7555 34.5802 48.8839C34.5802 48.9699 34.5775 49.0571 34.575 49.1442C34.458 50.8891 32.6502 54.4265 31.9855 54.1602C31.2857 53.88 30.9792 52.9663 31.093 51.2087C31.2067 49.4508 31.491 44.8581 31.491 43.4405Z" fill="white"/>
<path fill-rule="evenodd" clip-rule="evenodd" d="M29.1979 44.8391C29.1979 44.764 29.1844 44.6758 29.1609 44.5703C29.2324 44.4387 29.2947 44.2734 29.3307 44.0642C29.4632 43.2894 29.8992 41.2859 30.0697 40.8888C30.2402 40.4919 30.3802 39.5615 30.7342 40.2598C31.0894 40.9611 31.4884 41.7611 31.6602 42.1513C31.6604 42.1518 31.6604 42.1523 31.6607 42.1525C31.5597 42.5218 31.4912 42.974 31.4912 43.4405C31.4912 44.858 31.2069 49.451 31.0932 51.2086C31.0932 51.2086 30.4457 53.7224 29.7839 53.59C29.6094 53.5551 29.3742 53.519 29.1227 53.4846C29.1224 53.4689 29.1222 53.4576 29.1222 53.4576C29.1222 53.4576 28.3262 51.2323 28.3262 49.6397C28.3262 48.0474 29.1979 45.5399 29.1979 44.8391Z" fill="white"/>
<path fill-rule="evenodd" clip-rule="evenodd" d="M35.6896 -6.72824C37.2766 -6.05985 39.2568 -3.7737 39.2568 -1.69672C39.2568 1.06361 39.0331 0.808823 39.0331 1.2865C39.0331 1.55176 39.1023 2.07904 39.1906 2.8524C38.1433 1.70807 36.4946 0.403947 34.9026 -0.333005C33.3108 -1.06996 33.9011 -2.50971 31.9863 -3.26411C33.0176 -4.81206 34.8403 -6.08104 35.6896 -6.72824Z" fill="white"/>
<path fill-rule="evenodd" clip-rule="evenodd" d="M39.1907 2.85231C39.3475 4.22774 39.5652 6.39073 39.5652 9.30613C39.5652 9.38791 39.6115 9.52926 39.691 9.715C39.0747 10.5604 38.2992 11.4041 37.632 11.4041C37.0462 11.4041 36.407 10.959 35.8857 10.5003C35.8807 10.4804 35.8765 10.4599 35.8692 10.4402C35.187 8.51234 35.2202 6.3284 34.9167 6.3284C34.863 6.3284 34.7947 6.41591 34.7192 6.57347C34.6337 5.08336 34.7635 2.13705 35.6215 0.0361328C36.9762 0.79328 38.3007 1.88001 39.1907 2.85231Z" fill="white"/>
<path fill-rule="evenodd" clip-rule="evenodd" d="M38.9397 16.564C39.1814 17.3453 39.6604 18.9274 40.1062 20.405C40.4634 21.608 40.7592 22.6139 40.7592 22.6139C40.7592 22.6139 39.0239 19.8583 38.2574 18.7753C37.4909 17.6923 36.1214 13.6134 35.9829 12.0847C36.6652 12.8785 38.4159 14.8719 38.9397 16.564Z" fill="white"/>
<path fill-rule="evenodd" clip-rule="evenodd" d="M30.8658 -0.616576C31.1543 -1.90026 31.536 -2.52926 31.9865 -3.26422C33.737 -2.67212 33.311 -1.07007 34.9028 -0.333113C35.1418 -0.222421 35.382 -0.0975177 35.6215 0.0361111C34.6753 0.971014 33.933 1.63542 33.1385 1.92686C32.3443 2.21855 30.9228 2.15547 30.1553 1.79024C30.4505 0.946084 30.7 0.120626 30.8658 -0.616576Z" fill="white"/>
<path fill-rule="evenodd" clip-rule="evenodd" d="M31.9494 13.0485C31.1501 12.0278 27.5111 7.65197 27.6249 7.45426C27.6251 7.45377 27.6251 7.45277 27.6254 7.45227C27.3636 7.89853 27.1426 8.2144 26.9926 8.3423C26.8426 8.2144 26.6216 7.89853 26.3601 7.45227C26.3604 7.45277 26.3601 7.45377 26.3606 7.45426C26.4741 7.65197 22.8351 12.0278 22.0361 13.0485C22.0361 13.0485 22.4941 13.9557 22.4109 14.7874C22.4109 15.4678 26.9926 21.667 26.9926 21.667C26.9926 21.667 31.5746 15.4678 31.5746 14.7874C31.4911 13.9557 31.9494 13.0485 31.9494 13.0485Z" fill="white"/>
<path fill-rule="evenodd" clip-rule="evenodd" d="M30.1553 1.7902C30.9228 2.15543 32.3443 2.21851 33.1385 1.92682C33.933 1.63538 34.6753 0.970975 35.6215 0.0360718C34.7632 2.13699 34.6337 5.0833 34.719 6.57341C34.7262 6.55845 34.115 8.45494 33.9783 9.9984C33.1388 11.1063 31.949 13.0484 31.949 13.0484C29.4102 9.91987 28.4208 8.73915 27.625 7.45247C28.431 5.91374 29.3305 4.13219 30.1553 1.7902Z" fill="white"/>
<path fill-rule="evenodd" clip-rule="evenodd" d="M28.3197 24.3928C28.3237 24.3981 28.328 24.4033 28.332 24.4083C28.3582 24.4429 28.3855 24.4771 28.4122 24.5115C28.4585 24.5708 28.505 24.6302 28.553 24.689C28.5817 24.7247 28.6112 24.7601 28.6407 24.7955C28.6927 24.858 28.746 24.9201 28.7995 24.9817C28.824 25.0096 28.8477 25.0375 28.8722 25.0652C29.0357 25.2484 29.206 25.4262 29.3815 25.5957C29.396 25.6097 29.4107 25.6234 29.4252 25.6374C29.5032 25.7114 29.582 25.7837 29.6617 25.8543C29.6752 25.8662 29.689 25.8782 29.7025 25.8899C29.892 26.0552 30.0857 26.2093 30.2832 26.3476C30.0855 27.8181 29.6512 29.5909 29.2165 30.1157C28.8702 30.5338 28.3602 28.4969 28.084 26.7989C28.2637 25.9522 28.3777 25.0939 28.3197 24.3928Z" fill="white"/>
<path fill-rule="evenodd" clip-rule="evenodd" d="M33.2099 -7.3447L29.5582 -9.49049L29.7259 -11.0978C29.7259 -11.0978 28.9084 -13.622 26.9927 -13.622C25.0767 -13.622 24.2594 -11.0978 24.2594 -11.0978L24.4272 -9.49049L20.7754 -7.3447C19.9264 -7.3447 19.0774 -7.11683 18.2954 -6.72841C20.1059 -5.32281 22.3804 -3.90525 23.1194 -0.616635C23.8587 2.67198 26.2602 7.71846 26.9927 8.34223C27.7252 7.71846 30.1267 2.67198 30.8659 -0.616635C31.6049 -3.90525 33.8794 -5.32281 35.6899 -6.72841C34.9079 -7.11683 34.0589 -7.3447 33.2099 -7.3447Z" fill="white"/>
<path fill-rule="evenodd" clip-rule="evenodd" d="M19.5831 15.3642C19.5831 16.2879 18.0288 17.1373 18.0288 20.8317C18.0288 21.7873 17.0068 23.5706 17.0068 27.4351C17.0068 29.837 17.3571 31.9494 17.8288 33.8157C18.6466 30.6637 19.6858 27.3703 22.0361 27.0679C24.3863 26.7655 26.9928 22.9523 26.9928 21.6672C26.9928 21.6672 22.4108 15.4679 22.4108 14.7873C22.4108 14.1069 20.8226 14.6559 19.5831 15.3642Z" stroke="#353E82" stroke-width="0.5" stroke-linejoin="round"/>
<path fill-rule="evenodd" clip-rule="evenodd" d="M34.4019 15.3642C34.4019 16.2879 35.9562 17.1373 35.9562 20.8317C35.9562 21.7873 36.9782 23.5706 36.9782 27.4351C36.9782 29.837 36.6279 31.9494 36.1562 33.8157C35.3384 30.6637 34.2989 27.3703 31.9487 27.0679C29.5987 26.7655 26.9922 22.9523 26.9922 21.6672C26.9922 21.6672 31.5742 15.4679 31.5742 14.7873C31.5742 14.1069 33.1624 14.6559 34.4019 15.3642Z" stroke="#353E82" stroke-width="0.5" stroke-linejoin="round"/>
</g>
<rect width="53" height="53" rx="6" fill="url(#paint0_linear_24_19184)"/>
</g>
<defs>
<linearGradient id="paint0_linear_24_19184" x1="16.0448" y1="32.0897" x2="16.0448" y2="53" gradientUnits="userSpaceOnUse">
<stop stop-color="#F6F6F8" stop-opacity="0.01"/>
<stop offset="1" stop-color="#F6F6F8"/>
</linearGradient>
<clipPath id="clip0_24_19184">
<rect width="53" height="53" fill="white"/>
</clipPath>
</defs>
</svg>
