<svg width="53" height="53" viewBox="0 0 53 53" fill="none" xmlns="http://www.w3.org/2000/svg">
<g clip-path="url(#clip0_23_15200)">
<mask id="mask0_23_15200" style="mask-type:luminance" maskUnits="userSpaceOnUse" x="0" y="0" width="53" height="53">
<rect width="53" height="53" rx="6" fill="white"/>
</mask>
<g mask="url(#mask0_23_15200)">
<path fill-rule="evenodd" clip-rule="evenodd" d="M44.8501 61.8141C44.5944 61.2055 44.1454 59.2961 44.017 57.7103C43.6743 53.4835 43.3766 47.1768 43.0671 45.9809C42.6416 44.3361 41.7348 42.6364 41.7348 42.0465C41.7348 36.8853 40.5794 35.5908 40.5794 34.7558C40.5794 34.2143 40.832 34.503 40.832 31.375C40.832 28.247 37.4137 24.9745 33.9951 24.9745L30.6729 22.9051V19.9216H30.6423C29.8075 20.852 28.3162 22.2676 26.9657 22.2676C25.6153 22.2676 24.124 20.852 23.2892 19.9216H23.2586V22.9051L19.9364 24.9745C16.5178 24.9745 13.0995 28.247 13.0995 31.375C13.0995 34.503 13.3524 34.2143 13.3524 34.7558C13.3524 35.5908 12.1967 36.8853 12.1967 42.0465C12.1967 42.6364 11.2896 44.3361 10.8641 45.9809C10.5548 47.1768 10.2575 53.4835 9.91478 57.7103C9.78608 59.2961 9.33736 61.2055 9.08139 61.8141C8.48385 63.2356 11.3661 65.413 11.5589 65.4904C11.8078 65.5909 11.8925 65.0914 11.977 64.8965C12.3237 64.0944 11.0333 63.141 11.1164 62.5842C11.2164 61.915 11.3346 60.7397 11.7995 60.9273C12.2647 61.1148 12.422 62.1805 12.8869 62.368C13.3518 62.5556 13.5513 62.4309 13.6936 62.0785C13.777 61.8719 13.2486 60.5788 12.7744 59.3647C12.4393 58.5068 12.4966 57.8916 12.4966 57.8916C12.4966 57.8916 16.1949 49.3015 16.3511 47.569C16.8537 46.7711 16.6201 46.3716 16.6845 45.793C16.9421 43.4705 16.9453 38.9786 17.2883 38.9786C17.6134 38.9786 17.6494 40.3865 17.6494 41.2526C17.6494 43.2379 19.1299 43.3099 19.1299 45.9809C19.1299 48.0019 18.5882 47.172 18.5882 50.7091C18.5882 51.7558 16.8307 52.7183 16.8307 56.9051C16.8307 57.988 15.6753 60.009 15.6753 64.3885C15.6753 72.7621 17.9022 76.8407 17.9022 80.3781C17.9022 84.1677 17.216 83.843 17.216 88.2463C17.216 92.6498 19.9605 98.2802 19.9605 101.348C19.9605 108.098 17.7217 106.365 17.7217 107.917C17.7217 108.326 18.1548 108.591 18.1548 108.591L21.9827 109H23.9565L24.5586 108.278C24.5586 108.278 24.0288 107.364 24.0288 106.883C24.0288 106.401 24.2935 105.463 24.2935 104.885C24.2935 104.308 23.5474 102.287 23.5474 100.458C23.5474 98.6293 23.4992 93.3715 23.4992 93.3715C23.4992 93.3715 23.6798 91.6392 23.6798 89.8344C23.6798 88.0298 22.5604 87.1274 22.5604 86.3335C22.5604 85.5393 25.7741 79.7644 25.7741 73.3398C25.7741 69.9109 26.6046 64.1357 26.6046 60.1294H26.9657H27.3269C27.3269 64.1357 28.1574 69.9109 28.1574 73.3398C28.1574 79.7644 31.3713 85.5393 31.3713 86.3335C31.3713 87.1274 30.2517 88.0298 30.2517 89.8344C30.2517 91.6392 30.4322 93.3715 30.4322 93.3715C30.4322 93.3715 30.3843 98.6293 30.3843 100.458C30.3843 102.287 29.638 104.308 29.638 104.885C29.638 105.463 29.9027 106.401 29.9027 106.883C29.9027 107.364 29.3732 108.278 29.3732 108.278L29.975 109H31.949L35.7767 108.591C35.7767 108.591 36.2101 108.326 36.2101 107.917C36.2101 106.365 33.9713 108.098 33.9713 101.348C33.9713 98.2802 36.7155 92.6498 36.7155 88.2463C36.7155 83.843 36.0292 84.1677 36.0292 80.3781C36.0292 76.8407 38.2561 72.7621 38.2561 64.3885C38.2561 60.009 37.1007 57.988 37.1007 56.9051C37.1007 52.7183 35.3432 51.7558 35.3432 50.7091C35.3432 47.172 34.8015 48.0019 34.8015 45.9809C34.8015 43.3099 36.2821 43.2379 36.2821 41.2526C36.2821 40.3865 36.3184 38.9786 36.6432 38.9786C36.9862 38.9786 36.9893 43.4705 37.247 45.793C37.3113 46.3716 37.0778 46.7711 37.5804 47.569C37.7368 49.3015 41.4352 57.8916 41.4352 57.8916C41.4352 57.8916 41.4922 58.5068 41.1574 59.3647C40.6832 60.5788 40.1545 61.8719 40.2378 62.0785C40.3801 62.4309 40.5797 62.5556 41.0446 62.368C41.5097 62.1805 41.6671 61.1148 42.1319 60.9273C42.5968 60.7397 42.7153 61.915 42.8151 62.5842C42.8984 63.141 41.6078 64.0944 41.9545 64.8965C42.039 65.0914 42.124 65.5909 42.3729 65.4904C42.5651 65.413 45.4476 63.2356 44.8501 61.8141Z" fill="white"/>
<path fill-rule="evenodd" clip-rule="evenodd" d="M13.0996 31.3751C13.0996 34.5031 13.3525 34.2144 13.3525 34.7559C14.9413 34.4312 15.9884 33.0596 17.9023 29.8471C19.816 26.635 21.4411 27.1402 21.4411 26.3822C21.4411 25.8045 20.3217 25.5521 19.9365 24.9746C16.5182 24.9746 13.0996 28.2469 13.0996 31.3751Z" fill="#059669"/>
<path fill-rule="evenodd" clip-rule="evenodd" d="M25.449 28.4034C25.237 27.9847 22.1991 26.3821 21.4408 26.3821C21.4408 27.1401 19.8157 26.6349 17.9021 29.847C17.1914 31.0401 16.6001 31.9788 16.0562 32.7047H16.0564C16.919 33.1802 16.6381 33.5646 17.4327 34.2506C18.2269 34.9363 20.8631 35.9829 22.488 35.9829C24.1131 35.9829 26.372 35.0085 26.372 35.0085V32.554C26.372 29.8833 25.7784 29.0531 25.449 28.4034Z" fill="white"/>
<path fill-rule="evenodd" clip-rule="evenodd" d="M23.1138 40.4854V38.053C23.1138 37.2106 23.4508 36.585 24.0767 36.585C24.7026 36.585 25.9785 36.0558 26.123 36.0558C26.2673 36.0558 26.5564 36.1039 26.5564 36.4048V39.6768C26.5564 40.1519 25.9907 40.1819 25.2083 40.1819C24.7508 40.1819 23.7757 40.5936 23.5713 40.7982C23.3666 41.0028 23.1138 40.7259 23.1138 40.4854Z" fill="white"/>
<path fill-rule="evenodd" clip-rule="evenodd" d="M26.5564 41.815C26.5564 41.4541 26.3881 41.1653 25.9546 41.1653H24.8471C24.4137 41.1653 23.186 41.9111 23.186 42.5848V44.1522C23.186 44.465 23.3306 44.6333 23.7158 44.6333H25.401C25.6176 44.6333 26.5564 44.2001 26.5564 43.5986V41.815Z" fill="white"/>
<path fill-rule="evenodd" clip-rule="evenodd" d="M23.084 47.9119V46.1221C23.084 45.8153 23.2464 45.382 23.7158 45.382H25.6658C25.9546 45.382 26.5326 45.743 26.5326 46.1402V47.9119C26.5326 48.1825 26.4062 48.6517 26.0992 48.6517H24.077C23.7518 48.6517 23.084 48.3449 23.084 47.9119Z" fill="white"/>
<path fill-rule="evenodd" clip-rule="evenodd" d="M26.0028 49.5177H24.0047C23.6195 49.5177 23.186 49.8305 23.186 50.1915C23.186 50.5525 24.9676 58.4934 26.364 58.4934H26.5323C26.6049 56.6186 26.5323 50.5122 26.5323 50.1915C26.5323 49.8064 26.4601 49.5177 26.0028 49.5177Z" fill="white"/>
<path fill-rule="evenodd" clip-rule="evenodd" d="M30.8174 40.4854V38.053C30.8174 37.2106 30.4804 36.585 29.8545 36.585C29.2286 36.585 27.9527 36.0558 27.8081 36.0558C27.6639 36.0558 27.375 36.1039 27.375 36.4048V39.6768C27.375 40.1519 27.9408 40.1819 28.7232 40.1819C29.1804 40.1819 30.1555 40.5936 30.3602 40.7982C30.5645 41.0028 30.8174 40.7259 30.8174 40.4854Z" fill="white"/>
<path fill-rule="evenodd" clip-rule="evenodd" d="M27.375 41.815C27.375 41.4541 27.5434 41.1653 27.9768 41.1653H29.084C29.5174 41.1653 30.7454 41.9111 30.7454 42.5848V44.1522C30.7454 44.465 30.6008 44.6333 30.2156 44.6333H28.5304C28.3138 44.6333 27.375 44.2001 27.375 43.5986V41.815Z" fill="white"/>
<path fill-rule="evenodd" clip-rule="evenodd" d="M30.8476 47.9119V46.1221C30.8476 45.8153 30.6851 45.382 30.2157 45.382H28.2658C27.9769 45.382 27.3989 45.743 27.3989 46.1402V47.9119C27.3989 48.1825 27.5254 48.6517 27.8323 48.6517H29.8546C30.1794 48.6517 30.8476 48.3449 30.8476 47.9119Z" fill="white"/>
<path fill-rule="evenodd" clip-rule="evenodd" d="M27.9285 49.5177H29.9266C30.3118 49.5177 30.7453 49.8305 30.7453 50.1915C30.7453 50.5525 28.9637 58.4934 27.5673 58.4934H27.399C27.3264 56.6186 27.399 50.5122 27.399 50.1915C27.399 49.8064 27.471 49.5177 27.9285 49.5177Z" fill="white"/>
<path fill-rule="evenodd" clip-rule="evenodd" d="M16.6844 31.8073C16.6084 31.9221 16.5342 32.0334 16.4604 32.141C16.5342 32.0334 16.6084 31.9224 16.6844 31.8073Z" fill="white"/>
<path fill-rule="evenodd" clip-rule="evenodd" d="M16.0564 32.7048C16.1052 32.6396 16.1551 32.5702 16.2047 32.5016C15.2191 33.8648 14.4041 34.5408 13.3522 34.7558C13.3522 35.5908 12.1968 36.8854 12.1968 42.0469C12.1968 43.0935 14.6964 44.4399 15.8438 42.0469C16.5882 40.4945 16.868 39.8476 17.042 39.4665C17.1305 39.16 17.2144 38.9789 17.2884 38.9789C17.5409 38.5457 17.4327 34.2507 17.4327 34.2507C16.6384 33.5647 16.919 33.1802 16.0564 32.7048Z" fill="white"/>
<path fill-rule="evenodd" clip-rule="evenodd" d="M16.2471 32.4451C16.3157 32.3492 16.3848 32.2496 16.4551 32.1468C16.3848 32.2496 16.3157 32.3492 16.2471 32.4451Z" fill="white"/>
<path fill-rule="evenodd" clip-rule="evenodd" d="M26.9658 7.00003C23.6972 7.00003 22.063 9.89003 22.063 11.3979C22.063 12.9058 22.6285 19.1261 22.6285 19.1261C22.6285 19.1261 24.9543 22.2674 26.9658 22.2674C28.9773 22.2674 31.3031 19.1261 31.3031 19.1261C31.3031 19.1261 31.8686 12.9058 31.8686 11.3979C31.8686 9.89003 30.2344 7.00003 26.9658 7.00003Z" fill="white"/>
<path fill-rule="evenodd" clip-rule="evenodd" d="M31.7081 52.3334C31.7081 49.6624 32.4063 49.8789 32.4063 48.4594C32.4063 45.4997 31.7081 42.9732 31.7081 41.6497C31.7081 40.3263 31.8283 35.9831 31.8283 35.9831L31.7716 35.97C31.6585 35.9785 31.5488 35.9831 31.4431 35.9831C29.8183 35.9831 27.5593 35.0087 27.5593 35.0087H26.9658H26.3719C26.3719 35.0087 24.113 35.9831 22.4879 35.9831C22.3827 35.9831 22.2727 35.9785 22.1596 35.97L22.1026 35.9831C22.1026 35.9831 22.2231 40.3263 22.2231 41.6497C22.2231 42.9732 21.5249 45.4997 21.5249 48.4594C21.5249 49.8789 22.2231 49.6624 22.2231 52.3334C22.2231 53.2718 21.5008 53.9333 20.562 53.9333C20.562 56.0872 25.6176 60.1296 26.9658 60.1296C28.3136 60.1296 33.3692 56.0872 33.3692 53.9333C32.4301 53.9333 31.7081 53.2718 31.7081 52.3334Z" fill="white"/>
<path fill-rule="evenodd" clip-rule="evenodd" d="M33.3691 53.9335C33.995 52.3094 35.3432 50.7092 35.3432 50.7092L33.3691 53.9335Z" fill="white"/>
<path fill-rule="evenodd" clip-rule="evenodd" d="M17.8877 79.8835C17.8877 80.1742 18.0584 80.3419 18.2029 80.3419C18.3475 80.3419 18.6823 78.7026 18.6823 77.6109C18.6242 77.6126 18.5882 77.4627 18.5882 77.0422C18.5882 75.5471 17.1796 72.8104 17.1796 67.5647C17.1796 62.3191 18.7806 56.5924 19.1304 54.3254L19.055 53.2686C19.0224 52.669 18.9862 51.2178 18.9862 51.2178L18.5882 50.6783C18.5882 50.6888 18.5882 50.6985 18.5882 50.7092C18.5882 51.7559 16.8307 52.7183 16.8307 56.9052C16.8307 57.9881 15.6753 60.0091 15.6753 64.3886C15.6753 64.6455 15.6776 64.898 15.6815 65.147C15.6827 65.215 15.6849 65.2808 15.6863 65.3482C15.69 65.527 15.6937 65.7055 15.6994 65.8803C15.7022 65.9642 15.7062 66.0455 15.7093 66.1282C15.7153 66.2835 15.7209 66.439 15.7286 66.5912C15.7328 66.6787 15.7382 66.764 15.7428 66.8504C15.7507 66.9947 15.7586 67.1392 15.7677 67.2805C15.7734 67.3672 15.7799 67.4522 15.7858 67.5378C15.7958 67.6764 15.8057 67.8146 15.8165 67.9501C15.8233 68.0331 15.8309 68.1144 15.838 68.1966C15.8496 68.332 15.8615 68.4674 15.8743 68.6C15.8819 68.6782 15.8902 68.755 15.8978 68.8324C15.9117 68.9664 15.9256 69.0998 15.9403 69.2313C15.9486 69.3038 15.9568 69.3752 15.9653 69.4466C15.9809 69.5804 15.997 69.7135 16.0137 69.8444C16.022 69.9104 16.0308 69.9756 16.0393 70.0411C16.0571 70.1759 16.0753 70.3097 16.0943 70.4417C16.1025 70.4998 16.1107 70.5573 16.1192 70.6151C16.1393 70.7525 16.1597 70.8891 16.181 71.0237C16.1886 71.073 16.1963 71.1217 16.2042 71.1704C16.2269 71.3129 16.2502 71.4543 16.2737 71.5934C16.2802 71.6314 16.2867 71.6691 16.2932 71.7068C16.319 71.8575 16.3457 72.0065 16.3723 72.1533C16.3766 72.1771 16.3811 72.2015 16.3857 72.2253C16.4157 72.3893 16.4466 72.5511 16.4775 72.7103C16.4783 72.7149 16.4792 72.7197 16.4803 72.7242C17.068 75.7344 17.7792 77.9152 17.8866 79.8824L17.8877 79.8835Z" fill="white"/>
<path fill-rule="evenodd" clip-rule="evenodd" d="M26.9658 22.2675C26.5754 22.2675 26.1735 22.1485 25.7789 21.9576H25.7783C25.7783 23.3382 26.051 27.3327 26.9658 27.3327C27.8805 27.3327 28.1532 23.3382 28.1532 21.9576H28.1526C27.758 22.1485 27.3561 22.2675 26.9658 22.2675Z" fill="white"/>
<path fill-rule="evenodd" clip-rule="evenodd" d="M19.1305 54.3256C18.7807 56.5922 17.1797 62.3192 17.1797 67.5649C17.1797 72.8102 18.5882 75.5469 18.5882 77.0421C18.5882 78.5372 19.0455 76.6123 19.3105 76.6123C19.575 76.6123 20.5419 78.4469 20.5419 79.5839C20.5419 79.6371 20.5467 79.6672 20.556 79.6765C20.5526 79.6193 20.556 79.5533 20.554 79.4938C20.5489 79.3405 20.5436 79.1872 20.5489 79.0212C20.5506 78.9628 20.5563 78.8999 20.5589 78.8404C20.5679 78.654 20.5779 78.4664 20.5963 78.2698C20.5997 78.2332 20.6048 78.1955 20.6085 78.1587C20.7295 76.946 20.9914 75.6008 21.1454 74.5425C21.1502 74.5122 21.1558 74.4776 21.1601 74.4479C21.1918 74.2232 21.2182 74.0127 21.2361 73.8209C21.3803 72.2818 22.2948 69.1076 22.7384 67.2297C22.7384 67.2297 22.7393 67.2133 22.7407 67.1886C22.7427 67.1569 22.7464 67.0883 22.7518 66.9937C22.7526 66.9792 22.7535 66.958 22.7543 66.9424C22.7588 66.8554 22.7639 66.756 22.7702 66.6302C22.7702 66.627 22.7702 66.6231 22.7705 66.6202C22.7773 66.4794 22.7843 66.3188 22.792 66.1363C22.792 66.1292 22.7923 66.1202 22.7926 66.1131C22.815 65.5611 22.8379 64.8409 22.8481 64.0292C22.8493 63.966 22.849 63.8983 22.8495 63.8342C22.8518 63.62 22.8538 63.4055 22.8538 63.1823C22.8541 62.8919 22.8478 62.2759 22.8478 62.266C22.8478 60.9 21.2772 56.5135 20.666 54.6072C20.5447 54.2287 20.602 54.0873 20.562 53.9334C20.3219 53.0061 18.9859 51.218 18.9859 51.218L19.1305 54.3256Z" fill="white"/>
<path fill-rule="evenodd" clip-rule="evenodd" d="M36.0435 79.8835C36.0435 80.1742 35.8726 80.3419 35.7283 80.3419C35.5837 80.3419 35.2489 78.7026 35.2489 77.6109C35.3068 77.6126 35.343 77.4627 35.343 77.0422C35.343 75.5471 36.7516 72.8104 36.7516 67.5647C36.7516 62.3191 35.1506 56.5924 34.8008 54.3254L34.8762 53.2686C34.9088 52.669 34.9451 51.2178 34.9451 51.2178L35.343 50.6783C35.343 50.6888 35.343 50.6985 35.343 50.7092C35.343 51.7559 37.1005 52.7183 37.1005 56.9052C37.1005 57.9881 38.2559 60.0091 38.2559 64.3886C38.2559 64.6455 38.2537 64.898 38.2497 65.147C38.2486 65.215 38.2463 65.2808 38.2449 65.3482C38.2412 65.527 38.2372 65.7055 38.2316 65.8803C38.229 65.9642 38.225 66.0455 38.2219 66.1282C38.216 66.2835 38.2103 66.439 38.2026 66.5912C38.1984 66.6787 38.193 66.764 38.1882 66.8504C38.1805 66.9947 38.1726 67.1392 38.1635 67.2805C38.1579 67.3672 38.1513 67.4522 38.1451 67.5378C38.1355 67.6764 38.1255 67.8146 38.1145 67.9501C38.108 68.0331 38.1003 68.1144 38.0932 68.1966C38.0816 68.332 38.0697 68.4674 38.0569 68.6C38.0493 68.6782 38.0411 68.755 38.0334 68.8324C38.0195 68.9664 38.0056 69.0998 37.9909 69.2313C37.9827 69.3038 37.9745 69.3752 37.9659 69.4466C37.9501 69.5804 37.9342 69.7135 37.9175 69.8444C37.9093 69.9104 37.9005 69.9756 37.892 70.0411C37.8741 70.1759 37.856 70.3097 37.837 70.4417C37.8287 70.4998 37.8205 70.5573 37.812 70.6151C37.7919 70.7525 37.7712 70.8891 37.7502 71.0237C37.7426 71.073 37.7349 71.1217 37.727 71.1704C37.7043 71.3129 37.6811 71.4543 37.6573 71.5934C37.651 71.6314 37.6445 71.6691 37.638 71.7068C37.6122 71.8575 37.5855 72.0065 37.5589 72.1533C37.5544 72.1771 37.5501 72.2015 37.5456 72.2253C37.5152 72.3893 37.4846 72.5511 37.4537 72.7103C37.4529 72.7149 37.452 72.7197 37.4509 72.7242C36.8633 75.7344 36.1521 77.9152 36.0446 79.8824L36.0435 79.8835Z" fill="white"/>
<path fill-rule="evenodd" clip-rule="evenodd" d="M34.8007 54.3256C35.1505 56.5922 36.7515 62.3192 36.7515 67.5649C36.7515 72.8102 35.343 75.5469 35.343 77.0421C35.343 78.5372 34.8858 76.6123 34.6207 76.6123C34.356 76.6123 33.3894 78.4469 33.3894 79.5839C33.3894 79.6371 33.3843 79.6672 33.3752 79.6765C33.3786 79.6193 33.3752 79.5533 33.3772 79.4938C33.3823 79.3405 33.3877 79.1872 33.3823 79.0212C33.3806 78.9628 33.3749 78.8999 33.3721 78.8404C33.3633 78.654 33.3531 78.4664 33.3349 78.2698C33.3313 78.2332 33.3264 78.1955 33.3225 78.1587C33.2017 76.946 32.9398 75.6008 32.7859 74.5425C32.7811 74.5122 32.7754 74.4776 32.7711 74.4479C32.7394 74.2232 32.713 74.0127 32.6952 73.8209C32.5506 72.2818 31.6364 69.1076 31.1928 67.2297C31.1928 67.2297 31.192 67.2133 31.1905 67.1886C31.1886 67.1569 31.1849 67.0883 31.1795 66.9937C31.1786 66.9792 31.1775 66.958 31.1769 66.9424C31.1724 66.8554 31.167 66.756 31.1611 66.6302C31.1608 66.627 31.1608 66.6231 31.1608 66.6202C31.154 66.4794 31.1469 66.3188 31.1392 66.1363C31.1392 66.1292 31.1389 66.1202 31.1384 66.1131C31.1163 65.5611 31.0933 64.8409 31.0831 64.0292C31.082 63.966 31.0823 63.8983 31.0814 63.8342C31.0794 63.62 31.0771 63.4055 31.0771 63.1823C31.0771 62.8919 31.0834 62.2759 31.0834 62.266C31.0834 60.9 32.6541 56.5135 33.2652 54.6072C33.3865 54.2287 33.3293 54.0873 33.3692 53.9334C33.6093 53.0061 34.9453 51.218 34.9453 51.218L34.8007 54.3256Z" fill="white"/>
<path fill-rule="evenodd" clip-rule="evenodd" d="M12.1968 42.0467C12.1968 41.7886 12.2019 41.5475 12.2073 41.3084C12.201 41.545 12.1968 41.7886 12.1968 42.0467Z" fill="white"/>
<path fill-rule="evenodd" clip-rule="evenodd" d="M13.4289 47.569C13.6735 46.0846 13.9181 45.5485 13.4289 44.6334C12.9396 43.7185 12.6133 44.9779 11.2981 44.6334C11.1365 45.0711 10.982 45.527 10.8644 45.9809C10.5968 47.0154 10.6824 51.9301 10.4888 55.9741H10.4891C10.4891 55.9741 11.5532 53.8627 11.6348 51.7433C11.7162 49.624 13.1842 49.0534 13.4289 47.569Z" fill="white"/>
<path fill-rule="evenodd" clip-rule="evenodd" d="M13.7112 50.1336C13.021 52.2323 12.4966 57.8916 12.4966 57.8916C12.4966 57.8916 16.1949 49.3015 16.3511 47.5689C16.3511 47.5689 14.4015 48.035 13.7112 50.1336Z" fill="white"/>
<path fill-rule="evenodd" clip-rule="evenodd" d="M40.8322 31.3751C40.8322 34.5031 40.5794 34.2144 40.5794 34.7559C38.9906 34.4312 37.9434 33.0596 36.0298 29.8471C34.1158 26.635 32.4907 27.1402 32.4907 26.3822C32.4907 25.8045 33.6101 25.5521 33.9954 24.9746C37.4137 24.9746 40.8322 28.2469 40.8322 31.3751Z" fill="#059669"/>
<path fill-rule="evenodd" clip-rule="evenodd" d="M28.4825 28.4034C28.6948 27.9847 31.7325 26.3821 32.4907 26.3821C32.4907 27.1401 34.1158 26.6349 36.0298 29.847C36.7404 31.0401 37.3314 31.9788 37.8754 32.7047C37.0128 33.1802 37.2935 33.5646 36.4989 34.2506C35.7046 34.9363 33.0687 35.9829 31.4436 35.9829C29.8185 35.9829 27.5596 35.0085 27.5596 35.0085V32.554C27.5596 29.8833 28.1534 29.0531 28.4825 28.4034Z" fill="white"/>
<path fill-rule="evenodd" clip-rule="evenodd" d="M37.2471 31.8073C37.323 31.9221 37.3976 32.0334 37.471 32.141C37.3976 32.0334 37.323 31.9224 37.2471 31.8073Z" fill="white"/>
<path fill-rule="evenodd" clip-rule="evenodd" d="M37.8754 32.7048C37.8266 32.6396 37.7767 32.5702 37.7268 32.5016C38.7127 33.8648 39.5277 34.5408 40.5796 34.7558C40.5796 35.5908 41.735 36.8854 41.735 42.0469C41.735 43.0935 39.2354 44.4399 38.088 42.0469C37.3436 40.4945 37.0635 39.8476 36.8898 39.4665C36.801 39.16 36.7174 38.9789 36.6434 38.9789C36.3909 38.5457 36.4991 34.2507 36.4991 34.2507C37.2934 33.5647 37.0128 33.1802 37.8754 32.7048Z" fill="white"/>
<path fill-rule="evenodd" clip-rule="evenodd" d="M37.6844 32.4451C37.6158 32.3492 37.5464 32.2496 37.4761 32.1468C37.5467 32.2496 37.6158 32.3492 37.6844 32.4451Z" fill="white"/>
<path fill-rule="evenodd" clip-rule="evenodd" d="M40.5027 47.569C40.2581 46.0846 40.0134 45.5485 40.5027 44.6334C40.9919 43.7185 41.3182 44.9779 42.6335 44.6334C42.7951 45.0711 42.9496 45.527 43.0669 45.9809C43.3348 47.0154 43.2492 51.9301 43.4428 55.9741H43.4425C43.4425 55.9741 42.3784 53.8627 42.2967 51.7433C42.2151 49.624 40.7473 49.0534 40.5027 47.569Z" fill="white"/>
<path fill-rule="evenodd" clip-rule="evenodd" d="M40.2205 50.1336C40.9107 52.2323 41.4351 57.8916 41.4351 57.8916C41.4351 57.8916 37.7368 49.3015 37.5806 47.5689C37.5806 47.5689 39.5302 48.035 40.2205 50.1336Z" fill="white"/>
<path fill-rule="evenodd" clip-rule="evenodd" d="M22.2015 14.0445C22.2015 13.6325 21.6111 13.5164 21.2267 13.5164C20.8417 13.5164 20.6938 14.108 20.9897 15.4983C21.2856 16.8889 22.4646 17.2932 22.4646 17.2932L22.2015 14.0445Z" fill="white"/>
<path fill-rule="evenodd" clip-rule="evenodd" d="M31.7299 14.0445C31.7299 13.6325 32.32 13.5164 32.7047 13.5164C33.0896 13.5164 33.2376 14.108 32.9417 15.4983C32.6454 16.8889 31.4668 17.2932 31.4668 17.2932L31.7299 14.0445Z" fill="white"/>
<path fill-rule="evenodd" clip-rule="evenodd" d="M13.0996 31.3751C13.0996 34.5031 13.3525 34.2144 13.3525 34.7559C14.9413 34.4312 15.9884 33.0596 17.9023 29.8471C19.816 26.635 21.4411 27.1402 21.4411 26.3822C21.4411 25.8045 20.3217 25.5521 19.9365 24.9746C16.5182 24.9746 13.0996 28.2469 13.0996 31.3751Z" stroke="#353E82" stroke-width="0.564973" stroke-linejoin="round"/>
<path fill-rule="evenodd" clip-rule="evenodd" d="M25.449 28.4034C25.237 27.9847 22.1991 26.3821 21.4408 26.3821C21.4408 27.1401 19.8157 26.6349 17.9021 29.847C17.1914 31.0401 16.6001 31.9788 16.0562 32.7047H16.0564C16.919 33.1802 16.6381 33.5646 17.4327 34.2506C18.2269 34.9363 20.8631 35.9829 22.488 35.9829C24.1131 35.9829 26.372 35.0085 26.372 35.0085V32.554C26.372 29.8833 25.7784 29.0531 25.449 28.4034Z" stroke="#353E82" stroke-width="0.564973" stroke-linejoin="round"/>
<path fill-rule="evenodd" clip-rule="evenodd" d="M23.1138 40.4854V38.053C23.1138 37.2106 23.4508 36.585 24.0767 36.585C24.7026 36.585 25.9785 36.0558 26.123 36.0558C26.2673 36.0558 26.5564 36.1039 26.5564 36.4048V39.6768C26.5564 40.1519 25.9907 40.1819 25.2083 40.1819C24.7508 40.1819 23.7757 40.5936 23.5713 40.7982C23.3666 41.0028 23.1138 40.7259 23.1138 40.4854Z" stroke="#353E82" stroke-width="0.564973" stroke-linejoin="round"/>
<path fill-rule="evenodd" clip-rule="evenodd" d="M26.5564 41.815C26.5564 41.4541 26.3881 41.1653 25.9546 41.1653H24.8471C24.4137 41.1653 23.186 41.9111 23.186 42.5848V44.1522C23.186 44.465 23.3306 44.6333 23.7158 44.6333H25.401C25.6176 44.6333 26.5564 44.2001 26.5564 43.5986V41.815Z" stroke="#353E82" stroke-width="0.564973" stroke-linejoin="round"/>
<path fill-rule="evenodd" clip-rule="evenodd" d="M23.084 47.9119V46.1221C23.084 45.8153 23.2464 45.382 23.7158 45.382H25.6658C25.9546 45.382 26.5326 45.743 26.5326 46.1402V47.9119C26.5326 48.1825 26.4062 48.6517 26.0992 48.6517H24.077C23.7518 48.6517 23.084 48.3449 23.084 47.9119Z" stroke="#353E82" stroke-width="0.564973" stroke-linejoin="round"/>
<path fill-rule="evenodd" clip-rule="evenodd" d="M26.0028 49.5177H24.0047C23.6195 49.5177 23.186 49.8305 23.186 50.1915C23.186 50.5525 24.9676 58.4934 26.364 58.4934H26.5323C26.6049 56.6186 26.5323 50.5122 26.5323 50.1915C26.5323 49.8064 26.4601 49.5177 26.0028 49.5177Z" stroke="#353E82" stroke-width="0.564973" stroke-linejoin="round"/>
<path fill-rule="evenodd" clip-rule="evenodd" d="M30.8174 40.4854V38.053C30.8174 37.2106 30.4804 36.585 29.8545 36.585C29.2286 36.585 27.9527 36.0558 27.8081 36.0558C27.6639 36.0558 27.375 36.1039 27.375 36.4048V39.6768C27.375 40.1519 27.9408 40.1819 28.7232 40.1819C29.1804 40.1819 30.1555 40.5936 30.3602 40.7982C30.5645 41.0028 30.8174 40.7259 30.8174 40.4854Z" stroke="#353E82" stroke-width="0.564973" stroke-linejoin="round"/>
<path fill-rule="evenodd" clip-rule="evenodd" d="M27.375 41.815C27.375 41.4541 27.5434 41.1653 27.9768 41.1653H29.084C29.5174 41.1653 30.7454 41.9111 30.7454 42.5848V44.1522C30.7454 44.465 30.6008 44.6333 30.2156 44.6333H28.5304C28.3138 44.6333 27.375 44.2001 27.375 43.5986V41.815Z" stroke="#353E82" stroke-width="0.564973" stroke-linejoin="round"/>
<path fill-rule="evenodd" clip-rule="evenodd" d="M30.8476 47.9119V46.1221C30.8476 45.8153 30.6851 45.382 30.2157 45.382H28.2658C27.9769 45.382 27.3989 45.743 27.3989 46.1402V47.9119C27.3989 48.1825 27.5254 48.6517 27.8323 48.6517H29.8546C30.1794 48.6517 30.8476 48.3449 30.8476 47.9119Z" stroke="#353E82" stroke-width="0.564973" stroke-linejoin="round"/>
<path fill-rule="evenodd" clip-rule="evenodd" d="M27.9285 49.5177H29.9266C30.3118 49.5177 30.7453 49.8305 30.7453 50.1915C30.7453 50.5525 28.9637 58.4934 27.5673 58.4934H27.399C27.3264 56.6186 27.399 50.5122 27.399 50.1915C27.399 49.8064 27.471 49.5177 27.9285 49.5177Z" stroke="#353E82" stroke-width="0.564973" stroke-linejoin="round"/>
<path fill-rule="evenodd" clip-rule="evenodd" d="M16.6844 31.8073V31.8073C16.6084 31.9221 16.5342 32.0334 16.4604 32.141C16.5342 32.0334 16.6084 31.9224 16.6844 31.8073Z" stroke="#353E82" stroke-width="0.564973" stroke-linejoin="round"/>
<path fill-rule="evenodd" clip-rule="evenodd" d="M16.0564 32.7048V32.7048C16.1052 32.6396 16.1551 32.5702 16.2047 32.5016C15.2191 33.8648 14.4041 34.5408 13.3522 34.7558C13.3522 35.5908 12.1968 36.8854 12.1968 42.0469C12.1968 43.0935 14.6964 44.4399 15.8438 42.0469C16.5882 40.4945 16.868 39.8476 17.042 39.4665C17.1305 39.16 17.2144 38.9789 17.2884 38.9789C17.5409 38.5457 17.4327 34.2507 17.4327 34.2507C16.6384 33.5647 16.919 33.1802 16.0564 32.7048Z" stroke="#353E82" stroke-width="0.564973" stroke-linejoin="round"/>
<path fill-rule="evenodd" clip-rule="evenodd" d="M16.2471 32.4451C16.3157 32.3492 16.3848 32.2496 16.4551 32.1468C16.3848 32.2496 16.3157 32.3492 16.2471 32.4451Z" stroke="#353E82" stroke-width="0.564973" stroke-linejoin="round"/>
<path fill-rule="evenodd" clip-rule="evenodd" d="M26.9658 7.00003C23.6972 7.00003 22.063 9.89003 22.063 11.3979C22.063 12.9058 22.6285 19.1261 22.6285 19.1261C22.6285 19.1261 24.9543 22.2674 26.9658 22.2674C28.9773 22.2674 31.3031 19.1261 31.3031 19.1261C31.3031 19.1261 31.8686 12.9058 31.8686 11.3979C31.8686 9.89003 30.2344 7.00003 26.9658 7.00003Z" stroke="#353E82" stroke-width="0.564973" stroke-linejoin="round"/>
<path fill-rule="evenodd" clip-rule="evenodd" d="M31.7081 52.3334C31.7081 49.6624 32.4063 49.8789 32.4063 48.4594C32.4063 45.4997 31.7081 42.9732 31.7081 41.6497C31.7081 40.3263 31.8283 35.9831 31.8283 35.9831L31.7716 35.97C31.6585 35.9785 31.5488 35.9831 31.4431 35.9831C29.8183 35.9831 27.5593 35.0087 27.5593 35.0087H26.9658H26.3719C26.3719 35.0087 24.113 35.9831 22.4879 35.9831C22.3827 35.9831 22.2727 35.9785 22.1596 35.97L22.1026 35.9831C22.1026 35.9831 22.2231 40.3263 22.2231 41.6497C22.2231 42.9732 21.5249 45.4997 21.5249 48.4594C21.5249 49.8789 22.2231 49.6624 22.2231 52.3334C22.2231 53.2718 21.5008 53.9333 20.562 53.9333C20.562 56.0872 25.6176 60.1296 26.9658 60.1296C28.3136 60.1296 33.3692 56.0872 33.3692 53.9333C32.4301 53.9333 31.7081 53.2718 31.7081 52.3334Z" stroke="#353E82" stroke-width="0.564973" stroke-linejoin="round"/>
<path d="M33.3691 53.9335C33.995 52.3094 35.3432 50.7092 35.3432 50.7092" stroke="#353E82" stroke-width="0.564973" stroke-linejoin="round"/>
<path fill-rule="evenodd" clip-rule="evenodd" d="M17.8877 79.8835C17.8877 80.1742 18.0584 80.3419 18.2029 80.3419C18.3475 80.3419 18.6823 78.7026 18.6823 77.6109C18.6242 77.6126 18.5882 77.4627 18.5882 77.0422C18.5882 75.5471 17.1796 72.8104 17.1796 67.5647C17.1796 62.3191 18.7806 56.5924 19.1304 54.3254L19.055 53.2686C19.0224 52.669 18.9862 51.2178 18.9862 51.2178L18.5882 50.6783C18.5882 50.6888 18.5882 50.6985 18.5882 50.7092C18.5882 51.7559 16.8307 52.7183 16.8307 56.9052C16.8307 57.9881 15.6753 60.0091 15.6753 64.3886C15.6753 64.6455 15.6776 64.898 15.6815 65.147C15.6827 65.215 15.6849 65.2808 15.6863 65.3482C15.69 65.527 15.6937 65.7055 15.6994 65.8803C15.7022 65.9642 15.7062 66.0455 15.7093 66.1282C15.7153 66.2835 15.7209 66.439 15.7286 66.5912C15.7328 66.6787 15.7382 66.764 15.7428 66.8504C15.7507 66.9947 15.7586 67.1392 15.7677 67.2805C15.7734 67.3672 15.7799 67.4522 15.7858 67.5378C15.7958 67.6764 15.8057 67.8146 15.8165 67.9501C15.8233 68.0331 15.8309 68.1144 15.838 68.1966C15.8496 68.332 15.8615 68.4674 15.8743 68.6C15.8819 68.6782 15.8902 68.755 15.8978 68.8324C15.9117 68.9664 15.9256 69.0998 15.9403 69.2313C15.9486 69.3038 15.9568 69.3752 15.9653 69.4466C15.9809 69.5804 15.997 69.7135 16.0137 69.8444C16.022 69.9104 16.0308 69.9756 16.0393 70.0411C16.0571 70.1759 16.0753 70.3097 16.0943 70.4417C16.1025 70.4998 16.1107 70.5573 16.1192 70.6151C16.1393 70.7525 16.1597 70.8891 16.181 71.0237C16.1886 71.073 16.1963 71.1217 16.2042 71.1704C16.2269 71.3129 16.2502 71.4543 16.2737 71.5934C16.2802 71.6314 16.2867 71.6691 16.2932 71.7068C16.319 71.8575 16.3457 72.0065 16.3723 72.1533C16.3766 72.1771 16.3811 72.2015 16.3857 72.2253C16.4157 72.3893 16.4466 72.5511 16.4775 72.7103C16.4783 72.7149 16.4792 72.7197 16.4803 72.7242C17.068 75.7344 17.7792 77.9152 17.8866 79.8824L17.8877 79.8835Z" stroke="#353E82" stroke-width="0.564973" stroke-linejoin="round"/>
<path fill-rule="evenodd" clip-rule="evenodd" d="M26.9658 22.2675C26.5754 22.2675 26.1735 22.1485 25.7789 21.9576H25.7783C25.7783 23.3382 26.051 27.3327 26.9658 27.3327C27.8805 27.3327 28.1532 23.3382 28.1532 21.9576H28.1526C27.758 22.1485 27.3561 22.2675 26.9658 22.2675Z" stroke="#353E82" stroke-width="0.564973" stroke-linejoin="round"/>
<path fill-rule="evenodd" clip-rule="evenodd" d="M19.1305 54.3256C18.7807 56.5922 17.1797 62.3192 17.1797 67.5649C17.1797 72.8102 18.5882 75.5469 18.5882 77.0421C18.5882 78.5372 19.0455 76.6123 19.3105 76.6123C19.575 76.6123 20.5419 78.4469 20.5419 79.5839C20.5419 79.6371 20.5467 79.6672 20.556 79.6765C20.5526 79.6193 20.556 79.5533 20.554 79.4938C20.5489 79.3405 20.5436 79.1872 20.5489 79.0212C20.5506 78.9628 20.5563 78.8999 20.5589 78.8404C20.5679 78.654 20.5779 78.4664 20.5963 78.2698C20.5997 78.2332 20.6048 78.1955 20.6085 78.1587C20.7295 76.946 20.9914 75.6008 21.1454 74.5425C21.1502 74.5122 21.1558 74.4776 21.1601 74.4479C21.1918 74.2232 21.2182 74.0127 21.2361 73.8209C21.3803 72.2818 22.2948 69.1076 22.7384 67.2297C22.7384 67.2297 22.7393 67.2133 22.7407 67.1886C22.7427 67.1569 22.7464 67.0883 22.7518 66.9937C22.7526 66.9792 22.7535 66.958 22.7543 66.9424C22.7588 66.8554 22.7639 66.756 22.7702 66.6302C22.7702 66.627 22.7702 66.6231 22.7705 66.6202C22.7773 66.4794 22.7843 66.3188 22.792 66.1363C22.792 66.1292 22.7923 66.1202 22.7926 66.1131C22.815 65.5611 22.8379 64.8409 22.8481 64.0292C22.8493 63.966 22.849 63.8983 22.8495 63.8342C22.8518 63.62 22.8538 63.4055 22.8538 63.1823C22.8541 62.8919 22.8478 62.2759 22.8478 62.266C22.8478 60.9 21.2772 56.5135 20.666 54.6072C20.5447 54.2287 20.602 54.0873 20.562 53.9334C20.3219 53.0061 18.9859 51.218 18.9859 51.218L19.1305 54.3256Z" stroke="#353E82" stroke-width="0.564973" stroke-linejoin="round"/>
<path fill-rule="evenodd" clip-rule="evenodd" d="M36.0435 79.8835C36.0435 80.1742 35.8726 80.3419 35.7283 80.3419C35.5837 80.3419 35.2489 78.7026 35.2489 77.6109C35.3068 77.6126 35.343 77.4627 35.343 77.0422C35.343 75.5471 36.7516 72.8104 36.7516 67.5647C36.7516 62.3191 35.1506 56.5924 34.8008 54.3254L34.8762 53.2686C34.9088 52.669 34.9451 51.2178 34.9451 51.2178L35.343 50.6783C35.343 50.6888 35.343 50.6985 35.343 50.7092C35.343 51.7559 37.1005 52.7183 37.1005 56.9052C37.1005 57.9881 38.2559 60.0091 38.2559 64.3886C38.2559 64.6455 38.2537 64.898 38.2497 65.147C38.2486 65.215 38.2463 65.2808 38.2449 65.3482C38.2412 65.527 38.2372 65.7055 38.2316 65.8803C38.229 65.9642 38.225 66.0455 38.2219 66.1282C38.216 66.2835 38.2103 66.439 38.2026 66.5912C38.1984 66.6787 38.193 66.764 38.1882 66.8504C38.1805 66.9947 38.1726 67.1392 38.1635 67.2805C38.1579 67.3672 38.1513 67.4522 38.1451 67.5378C38.1355 67.6764 38.1255 67.8146 38.1145 67.9501C38.108 68.0331 38.1003 68.1144 38.0932 68.1966C38.0816 68.332 38.0697 68.4674 38.0569 68.6C38.0493 68.6782 38.0411 68.755 38.0334 68.8324C38.0195 68.9664 38.0056 69.0998 37.9909 69.2313C37.9827 69.3038 37.9745 69.3752 37.9659 69.4466C37.9501 69.5804 37.9342 69.7135 37.9175 69.8444C37.9093 69.9104 37.9005 69.9756 37.892 70.0411C37.8741 70.1759 37.856 70.3097 37.837 70.4417C37.8287 70.4998 37.8205 70.5573 37.812 70.6151C37.7919 70.7525 37.7712 70.8891 37.7502 71.0237C37.7426 71.073 37.7349 71.1217 37.727 71.1704C37.7043 71.3129 37.6811 71.4543 37.6573 71.5934C37.651 71.6314 37.6445 71.6691 37.638 71.7068C37.6122 71.8575 37.5855 72.0065 37.5589 72.1533C37.5544 72.1771 37.5501 72.2015 37.5456 72.2253C37.5152 72.3893 37.4846 72.5511 37.4537 72.7103C37.4529 72.7149 37.452 72.7197 37.4509 72.7242C36.8633 75.7344 36.1521 77.9152 36.0446 79.8824L36.0435 79.8835Z" stroke="#353E82" stroke-width="0.564973" stroke-linejoin="round"/>
<path fill-rule="evenodd" clip-rule="evenodd" d="M34.8007 54.3256C35.1505 56.5922 36.7515 62.3192 36.7515 67.5649C36.7515 72.8102 35.343 75.5469 35.343 77.0421C35.343 78.5372 34.8858 76.6123 34.6207 76.6123C34.356 76.6123 33.3894 78.4469 33.3894 79.5839C33.3894 79.6371 33.3843 79.6672 33.3752 79.6765C33.3786 79.6193 33.3752 79.5533 33.3772 79.4938C33.3823 79.3405 33.3877 79.1872 33.3823 79.0212C33.3806 78.9628 33.3749 78.8999 33.3721 78.8404C33.3633 78.654 33.3531 78.4664 33.3349 78.2698C33.3313 78.2332 33.3264 78.1955 33.3225 78.1587C33.2017 76.946 32.9398 75.6008 32.7859 74.5425C32.7811 74.5122 32.7754 74.4776 32.7711 74.4479C32.7394 74.2232 32.713 74.0127 32.6952 73.8209C32.5506 72.2818 31.6364 69.1076 31.1928 67.2297C31.1928 67.2297 31.192 67.2133 31.1905 67.1886C31.1886 67.1569 31.1849 67.0883 31.1795 66.9937C31.1786 66.9792 31.1775 66.958 31.1769 66.9424C31.1724 66.8554 31.167 66.756 31.1611 66.6302C31.1608 66.627 31.1608 66.6231 31.1608 66.6202C31.154 66.4794 31.1469 66.3188 31.1392 66.1363C31.1392 66.1292 31.1389 66.1202 31.1384 66.1131C31.1163 65.5611 31.0933 64.8409 31.0831 64.0292C31.082 63.966 31.0823 63.8983 31.0814 63.8342C31.0794 63.62 31.0771 63.4055 31.0771 63.1823C31.0771 62.8919 31.0834 62.2759 31.0834 62.266C31.0834 60.9 32.6541 56.5135 33.2652 54.6072C33.3865 54.2287 33.3293 54.0873 33.3692 53.9334C33.6093 53.0061 34.9453 51.218 34.9453 51.218L34.8007 54.3256Z" stroke="#353E82" stroke-width="0.564973" stroke-linejoin="round"/>
<path fill-rule="evenodd" clip-rule="evenodd" d="M12.1968 42.0467C12.1968 41.7886 12.2019 41.5475 12.2073 41.3084C12.201 41.545 12.1968 41.7886 12.1968 42.0467Z" stroke="#353E82" stroke-width="0.564973" stroke-linejoin="round"/>
<path fill-rule="evenodd" clip-rule="evenodd" d="M44.8501 61.8141C44.5944 61.2055 44.1454 59.2961 44.017 57.7103C43.6743 53.4835 43.3766 47.1768 43.0671 45.9809C42.6416 44.3361 41.7348 42.6364 41.7348 42.0465C41.7348 36.8853 40.5794 35.5908 40.5794 34.7558C40.5794 34.2143 40.832 34.503 40.832 31.375C40.832 28.247 37.4137 24.9745 33.9951 24.9745L30.6729 22.9051V19.9216H30.6423C29.8075 20.852 28.3162 22.2676 26.9657 22.2676C25.6153 22.2676 24.124 20.852 23.2892 19.9216H23.2586V22.9051L19.9364 24.9745C16.5178 24.9745 13.0995 28.247 13.0995 31.375C13.0995 34.503 13.3524 34.2143 13.3524 34.7558C13.3524 35.5908 12.1967 36.8853 12.1967 42.0465C12.1967 42.6364 11.2896 44.3361 10.8641 45.9809C10.5548 47.1768 10.2575 53.4835 9.91478 57.7103C9.78608 59.2961 9.33736 61.2055 9.08139 61.8141C8.48385 63.2356 11.3661 65.413 11.5589 65.4904C11.8078 65.5909 11.8925 65.0914 11.977 64.8965C12.3237 64.0944 11.0333 63.141 11.1164 62.5842C11.2164 61.915 11.3346 60.7397 11.7995 60.9273C12.2647 61.1148 12.422 62.1805 12.8869 62.368C13.3518 62.5556 13.5513 62.4309 13.6936 62.0785C13.777 61.8719 13.2486 60.5788 12.7744 59.3647C12.4393 58.5068 12.4966 57.8916 12.4966 57.8916C12.4966 57.8916 16.1949 49.3015 16.3511 47.569C16.8537 46.7711 16.6201 46.3716 16.6845 45.793C16.9421 43.4705 16.9453 38.9786 17.2883 38.9786C17.6134 38.9786 17.6494 40.3865 17.6494 41.2526C17.6494 43.2379 19.1299 43.3099 19.1299 45.9809C19.1299 48.0019 18.5882 47.172 18.5882 50.7091C18.5882 51.7558 16.8307 52.7183 16.8307 56.9051C16.8307 57.988 15.6753 60.009 15.6753 64.3885C15.6753 72.7621 17.9022 76.8407 17.9022 80.3781C17.9022 84.1677 17.216 83.843 17.216 88.2463C17.216 92.6498 19.9605 98.2802 19.9605 101.348C19.9605 108.098 17.7217 106.365 17.7217 107.917C17.7217 108.326 18.1548 108.591 18.1548 108.591L21.9827 109H23.9565L24.5586 108.278C24.5586 108.278 24.0288 107.364 24.0288 106.883C24.0288 106.401 24.2935 105.463 24.2935 104.885C24.2935 104.308 23.5474 102.287 23.5474 100.458C23.5474 98.6293 23.4992 93.3715 23.4992 93.3715C23.4992 93.3715 23.6798 91.6392 23.6798 89.8344C23.6798 88.0298 22.5604 87.1274 22.5604 86.3335C22.5604 85.5393 25.7741 79.7644 25.7741 73.3398C25.7741 69.9109 26.6046 64.1357 26.6046 60.1294H26.9657H27.3269C27.3269 64.1357 28.1574 69.9109 28.1574 73.3398C28.1574 79.7644 31.3713 85.5393 31.3713 86.3335C31.3713 87.1274 30.2517 88.0298 30.2517 89.8344C30.2517 91.6392 30.4322 93.3715 30.4322 93.3715C30.4322 93.3715 30.3843 98.6293 30.3843 100.458C30.3843 102.287 29.638 104.308 29.638 104.885C29.638 105.463 29.9027 106.401 29.9027 106.883C29.9027 107.364 29.3732 108.278 29.3732 108.278L29.975 109H31.949L35.7767 108.591C35.7767 108.591 36.2101 108.326 36.2101 107.917C36.2101 106.365 33.9713 108.098 33.9713 101.348C33.9713 98.2802 36.7155 92.6498 36.7155 88.2463C36.7155 83.843 36.0292 84.1677 36.0292 80.3781C36.0292 76.8407 38.2561 72.7621 38.2561 64.3885C38.2561 60.009 37.1007 57.988 37.1007 56.9051C37.1007 52.7183 35.3432 51.7558 35.3432 50.7091C35.3432 47.172 34.8015 48.0019 34.8015 45.9809C34.8015 43.3099 36.2821 43.2379 36.2821 41.2526C36.2821 40.3865 36.3184 38.9786 36.6432 38.9786C36.9862 38.9786 36.9893 43.4705 37.247 45.793C37.3113 46.3716 37.0778 46.7711 37.5804 47.569C37.7368 49.3015 41.4352 57.8916 41.4352 57.8916C41.4352 57.8916 41.4922 58.5068 41.1574 59.3647C40.6832 60.5788 40.1545 61.8719 40.2378 62.0785C40.3801 62.4309 40.5797 62.5556 41.0446 62.368C41.5097 62.1805 41.6671 61.1148 42.1319 60.9273C42.5968 60.7397 42.7153 61.915 42.8151 62.5842C42.8984 63.141 41.6078 64.0944 41.9545 64.8965C42.039 65.0914 42.124 65.5909 42.3729 65.4904C42.5651 65.413 45.4476 63.2356 44.8501 61.8141Z" stroke="#353E82" stroke-width="0.564973" stroke-linejoin="round"/>
<path fill-rule="evenodd" clip-rule="evenodd" d="M13.4289 47.569C13.6735 46.0846 13.9181 45.5485 13.4289 44.6334C12.9396 43.7185 12.6133 44.9779 11.2981 44.6334C11.1365 45.0711 10.982 45.527 10.8644 45.9809C10.5968 47.0154 10.6824 51.9301 10.4888 55.9741H10.4891C10.4891 55.9741 11.5532 53.8627 11.6348 51.7433C11.7162 49.624 13.1842 49.0534 13.4289 47.569Z" stroke="#353E82" stroke-width="0.564973" stroke-linejoin="round"/>
<path fill-rule="evenodd" clip-rule="evenodd" d="M13.7112 50.1336C13.021 52.2323 12.4966 57.8916 12.4966 57.8916C12.4966 57.8916 16.1949 49.3015 16.3511 47.5689C16.3511 47.5689 14.4015 48.035 13.7112 50.1336Z" stroke="#353E82" stroke-width="0.564973" stroke-linejoin="round"/>
<path fill-rule="evenodd" clip-rule="evenodd" d="M40.8322 31.3751C40.8322 34.5031 40.5794 34.2144 40.5794 34.7559C38.9906 34.4312 37.9434 33.0596 36.0298 29.8471C34.1158 26.635 32.4907 27.1402 32.4907 26.3822C32.4907 25.8045 33.6101 25.5521 33.9954 24.9746C37.4137 24.9746 40.8322 28.2469 40.8322 31.3751Z" stroke="#353E82" stroke-width="0.564973" stroke-linejoin="round"/>
<path fill-rule="evenodd" clip-rule="evenodd" d="M28.4825 28.4034C28.6948 27.9847 31.7325 26.3821 32.4907 26.3821C32.4907 27.1401 34.1158 26.6349 36.0298 29.847C36.7404 31.0401 37.3314 31.9788 37.8754 32.7047C37.0128 33.1802 37.2935 33.5646 36.4989 34.2506C35.7046 34.9363 33.0687 35.9829 31.4436 35.9829C29.8185 35.9829 27.5596 35.0085 27.5596 35.0085V32.554C27.5596 29.8833 28.1534 29.0531 28.4825 28.4034Z" stroke="#353E82" stroke-width="0.564973" stroke-linejoin="round"/>
<path fill-rule="evenodd" clip-rule="evenodd" d="M37.2471 31.8073V31.8073C37.323 31.9221 37.3976 32.0334 37.471 32.141C37.3976 32.0334 37.323 31.9224 37.2471 31.8073Z" stroke="#353E82" stroke-width="0.564973" stroke-linejoin="round"/>
<path fill-rule="evenodd" clip-rule="evenodd" d="M37.8754 32.7048V32.7048C37.8266 32.6396 37.7767 32.5702 37.7268 32.5016C38.7127 33.8648 39.5277 34.5408 40.5796 34.7558C40.5796 35.5908 41.735 36.8854 41.735 42.0469C41.735 43.0935 39.2354 44.4399 38.088 42.0469C37.3436 40.4945 37.0635 39.8476 36.8898 39.4665C36.801 39.16 36.7174 38.9789 36.6434 38.9789C36.3909 38.5457 36.4991 34.2507 36.4991 34.2507C37.2934 33.5647 37.0128 33.1802 37.8754 32.7048Z" stroke="#353E82" stroke-width="0.564973" stroke-linejoin="round"/>
<path fill-rule="evenodd" clip-rule="evenodd" d="M37.6844 32.4451C37.6158 32.3492 37.5464 32.2496 37.4761 32.1468C37.5467 32.2496 37.6158 32.3492 37.6844 32.4451Z" stroke="#353E82" stroke-width="0.564973" stroke-linejoin="round"/>
<path fill-rule="evenodd" clip-rule="evenodd" d="M40.5027 47.569C40.2581 46.0846 40.0134 45.5485 40.5027 44.6334C40.9919 43.7185 41.3182 44.9779 42.6335 44.6334C42.7951 45.0711 42.9496 45.527 43.0669 45.9809C43.3348 47.0154 43.2492 51.9301 43.4428 55.9741H43.4425C43.4425 55.9741 42.3784 53.8627 42.2967 51.7433C42.2151 49.624 40.7473 49.0534 40.5027 47.569Z" stroke="#353E82" stroke-width="0.564973" stroke-linejoin="round"/>
<path fill-rule="evenodd" clip-rule="evenodd" d="M40.2205 50.1336C40.9107 52.2323 41.4351 57.8916 41.4351 57.8916C41.4351 57.8916 37.7368 49.3015 37.5806 47.5689C37.5806 47.5689 39.5302 48.035 40.2205 50.1336Z" stroke="#353E82" stroke-width="0.564973" stroke-linejoin="round"/>
<path fill-rule="evenodd" clip-rule="evenodd" d="M22.2015 14.0445C22.2015 13.6325 21.6111 13.5164 21.2267 13.5164C20.8417 13.5164 20.6938 14.108 20.9897 15.4983C21.2856 16.8889 22.4646 17.2932 22.4646 17.2932L22.2015 14.0445Z" stroke="#353E82" stroke-width="0.564973" stroke-linejoin="round"/>
<path fill-rule="evenodd" clip-rule="evenodd" d="M31.7299 14.0445C31.7299 13.6325 32.32 13.5164 32.7047 13.5164C33.0896 13.5164 33.2376 14.108 32.9417 15.4983C32.6454 16.8889 31.4668 17.2932 31.4668 17.2932L31.7299 14.0445Z" stroke="#353E82" stroke-width="0.564973" stroke-linejoin="round"/>
<mask id="mask1_23_15200" style="mask-type:luminance" maskUnits="userSpaceOnUse" x="0" y="0" width="53" height="53">
<rect width="53" height="53" rx="6" fill="white"/>
</mask>
<g mask="url(#mask1_23_15200)">
</g>
</g>
</g>
<defs>
<linearGradient id="paint0_linear_23_15200" x1="16.0448" y1="32.0897" x2="16.0448" y2="53" gradientUnits="userSpaceOnUse">
<stop stop-color="#F6F6F8" stop-opacity="0.01"/>
<stop offset="1" stop-color="#F6F6F8"/>
</linearGradient>
<clipPath id="clip0_23_15200">
<rect width="53" height="53" fill="white"/>
</clipPath>
</defs>
</svg>
