<svg width="53" height="53" viewBox="0 0 53 53" fill="none" xmlns="http://www.w3.org/2000/svg">
<g clip-path="url(#clip0_0_3927)">
<mask id="mask0_0_3927" style="mask-type:luminance" maskUnits="userSpaceOnUse" x="0" y="0" width="53" height="53">
<rect width="53" height="53" rx="6" fill="white"/>
</mask>
<g mask="url(#mask0_0_3927)">
<path fill-rule="evenodd" clip-rule="evenodd" d="M44.8299 55.3882C44.2237 53.8839 43.4342 52.8799 43.3179 51.4402C43.2017 50.0004 42.1942 45.6675 41.8179 44.2162C41.4414 42.765 39.5652 39.8264 39.5652 39.3061C39.5652 34.7515 39.0332 32.0234 39.0332 31.2867C39.0332 30.8087 39.2569 31.0635 39.2569 28.3032C39.2569 26.318 37.6927 24.2669 35.6897 23.2717C35.6852 23.2694 35.6809 23.2677 35.6764 23.2654C35.5882 23.2218 35.4992 23.1804 35.4094 23.141C35.3797 23.1281 35.3494 23.1161 35.3194 23.1036C35.2542 23.0762 35.1889 23.0493 35.1229 23.0241C35.0867 23.0101 35.0502 22.9977 35.0137 22.9845C34.9534 22.9628 34.8929 22.9418 34.8319 22.9219C34.7929 22.9094 34.7534 22.8975 34.7142 22.8857C34.6552 22.868 34.5959 22.8511 34.5364 22.8351C34.4962 22.8244 34.4557 22.8142 34.4152 22.8045C34.3557 22.79 34.2959 22.7768 34.2362 22.7646C34.1957 22.7561 34.1554 22.7479 34.1149 22.7404C34.0537 22.7292 33.9919 22.7197 33.9302 22.7107C33.8914 22.705 33.8527 22.6985 33.8137 22.6938C33.7464 22.6856 33.6787 22.6796 33.6112 22.6741C33.5779 22.6713 33.5449 22.6674 33.5119 22.6654C33.4114 22.6591 33.3107 22.6554 33.2099 22.6554V22.6554L29.5579 20.5096L29.7257 18.9023C29.7257 18.9023 28.9084 16.3778 26.9924 16.3778C25.0767 16.3778 24.2592 18.9023 24.2592 18.9023L24.4272 20.5096L20.7752 22.6554V22.6554C20.6744 22.6554 20.5737 22.6591 20.4732 22.6654C20.4399 22.6674 20.4069 22.6713 20.3739 22.6741C20.3062 22.6796 20.2387 22.6856 20.1712 22.6938C20.1324 22.6985 20.0937 22.705 20.0547 22.7107C19.9932 22.7197 19.9314 22.7292 19.8699 22.7404C19.8297 22.7479 19.7892 22.7561 19.7487 22.7646C19.6892 22.7768 19.6294 22.79 19.5699 22.8045C19.5294 22.8142 19.4889 22.8244 19.4487 22.8351C19.3892 22.8511 19.3299 22.868 19.2709 22.8857C19.2314 22.8975 19.1922 22.9094 19.1529 22.9219C19.0922 22.9418 19.0317 22.9628 18.9712 22.9845C18.9347 22.9977 18.8982 23.0101 18.8619 23.0241C18.7962 23.0493 18.7309 23.0762 18.6654 23.1036C18.6357 23.1161 18.6054 23.1281 18.5757 23.141C18.4859 23.1804 18.3969 23.2218 18.3087 23.2654C18.3042 23.2677 18.2997 23.2694 18.2952 23.2717H18.2954C16.2922 24.2669 14.7282 26.318 14.7282 28.3032C14.7282 31.0635 14.9517 30.8087 14.9517 31.2867C14.9517 32.0234 14.4199 34.7515 14.4199 39.3061C14.4199 39.8264 12.5434 42.765 12.1672 44.2162C11.7909 45.6675 10.7834 50.0004 10.6672 51.4402C10.5509 52.8799 9.76142 53.8839 9.15517 55.3882C8.35842 57.3647 10.8802 58.446 11.0622 58.5193C11.2977 58.614 11.5617 58.6113 11.6414 58.4273C11.9694 57.6704 10.2382 56.6662 10.5487 56.1177C10.8634 55.5617 11.4007 54.9377 11.8404 55.1147C12.2802 55.2917 12.0694 56.6841 12.5094 56.8611C12.9492 57.0381 13.1377 56.9205 13.2724 56.5879C13.4072 56.2553 13.3444 53.6563 12.6772 53.3878C13.0124 52.9298 13.2257 52.6139 13.2257 52.6139C13.2257 52.6139 14.9612 49.8581 15.7277 48.7753C16.4942 47.6923 17.8637 43.6134 18.0019 42.0844C18.3959 41.5113 17.9444 40.9244 18.1157 40.4402C18.7982 38.5123 18.7649 36.3284 19.0684 36.3284C19.3559 36.3284 20.0619 38.8349 20.0619 41.1919C20.0619 42.9754 19.5829 42.243 19.5829 45.3641C19.5829 46.2877 18.0284 47.1371 18.0284 50.8316C18.0284 51.7872 17.0067 53.5708 17.0067 57.4353C17.0067 64.8245 20.3142 69.4875 20.3142 72.6089C20.3142 75.9531 19.4044 74.9982 19.4044 78.8837C19.4044 82.7694 22.0579 87.857 22.0579 90.5642C22.0579 96.0076 18.6464 93.097 18.6464 94.7601C18.6464 95.1213 19.5942 95.6297 19.5942 95.6297L22.1624 96.6359L23.8774 96.8014C24.6387 96.8014 25.3559 96.5369 25.3559 95.2138C25.3559 94.7893 25.3179 93.72 25.3179 93.2104C25.3179 92.7008 24.7492 91.2329 24.7492 89.6194C24.7492 88.0056 24.8629 83.4577 24.8629 83.4577C24.8629 83.4577 25.6589 81.2324 25.6589 79.6398C25.6589 78.0473 24.7872 75.5397 24.7872 74.8392C24.7872 74.1384 25.9387 72.3441 25.9387 65.3338C25.9387 62.3082 26.6732 57.2121 26.6732 53.677H26.9924H27.3119C27.3119 57.2121 28.0464 62.3082 28.0464 65.3338C28.0464 72.3441 29.1979 74.1384 29.1979 74.8392C29.1979 75.5397 28.3259 78.0473 28.3259 79.6398C28.3259 81.2324 29.1219 83.4577 29.1219 83.4577C29.1219 83.4577 29.2357 88.0056 29.2357 89.6194C29.2357 91.2329 28.6672 92.7008 28.6672 93.2104C28.6672 93.72 28.6292 94.7893 28.6292 95.2138C28.6292 96.5369 29.3462 96.8014 30.1074 96.8014L31.8227 96.6359L34.3909 95.6297C34.3909 95.6297 35.3387 95.1213 35.3387 94.7601C35.3387 93.097 31.9269 96.0076 31.9269 90.5642C31.9269 87.857 34.5804 82.7694 34.5804 78.8837C34.5804 74.9982 33.6707 75.9531 33.6707 72.6089C33.6707 69.4875 36.9784 64.8245 36.9784 57.4353C36.9784 53.5708 35.9564 51.7872 35.9564 50.8316C35.9564 47.1371 34.4022 46.2877 34.4022 45.3641C34.4022 42.243 33.9232 42.9754 33.9232 41.1919C33.9232 38.8349 34.6292 36.3284 34.9167 36.3284C35.2202 36.3284 35.1869 38.5123 35.8692 40.4402C36.0407 40.9244 35.5892 41.5113 35.9829 42.0844C36.1214 43.6134 37.4909 47.6923 38.2572 48.7753C39.0239 49.8581 40.7592 52.6139 40.7592 52.6139C40.7592 52.6139 40.9724 52.9298 41.3079 53.3878C40.6407 53.6563 40.5779 56.2553 40.7127 56.5879C40.8472 56.9205 41.0359 57.0381 41.4757 56.8611C41.9154 56.6841 41.7047 55.2917 42.1444 55.1147C42.5844 54.9377 43.1217 55.5617 43.4364 56.1177C43.7469 56.6662 42.0157 57.6704 42.3437 58.4273C42.4234 58.6113 42.6874 58.614 42.9229 58.5193C43.1049 58.446 45.6264 57.3647 44.8299 55.3882" fill="white"/>
<path fill-rule="evenodd" clip-rule="evenodd" d="M19.5831 45.3642C19.5831 46.2879 18.0288 47.1373 18.0288 50.8317C18.0288 51.7873 17.0068 53.5706 17.0068 57.4351C17.0068 59.837 17.3571 61.9494 17.8288 63.8157C18.6466 60.6637 19.6858 57.3703 22.0361 57.0679C24.3863 56.7655 26.9928 52.9523 26.9928 51.6672C26.9928 51.6672 22.4108 45.4679 22.4108 44.7873C22.4108 44.1069 20.8226 44.6559 19.5831 45.3642" fill="white"/>
<path fill-rule="evenodd" clip-rule="evenodd" d="M18.295 23.2718C16.7083 23.9401 14.728 26.2263 14.728 28.3033C14.728 31.0636 14.9515 30.8088 14.9515 31.2865C14.9515 31.5518 14.8823 32.079 14.7943 32.8524C15.8413 31.7081 17.49 30.4039 19.082 29.667C20.6738 28.93 20.0838 27.4903 21.9983 26.7359C20.967 25.1879 19.1443 23.919 18.295 23.2718" fill="white"/>
<path fill-rule="evenodd" clip-rule="evenodd" d="M14.9322 31.0765C14.9282 31.0568 14.9237 31.0368 14.9189 31.0166C14.9237 31.0371 14.9282 31.0565 14.9322 31.0765" fill="white"/>
<path fill-rule="evenodd" clip-rule="evenodd" d="M14.9515 31.2866C14.9515 31.328 14.9493 31.3776 14.9463 31.4314C14.9493 31.3776 14.9515 31.328 14.9515 31.2866" fill="white"/>
<path fill-rule="evenodd" clip-rule="evenodd" d="M14.9326 31.0788C14.9366 31.0982 14.9399 31.1179 14.9426 31.1384C14.9399 31.1179 14.9366 31.0982 14.9326 31.0788" fill="white"/>
<path fill-rule="evenodd" clip-rule="evenodd" d="M14.9497 31.2093C14.9512 31.2332 14.952 31.2587 14.952 31.2866C14.952 31.2587 14.9512 31.2332 14.9497 31.2093" fill="white"/>
<path fill-rule="evenodd" clip-rule="evenodd" d="M14.9429 31.1414C14.9456 31.1621 14.9476 31.1835 14.9491 31.2069C14.9479 31.1835 14.9456 31.1621 14.9429 31.1414" fill="white"/>
<path fill-rule="evenodd" clip-rule="evenodd" d="M14.7942 32.8523C14.6374 34.2277 14.4197 36.3907 14.4197 39.3061C14.4197 39.3879 14.3732 39.5293 14.2939 39.715C14.9102 40.5604 15.6857 41.4041 16.3529 41.4041C16.9384 41.4041 17.5777 40.959 18.0989 40.5003C18.1039 40.4804 18.1084 40.4599 18.1154 40.4402C18.7979 38.5123 18.7647 36.3284 19.0682 36.3284C19.1219 36.3284 19.1899 36.4159 19.2657 36.5735C19.3512 35.0834 19.2214 32.137 18.3634 30.0361C17.0084 30.7933 15.6839 31.88 14.7942 32.8523" fill="white"/>
<path fill-rule="evenodd" clip-rule="evenodd" d="M14.7949 32.846C14.8362 32.4845 14.8729 32.1788 14.9007 31.9268C14.8729 32.1773 14.8359 32.486 14.7949 32.846" fill="white"/>
<path fill-rule="evenodd" clip-rule="evenodd" d="M14.9312 31.627C14.9359 31.5749 14.9399 31.5262 14.9429 31.4816C14.9399 31.5265 14.9362 31.5746 14.9312 31.627" fill="white"/>
<path fill-rule="evenodd" clip-rule="evenodd" d="M14.9273 31.6737C14.9206 31.7453 14.9126 31.8221 14.9033 31.9066C14.9126 31.8226 14.9206 31.745 14.9273 31.6737" fill="white"/>
<path fill-rule="evenodd" clip-rule="evenodd" d="M11.4827 51.3718C11.2417 50.8315 11.4175 47.2764 11.6597 46.2732C11.9022 45.2697 13.543 42.5949 14.2942 42.198C15.0452 41.8011 15.3865 45.5435 15.0452 46.5639C14.7042 47.5846 13.2257 52.6138 13.2257 52.6138C13.2257 52.6138 11.7237 51.912 11.4827 51.3718" fill="white"/>
<path fill-rule="evenodd" clip-rule="evenodd" d="M42.5022 51.3718C42.7432 50.8315 42.5675 47.2764 42.3252 46.2732C42.0827 45.2697 40.442 42.5949 39.6907 42.198C38.9397 41.8011 38.5985 45.5435 38.9397 46.5639C39.2807 47.5846 40.759 52.6138 40.759 52.6138C40.759 52.6138 42.2612 51.912 42.5022 51.3718" fill="white"/>
<path fill-rule="evenodd" clip-rule="evenodd" d="M15.0456 46.564C14.8036 47.3453 14.3248 48.9274 13.8788 50.4051C13.5218 51.608 13.2261 52.6139 13.2261 52.6139C13.2261 52.6139 14.9613 49.8583 15.7278 48.7753C16.4943 47.6923 17.8638 43.6134 18.0023 42.0847C17.3198 42.8785 15.5693 44.8719 15.0456 46.564" fill="white"/>
<path fill-rule="evenodd" clip-rule="evenodd" d="M23.1195 29.3834C22.831 28.0997 22.4493 27.4707 21.9988 26.7358C20.248 27.3279 20.6743 28.9299 19.0825 29.6669C18.8435 29.7776 18.6033 29.9025 18.3638 30.0361C19.31 30.971 20.0523 31.6354 20.8468 31.9269C21.641 32.2185 23.0625 32.1555 23.83 31.7902C23.5348 30.9461 23.2853 30.1206 23.1195 29.3834" fill="white"/>
<path fill-rule="evenodd" clip-rule="evenodd" d="M23.83 31.7902C23.0625 32.1554 21.641 32.2185 20.8468 31.9268C20.0523 31.6354 19.31 30.971 18.3638 30.0361C19.222 32.137 19.3515 35.0833 19.266 36.5734C19.259 36.5584 19.8703 38.4549 20.0068 39.9984C20.8463 41.1063 22.036 43.0484 22.036 43.0484C24.5748 39.9199 25.5645 38.7391 26.36 37.4525C25.5543 35.9137 24.6548 34.1322 23.83 31.7902" fill="#7E8DFE"/>
<path fill-rule="evenodd" clip-rule="evenodd" d="M34.4019 45.3642C34.4019 46.2879 35.9562 47.1373 35.9562 50.8317C35.9562 51.7873 36.9782 53.5706 36.9782 57.4351C36.9782 59.837 36.6279 61.9494 36.1562 63.8157C35.3384 60.6637 34.2989 57.3703 31.9487 57.0679C29.5987 56.7655 26.9922 52.9523 26.9922 51.6672C26.9922 51.6672 31.5742 45.4679 31.5742 44.7873C31.5742 44.1069 33.1624 44.6559 34.4019 45.3642" fill="white"/>
<path fill-rule="evenodd" clip-rule="evenodd" d="M35.6896 23.2718C37.2766 23.9401 39.2568 26.2263 39.2568 28.3033C39.2568 31.0636 39.0331 30.8088 39.0331 31.2865C39.0331 31.5518 39.1023 32.079 39.1906 32.8524C38.1433 31.7081 36.4946 30.4039 34.9026 29.667C33.3108 28.93 33.9011 27.4903 31.9863 26.7359C33.0176 25.1879 34.8403 23.919 35.6896 23.2718" fill="white"/>
<path fill-rule="evenodd" clip-rule="evenodd" d="M39.0527 31.0765C39.0567 31.0568 39.061 31.0368 39.066 31.0166C39.061 31.0371 39.0567 31.0565 39.0527 31.0765" fill="white"/>
<path fill-rule="evenodd" clip-rule="evenodd" d="M39.0332 31.2866C39.0332 31.328 39.0355 31.3776 39.0385 31.4314C39.0355 31.3776 39.0332 31.328 39.0332 31.2866" fill="white"/>
<path fill-rule="evenodd" clip-rule="evenodd" d="M39.052 31.0788C39.0482 31.0982 39.045 31.1179 39.042 31.1384C39.045 31.1179 39.0482 31.0982 39.052 31.0788" fill="white"/>
<path fill-rule="evenodd" clip-rule="evenodd" d="M39.0355 31.2093C39.034 31.2332 39.0332 31.2587 39.0332 31.2866C39.0332 31.2587 39.034 31.2332 39.0355 31.2093" fill="white"/>
<path fill-rule="evenodd" clip-rule="evenodd" d="M39.0419 31.1414C39.0391 31.1621 39.0369 31.1835 39.0356 31.2069C39.0369 31.1835 39.0391 31.1621 39.0419 31.1414" fill="white"/>
<path fill-rule="evenodd" clip-rule="evenodd" d="M39.1907 32.8523C39.3475 34.2277 39.5652 36.3907 39.5652 39.3061C39.5652 39.3879 39.6115 39.5293 39.691 39.715C39.0747 40.5604 38.2992 41.4041 37.632 41.4041C37.0462 41.4041 36.407 40.959 35.8857 40.5003C35.8807 40.4804 35.8765 40.4599 35.8692 40.4402C35.187 38.5123 35.2202 36.3284 34.9167 36.3284C34.863 36.3284 34.7947 36.4159 34.7192 36.5735C34.6337 35.0834 34.7635 32.137 35.6215 30.0361C36.9762 30.7933 38.3007 31.88 39.1907 32.8523" fill="white"/>
<path fill-rule="evenodd" clip-rule="evenodd" d="M39.1897 32.846C39.1485 32.4845 39.1117 32.1788 39.084 31.9268C39.1117 32.1773 39.1485 32.486 39.1897 32.846" fill="white"/>
<path fill-rule="evenodd" clip-rule="evenodd" d="M39.0537 31.627C39.049 31.5749 39.045 31.5262 39.042 31.4816C39.045 31.5265 39.049 31.5746 39.0537 31.627" fill="white"/>
<path fill-rule="evenodd" clip-rule="evenodd" d="M39.0576 31.6737C39.0644 31.7453 39.0724 31.8221 39.0816 31.9066C39.0726 31.8226 39.0644 31.745 39.0576 31.6737" fill="white"/>
<path fill-rule="evenodd" clip-rule="evenodd" d="M38.9397 46.564C39.1814 47.3453 39.6604 48.9274 40.1062 50.4051C40.4634 51.608 40.7592 52.6139 40.7592 52.6139C40.7592 52.6139 39.0239 49.8583 38.2574 48.7753C37.4909 47.6923 36.1214 43.6134 35.9829 42.0847C36.6652 42.8785 38.4159 44.8719 38.9397 46.564" fill="white"/>
<path fill-rule="evenodd" clip-rule="evenodd" d="M30.8658 29.3834C31.1543 28.0997 31.536 27.4707 31.9865 26.7358C33.737 27.3279 33.311 28.9299 34.9028 29.6669C35.1418 29.7776 35.382 29.9025 35.6215 30.0361C34.6753 30.971 33.933 31.6354 33.1385 31.9269C32.3443 32.2185 30.9228 32.1555 30.1553 31.7902C30.4505 30.9461 30.7 30.1206 30.8658 29.3834" fill="white"/>
<path fill-rule="evenodd" clip-rule="evenodd" d="M31.9494 43.0485C31.1501 42.0278 27.5111 37.652 27.6249 37.4543C27.6251 37.4538 27.6251 37.4528 27.6254 37.4523C27.3636 37.8985 27.1426 38.2144 26.9926 38.3423C26.8426 38.2144 26.6216 37.8985 26.3601 37.4523C26.3604 37.4528 26.3601 37.4538 26.3606 37.4543C26.4741 37.652 22.8351 42.0278 22.0361 43.0485C22.0361 43.0485 22.4941 43.9557 22.4109 44.7874C22.4109 45.4677 26.9926 51.667 26.9926 51.667C26.9926 51.667 31.5746 45.4677 31.5746 44.7874C31.4911 43.9557 31.9494 43.0485 31.9494 43.0485" fill="white"/>
<path fill-rule="evenodd" clip-rule="evenodd" d="M30.1553 31.7902C30.9228 32.1554 32.3443 32.2185 33.1385 31.9268C33.933 31.6354 34.6752 30.971 35.6215 30.0361C34.7632 32.137 34.6337 35.0833 34.719 36.5734C34.7262 36.5584 34.115 38.4549 33.9783 39.9984C33.1388 41.1063 31.949 43.0484 31.949 43.0484C29.4102 39.9199 28.4208 38.7391 27.625 37.4525C28.431 35.9137 29.3305 34.1322 30.1553 31.7902" fill="#7E8DFE"/>
<path fill-rule="evenodd" clip-rule="evenodd" d="M33.2099 22.6553L29.5582 20.5095L29.7259 18.9022C29.7259 18.9022 28.9084 16.378 26.9927 16.378C25.0767 16.378 24.2594 18.9022 24.2594 18.9022L24.4272 20.5095L20.7754 22.6553C19.9264 22.6553 19.0774 22.8832 18.2954 23.2716C20.1059 24.6772 22.3804 26.0947 23.1194 29.3833C23.8587 32.672 26.2602 37.7184 26.9927 38.3422C27.7252 37.7184 30.1267 32.672 30.8659 29.3833C31.6049 26.0947 33.8794 24.6772 35.6899 23.2716C34.9079 22.8832 34.0589 22.6553 33.2099 22.6553" fill="white"/>
<path fill-rule="evenodd" clip-rule="evenodd" d="M32.0386 12.7339C31.7311 12.7339 31.2791 12.8201 31.1958 13.1053C31.2656 12.1458 31.3168 11.2949 31.3168 10.8698C31.3168 9.54324 29.8753 7.00005 26.9926 7.00005C24.1098 7.00005 22.6686 9.54324 22.6686 10.8698C22.6686 11.2949 22.7198 12.146 22.7893 13.1056C22.7063 12.8201 22.2543 12.7339 21.9468 12.7339C21.6073 12.7339 21.4768 13.2544 21.7378 14.4778C21.9818 15.6211 22.9053 16.0065 23.0253 16.0522C23.1056 16.9898 23.1676 17.6699 23.1676 17.6699C23.1676 17.6699 23.6091 18.2648 24.2593 18.9025V18.9022C24.2593 18.9022 25.0768 16.378 26.9926 16.378C28.9086 16.378 29.7261 18.9022 29.7261 18.9022V18.9025C30.3763 18.2648 30.8178 17.6699 30.8178 17.6699C30.8178 17.6699 30.8798 16.9898 30.9601 16.0522C31.0801 16.0065 32.0033 15.6211 32.2473 14.4778C32.5083 13.2544 32.3778 12.7339 32.0386 12.7339" fill="white"/>
<path fill-rule="evenodd" clip-rule="evenodd" d="M19.5831 45.3642C19.5831 46.2879 18.0288 47.1373 18.0288 50.8317C18.0288 51.7873 17.0068 53.5706 17.0068 57.4351C17.0068 59.837 17.3571 61.9494 17.8288 63.8157C18.6466 60.6637 19.6858 57.3703 22.0361 57.0679C24.3863 56.7655 26.9928 52.9523 26.9928 51.6672C26.9928 51.6672 22.4108 45.4679 22.4108 44.7873C22.4108 44.1069 20.8226 44.6559 19.5831 45.3642Z" stroke="#353E82" stroke-width="0.5" stroke-linejoin="round"/>
<path fill-rule="evenodd" clip-rule="evenodd" d="M18.295 23.2718C16.7083 23.9401 14.728 26.2263 14.728 28.3033C14.728 31.0636 14.9515 30.8088 14.9515 31.2865C14.9515 31.5518 14.8823 32.079 14.7943 32.8524C15.8413 31.7081 17.49 30.4039 19.082 29.667C20.6738 28.93 20.0838 27.4903 21.9983 26.7359C20.967 25.1879 19.1443 23.919 18.295 23.2718Z" stroke="#353E82" stroke-width="0.5" stroke-linejoin="round"/>
<path fill-rule="evenodd" clip-rule="evenodd" d="M14.9322 31.0765C14.9282 31.0568 14.9237 31.0368 14.9189 31.0166C14.9237 31.0371 14.9282 31.0565 14.9322 31.0765Z" stroke="#353E82" stroke-width="0.5" stroke-linejoin="round"/>
<path fill-rule="evenodd" clip-rule="evenodd" d="M14.9515 31.2866C14.9515 31.328 14.9493 31.3776 14.9463 31.4314C14.9493 31.3776 14.9515 31.328 14.9515 31.2866Z" stroke="#353E82" stroke-width="0.5" stroke-linejoin="round"/>
<path fill-rule="evenodd" clip-rule="evenodd" d="M14.9326 31.0788C14.9366 31.0982 14.9399 31.1179 14.9426 31.1384C14.9399 31.1179 14.9366 31.0982 14.9326 31.0788Z" stroke="#353E82" stroke-width="0.5" stroke-linejoin="round"/>
<path fill-rule="evenodd" clip-rule="evenodd" d="M14.9497 31.2093C14.9512 31.2332 14.952 31.2587 14.952 31.2866C14.952 31.2587 14.9512 31.2332 14.9497 31.2093Z" stroke="#353E82" stroke-width="0.5" stroke-linejoin="round"/>
<path fill-rule="evenodd" clip-rule="evenodd" d="M14.9429 31.1414C14.9456 31.1621 14.9476 31.1835 14.9491 31.2069C14.9479 31.1835 14.9456 31.1621 14.9429 31.1414Z" stroke="#353E82" stroke-width="0.5" stroke-linejoin="round"/>
<path fill-rule="evenodd" clip-rule="evenodd" d="M14.7942 32.8523C14.6374 34.2277 14.4197 36.3907 14.4197 39.3061C14.4197 39.3879 14.3732 39.5293 14.2939 39.715C14.9102 40.5604 15.6857 41.4041 16.3529 41.4041C16.9384 41.4041 17.5777 40.959 18.0989 40.5003C18.1039 40.4804 18.1084 40.4599 18.1154 40.4402C18.7979 38.5123 18.7647 36.3284 19.0682 36.3284C19.1219 36.3284 19.1899 36.4159 19.2657 36.5735C19.3512 35.0834 19.2214 32.137 18.3634 30.0361C17.0084 30.7933 15.6839 31.88 14.7942 32.8523Z" stroke="#353E82" stroke-width="0.5" stroke-linejoin="round"/>
<path fill-rule="evenodd" clip-rule="evenodd" d="M14.7949 32.846C14.8362 32.4845 14.8729 32.1788 14.9007 31.9268C14.8729 32.1773 14.8359 32.486 14.7949 32.846Z" stroke="#353E82" stroke-width="0.5" stroke-linejoin="round"/>
<path fill-rule="evenodd" clip-rule="evenodd" d="M14.9312 31.627C14.9359 31.5749 14.9399 31.5262 14.9429 31.4816C14.9399 31.5265 14.9362 31.5746 14.9312 31.627Z" stroke="#353E82" stroke-width="0.5" stroke-linejoin="round"/>
<path fill-rule="evenodd" clip-rule="evenodd" d="M14.9273 31.6737C14.9206 31.7453 14.9126 31.8221 14.9033 31.9066C14.9126 31.8226 14.9206 31.745 14.9273 31.6737Z" stroke="#353E82" stroke-width="0.5" stroke-linejoin="round"/>
<path fill-rule="evenodd" clip-rule="evenodd" d="M11.4827 51.3718C11.2417 50.8315 11.4175 47.2764 11.6597 46.2732C11.9022 45.2697 13.543 42.5949 14.2942 42.198C15.0452 41.8011 15.3865 45.5435 15.0452 46.5639C14.7042 47.5846 13.2257 52.6138 13.2257 52.6138C13.2257 52.6138 11.7237 51.912 11.4827 51.3718Z" stroke="#353E82" stroke-width="0.5" stroke-linejoin="round"/>
<path fill-rule="evenodd" clip-rule="evenodd" d="M42.5022 51.3718C42.7432 50.8315 42.5675 47.2764 42.3252 46.2732C42.0827 45.2697 40.442 42.5949 39.6907 42.198C38.9397 41.8011 38.5985 45.5435 38.9397 46.5639C39.2807 47.5846 40.759 52.6138 40.759 52.6138C40.759 52.6138 42.2612 51.912 42.5022 51.3718Z" stroke="#353E82" stroke-width="0.5" stroke-linejoin="round"/>
<path fill-rule="evenodd" clip-rule="evenodd" d="M15.0456 46.564C14.8036 47.3453 14.3248 48.9274 13.8788 50.4051C13.5218 51.608 13.2261 52.6139 13.2261 52.6139C13.2261 52.6139 14.9613 49.8583 15.7278 48.7753C16.4943 47.6923 17.8638 43.6134 18.0023 42.0847C17.3198 42.8785 15.5693 44.8719 15.0456 46.564Z" stroke="#353E82" stroke-width="0.5" stroke-linejoin="round"/>
<path fill-rule="evenodd" clip-rule="evenodd" d="M23.1195 29.3834C22.831 28.0997 22.4493 27.4707 21.9988 26.7358C20.248 27.3279 20.6743 28.9299 19.0825 29.6669C18.8435 29.7776 18.6033 29.9025 18.3638 30.0361C19.31 30.971 20.0523 31.6354 20.8468 31.9269C21.641 32.2185 23.0625 32.1555 23.83 31.7902C23.5348 30.9461 23.2853 30.1206 23.1195 29.3834Z" stroke="#353E82" stroke-width="0.5" stroke-linejoin="round"/>
<path fill-rule="evenodd" clip-rule="evenodd" d="M23.83 31.7902C23.0625 32.1554 21.641 32.2185 20.8468 31.9268C20.0523 31.6354 19.31 30.971 18.3638 30.0361C19.222 32.137 19.3515 35.0833 19.266 36.5734C19.259 36.5584 19.8703 38.4549 20.0068 39.9984C20.8463 41.1063 22.036 43.0484 22.036 43.0484C24.5748 39.9199 25.5645 38.7391 26.36 37.4525C25.5543 35.9137 24.6548 34.1322 23.83 31.7902Z" stroke="#353E82" stroke-width="0.5" stroke-linejoin="round"/>
<path fill-rule="evenodd" clip-rule="evenodd" d="M34.4019 45.3642C34.4019 46.2879 35.9562 47.1373 35.9562 50.8317C35.9562 51.7873 36.9782 53.5706 36.9782 57.4351C36.9782 59.837 36.6279 61.9494 36.1562 63.8157C35.3384 60.6637 34.2989 57.3703 31.9487 57.0679C29.5987 56.7655 26.9922 52.9523 26.9922 51.6672C26.9922 51.6672 31.5742 45.4679 31.5742 44.7873C31.5742 44.1069 33.1624 44.6559 34.4019 45.3642Z" stroke="#353E82" stroke-width="0.5" stroke-linejoin="round"/>
<path fill-rule="evenodd" clip-rule="evenodd" d="M35.6896 23.2718C37.2766 23.9401 39.2568 26.2263 39.2568 28.3033C39.2568 31.0636 39.0331 30.8088 39.0331 31.2865C39.0331 31.5518 39.1023 32.079 39.1906 32.8524C38.1433 31.7081 36.4946 30.4039 34.9026 29.667C33.3108 28.93 33.9011 27.4903 31.9863 26.7359C33.0176 25.1879 34.8403 23.919 35.6896 23.2718Z" stroke="#353E82" stroke-width="0.5" stroke-linejoin="round"/>
<path fill-rule="evenodd" clip-rule="evenodd" d="M39.0527 31.0765C39.0567 31.0568 39.061 31.0368 39.066 31.0166C39.061 31.0371 39.0567 31.0565 39.0527 31.0765Z" stroke="#353E82" stroke-width="0.5" stroke-linejoin="round"/>
<path fill-rule="evenodd" clip-rule="evenodd" d="M39.0332 31.2866C39.0332 31.328 39.0355 31.3776 39.0385 31.4314C39.0355 31.3776 39.0332 31.328 39.0332 31.2866Z" stroke="#353E82" stroke-width="0.5" stroke-linejoin="round"/>
<path fill-rule="evenodd" clip-rule="evenodd" d="M39.052 31.0788C39.0482 31.0982 39.045 31.1179 39.042 31.1384C39.045 31.1179 39.0482 31.0982 39.052 31.0788Z" stroke="#353E82" stroke-width="0.5" stroke-linejoin="round"/>
<path fill-rule="evenodd" clip-rule="evenodd" d="M39.0355 31.2093C39.034 31.2332 39.0332 31.2587 39.0332 31.2866C39.0332 31.2587 39.034 31.2332 39.0355 31.2093Z" stroke="#353E82" stroke-width="0.5" stroke-linejoin="round"/>
<path fill-rule="evenodd" clip-rule="evenodd" d="M39.0419 31.1414C39.0391 31.1621 39.0369 31.1835 39.0356 31.2069C39.0369 31.1835 39.0391 31.1621 39.0419 31.1414Z" stroke="#353E82" stroke-width="0.5" stroke-linejoin="round"/>
<path fill-rule="evenodd" clip-rule="evenodd" d="M39.1907 32.8523C39.3475 34.2277 39.5652 36.3907 39.5652 39.3061C39.5652 39.3879 39.6115 39.5293 39.691 39.715C39.0747 40.5604 38.2992 41.4041 37.632 41.4041C37.0462 41.4041 36.407 40.959 35.8857 40.5003C35.8807 40.4804 35.8765 40.4599 35.8692 40.4402C35.187 38.5123 35.2202 36.3284 34.9167 36.3284C34.863 36.3284 34.7947 36.4159 34.7192 36.5735C34.6337 35.0834 34.7635 32.137 35.6215 30.0361C36.9762 30.7933 38.3007 31.88 39.1907 32.8523Z" stroke="#353E82" stroke-width="0.5" stroke-linejoin="round"/>
<path fill-rule="evenodd" clip-rule="evenodd" d="M39.1897 32.846C39.1485 32.4845 39.1117 32.1788 39.084 31.9268C39.1117 32.1773 39.1485 32.486 39.1897 32.846Z" stroke="#353E82" stroke-width="0.5" stroke-linejoin="round"/>
<path fill-rule="evenodd" clip-rule="evenodd" d="M39.0537 31.627C39.049 31.5749 39.045 31.5262 39.042 31.4816C39.045 31.5265 39.049 31.5746 39.0537 31.627Z" stroke="#353E82" stroke-width="0.5" stroke-linejoin="round"/>
<path fill-rule="evenodd" clip-rule="evenodd" d="M39.0576 31.6737C39.0644 31.7453 39.0724 31.8221 39.0816 31.9066C39.0726 31.8226 39.0644 31.745 39.0576 31.6737Z" stroke="#353E82" stroke-width="0.5" stroke-linejoin="round"/>
<path fill-rule="evenodd" clip-rule="evenodd" d="M38.9397 46.564C39.1814 47.3453 39.6604 48.9274 40.1062 50.4051C40.4634 51.608 40.7592 52.6139 40.7592 52.6139C40.7592 52.6139 39.0239 49.8583 38.2574 48.7753C37.4909 47.6923 36.1214 43.6134 35.9829 42.0847C36.6652 42.8785 38.4159 44.8719 38.9397 46.564Z" stroke="#353E82" stroke-width="0.5" stroke-linejoin="round"/>
<path fill-rule="evenodd" clip-rule="evenodd" d="M30.8658 29.3834C31.1543 28.0997 31.536 27.4707 31.9865 26.7358C33.737 27.3279 33.311 28.9299 34.9028 29.6669C35.1418 29.7776 35.382 29.9025 35.6215 30.0361C34.6753 30.971 33.933 31.6354 33.1385 31.9269C32.3443 32.2185 30.9228 32.1555 30.1553 31.7902C30.4505 30.9461 30.7 30.1206 30.8658 29.3834Z" stroke="#353E82" stroke-width="0.5" stroke-linejoin="round"/>
<path fill-rule="evenodd" clip-rule="evenodd" d="M31.9494 43.0485C31.1501 42.0278 27.5111 37.652 27.6249 37.4543C27.6251 37.4538 27.6251 37.4528 27.6254 37.4523C27.3636 37.8985 27.1426 38.2144 26.9926 38.3423C26.8426 38.2144 26.6216 37.8985 26.3601 37.4523C26.3604 37.4528 26.3601 37.4538 26.3606 37.4543C26.4741 37.652 22.8351 42.0278 22.0361 43.0485C22.0361 43.0485 22.4941 43.9557 22.4109 44.7874C22.4109 45.4677 26.9926 51.667 26.9926 51.667C26.9926 51.667 31.5746 45.4677 31.5746 44.7874C31.4911 43.9557 31.9494 43.0485 31.9494 43.0485Z" stroke="#353E82" stroke-width="0.5" stroke-linejoin="round"/>
<path fill-rule="evenodd" clip-rule="evenodd" d="M30.1553 31.7902C30.9228 32.1554 32.3443 32.2185 33.1385 31.9268C33.933 31.6354 34.6752 30.971 35.6215 30.0361C34.7632 32.137 34.6337 35.0833 34.719 36.5734C34.7262 36.5584 34.115 38.4549 33.9783 39.9984C33.1388 41.1063 31.949 43.0484 31.949 43.0484C29.4102 39.9199 28.4208 38.7391 27.625 37.4525C28.431 35.9137 29.3305 34.1322 30.1553 31.7902Z" stroke="#353E82" stroke-width="0.5" stroke-linejoin="round"/>
<path fill-rule="evenodd" clip-rule="evenodd" d="M22.8066 13.1987C22.8066 12.8362 22.2861 12.7339 21.9468 12.7339C21.6073 12.7339 21.4768 13.2545 21.7378 14.4779C21.9991 15.7012 23.0386 16.057 23.0386 16.057L22.8066 13.1987Z" stroke="#353E82" stroke-width="0.5" stroke-linejoin="round"/>
<path fill-rule="evenodd" clip-rule="evenodd" d="M31.1783 13.1987C31.1783 12.8362 31.699 12.7339 32.0383 12.7339C32.3775 12.7339 32.508 13.2545 32.247 14.4779C31.986 15.7012 30.9463 16.057 30.9463 16.057L31.1783 13.1987Z" stroke="#353E82" stroke-width="0.5" stroke-linejoin="round"/>
<path fill-rule="evenodd" clip-rule="evenodd" d="M33.2099 22.6553L29.5582 20.5095L29.7259 18.9022C29.7259 18.9022 28.9084 16.378 26.9927 16.378C25.0767 16.378 24.2594 18.9022 24.2594 18.9022L24.4272 20.5095L20.7754 22.6553C19.9264 22.6553 19.0774 22.8832 18.2954 23.2716C20.1059 24.6772 22.3804 26.0947 23.1194 29.3833C23.8587 32.672 26.2602 37.7184 26.9927 38.3422C27.7252 37.7184 30.1267 32.672 30.8659 29.3833C31.6049 26.0947 33.8794 24.6772 35.6899 23.2716C34.9079 22.8832 34.0589 22.6553 33.2099 22.6553Z" stroke="#353E82" stroke-width="0.5" stroke-linejoin="round"/>
<path fill-rule="evenodd" clip-rule="evenodd" d="M24.2592 18.9024V18.9024C24.2592 18.9024 25.0767 16.3779 26.9925 16.3779C28.9085 16.3779 29.7257 18.9024 29.7257 18.9024V18.9024C30.376 18.2647 30.8177 17.6698 30.8177 17.6698C30.8177 17.6698 31.3165 12.1968 31.3165 10.87C31.3165 9.54316 29.8752 6.99998 26.9925 6.99998C24.1097 6.99998 22.6685 9.54316 22.6685 10.87C22.6685 12.1968 23.1672 17.6698 23.1672 17.6698C23.1672 17.6698 23.609 18.2647 24.2592 18.9024Z" stroke="#353E82" stroke-width="0.5" stroke-linejoin="round"/>
<path fill-rule="evenodd" clip-rule="evenodd" d="M44.8299 55.3882C44.2237 53.8839 43.4342 52.8799 43.3179 51.4402C43.2017 50.0004 42.1942 45.6675 41.8179 44.2162C41.4414 42.765 39.5652 39.8264 39.5652 39.3061C39.5652 34.7515 39.0332 32.0234 39.0332 31.2867C39.0332 30.8087 39.2569 31.0635 39.2569 28.3032C39.2569 26.318 37.6927 24.2669 35.6897 23.2717C35.6852 23.2694 35.6809 23.2677 35.6764 23.2654C35.5882 23.2218 35.4992 23.1804 35.4094 23.141C35.3797 23.1281 35.3494 23.1161 35.3194 23.1036C35.2542 23.0762 35.1889 23.0493 35.1229 23.0241C35.0867 23.0101 35.0502 22.9977 35.0137 22.9845C34.9534 22.9628 34.8929 22.9418 34.8319 22.9219C34.7929 22.9094 34.7534 22.8975 34.7142 22.8857C34.6552 22.868 34.5959 22.8511 34.5364 22.8351C34.4962 22.8244 34.4557 22.8142 34.4152 22.8045C34.3557 22.79 34.2959 22.7768 34.2362 22.7646C34.1957 22.7561 34.1554 22.7479 34.1149 22.7404C34.0537 22.7292 33.9919 22.7197 33.9302 22.7107C33.8914 22.705 33.8527 22.6985 33.8137 22.6938C33.7464 22.6856 33.6787 22.6796 33.6112 22.6741C33.5779 22.6713 33.5449 22.6674 33.5119 22.6654C33.4114 22.6591 33.3107 22.6554 33.2099 22.6554V22.6554L29.5579 20.5096L29.7257 18.9023C29.7257 18.9023 28.9084 16.3778 26.9924 16.3778C25.0767 16.3778 24.2592 18.9023 24.2592 18.9023L24.4272 20.5096L20.7752 22.6554V22.6554C20.6744 22.6554 20.5737 22.6591 20.4732 22.6654C20.4399 22.6674 20.4069 22.6713 20.3739 22.6741C20.3062 22.6796 20.2387 22.6856 20.1712 22.6938C20.1324 22.6985 20.0937 22.705 20.0547 22.7107C19.9932 22.7197 19.9314 22.7292 19.8699 22.7404C19.8297 22.7479 19.7892 22.7561 19.7487 22.7646C19.6892 22.7768 19.6294 22.79 19.5699 22.8045C19.5294 22.8142 19.4889 22.8244 19.4487 22.8351C19.3892 22.8511 19.3299 22.868 19.2709 22.8857C19.2314 22.8975 19.1922 22.9094 19.1529 22.9219C19.0922 22.9418 19.0317 22.9628 18.9712 22.9845C18.9347 22.9977 18.8982 23.0101 18.8619 23.0241C18.7962 23.0493 18.7309 23.0762 18.6654 23.1036C18.6357 23.1161 18.6054 23.1281 18.5757 23.141C18.4859 23.1804 18.3969 23.2218 18.3087 23.2654C18.3042 23.2677 18.2997 23.2694 18.2952 23.2717H18.2954C16.2922 24.2669 14.7282 26.318 14.7282 28.3032C14.7282 31.0635 14.9517 30.8087 14.9517 31.2867C14.9517 32.0234 14.4199 34.7515 14.4199 39.3061C14.4199 39.8264 12.5434 42.765 12.1672 44.2162C11.7909 45.6675 10.7834 50.0004 10.6672 51.4402C10.5509 52.8799 9.76142 53.8839 9.15517 55.3882C8.35842 57.3647 10.8802 58.446 11.0622 58.5193C11.2977 58.614 11.5617 58.6113 11.6414 58.4273C11.9694 57.6704 10.2382 56.6662 10.5487 56.1177C10.8634 55.5617 11.4007 54.9377 11.8404 55.1147C12.2802 55.2917 12.0694 56.6841 12.5094 56.8611C12.9492 57.0381 13.1377 56.9205 13.2724 56.5879C13.4072 56.2553 13.3444 53.6563 12.6772 53.3878C13.0124 52.9298 13.2257 52.6139 13.2257 52.6139C13.2257 52.6139 14.9612 49.8581 15.7277 48.7753C16.4942 47.6923 17.8637 43.6134 18.0019 42.0844C18.3959 41.5113 17.9444 40.9244 18.1157 40.4402C18.7982 38.5123 18.7649 36.3284 19.0684 36.3284C19.3559 36.3284 20.0619 38.8349 20.0619 41.1919C20.0619 42.9754 19.5829 42.243 19.5829 45.3641C19.5829 46.2877 18.0284 47.1371 18.0284 50.8316C18.0284 51.7872 17.0067 53.5708 17.0067 57.4353C17.0067 64.8245 20.3142 69.4875 20.3142 72.6089C20.3142 75.9531 19.4044 74.9982 19.4044 78.8837C19.4044 82.7694 22.0579 87.857 22.0579 90.5642C22.0579 96.0076 18.6464 93.097 18.6464 94.7601C18.6464 95.1213 19.5942 95.6297 19.5942 95.6297L22.1624 96.6359L23.8774 96.8014C24.6387 96.8014 25.3559 96.5369 25.3559 95.2138C25.3559 94.7893 25.3179 93.72 25.3179 93.2104C25.3179 92.7008 24.7492 91.2329 24.7492 89.6194C24.7492 88.0056 24.8629 83.4577 24.8629 83.4577C24.8629 83.4577 25.6589 81.2324 25.6589 79.6398C25.6589 78.0473 24.7872 75.5397 24.7872 74.8392C24.7872 74.1384 25.9387 72.3441 25.9387 65.3338C25.9387 62.3082 26.6732 57.2121 26.6732 53.677H26.9924H27.3119C27.3119 57.2121 28.0464 62.3082 28.0464 65.3338C28.0464 72.3441 29.1979 74.1384 29.1979 74.8392C29.1979 75.5397 28.3259 78.0473 28.3259 79.6398C28.3259 81.2324 29.1219 83.4577 29.1219 83.4577C29.1219 83.4577 29.2357 88.0056 29.2357 89.6194C29.2357 91.2329 28.6672 92.7008 28.6672 93.2104C28.6672 93.72 28.6292 94.7893 28.6292 95.2138C28.6292 96.5369 29.3462 96.8014 30.1074 96.8014L31.8227 96.6359L34.3909 95.6297C34.3909 95.6297 35.3387 95.1213 35.3387 94.7601C35.3387 93.097 31.9269 96.0076 31.9269 90.5642C31.9269 87.857 34.5804 82.7694 34.5804 78.8837C34.5804 74.9982 33.6707 75.9531 33.6707 72.6089C33.6707 69.4875 36.9784 64.8245 36.9784 57.4353C36.9784 53.5708 35.9564 51.7872 35.9564 50.8316C35.9564 47.1371 34.4022 46.2877 34.4022 45.3641C34.4022 42.243 33.9232 42.9754 33.9232 41.1919C33.9232 38.8349 34.6292 36.3284 34.9167 36.3284C35.2202 36.3284 35.1869 38.5123 35.8692 40.4402C36.0407 40.9244 35.5892 41.5113 35.9829 42.0844C36.1214 43.6134 37.4909 47.6923 38.2572 48.7753C39.0239 49.8581 40.7592 52.6139 40.7592 52.6139C40.7592 52.6139 40.9724 52.9298 41.3079 53.3878C40.6407 53.6563 40.5779 56.2553 40.7127 56.5879C40.8472 56.9205 41.0359 57.0381 41.4757 56.8611C41.9154 56.6841 41.7047 55.2917 42.1444 55.1147C42.5844 54.9377 43.1217 55.5617 43.4364 56.1177C43.7469 56.6662 42.0157 57.6704 42.3437 58.4273C42.4234 58.6113 42.6874 58.614 42.9229 58.5193C43.1049 58.446 45.6264 57.3647 44.8299 55.3882Z" stroke="#353E82" stroke-width="0.5" stroke-linejoin="round"/>
<rect width="53" height="53" rx="6" fill="url(#paint0_linear_0_3927)"/>
<mask id="mask1_0_3927" style="mask-type:luminance" maskUnits="userSpaceOnUse" x="0" y="0" width="53" height="53">
<rect width="53" height="53" rx="6" fill="white"/>
</mask>
<g mask="url(#mask1_0_3927)">
</g>
</g>
</g>
<defs>
<linearGradient id="paint0_linear_0_3927" x1="16.0448" y1="32.0897" x2="16.0448" y2="53" gradientUnits="userSpaceOnUse">
<stop stop-color="#F6F6F8" stop-opacity="0.01"/>
<stop offset="1" stop-color="#F6F6F8"/>
</linearGradient>
<clipPath id="clip0_0_3927">
<rect width="53" height="53" fill="white"/>
</clipPath>
</defs>
</svg>
